<svg xmlns="http://www.w3.org/2000/svg" viewBox="0 0 386.57 409.55"><defs><style>.cls-1{fill:#fff;}.cls-2{fill:#d3033b;}</style></defs><g id="Layer_2" data-name="Layer 2"><g id="Ebene_3" data-name="Ebene 3"><path class="cls-1" d="M207.51,63.09a74.31,74.31,0,0,1,67-42.31v-2.7A77,77,0,0,0,204.6,63q-3.15-.1-6.32-.13a76.53,76.53,0,0,0-20.9-38.76h0A76.91,76.91,0,0,0,103.57,4a77,77,0,0,0,14.29,68.37C50,91,2.44,137.48,2.44,216.26c0,105.92,85.87,191.79,191.79,191.79S386,322.18,386,216.26C386,114.8,307.23,67,207.51,63.09"/><path class="cls-2" d="M191.35,69.15a2,2,0,0,0,1.14,2.66,2.21,2.21,0,0,0,.75.14,2,2,0,1,0-1.89-2.8m-9,22.84a2,2,0,0,0,1.15,2.65,2.21,2.21,0,0,0,.75.14,2,2,0,1,0-1.9-2.79m-6.78-6.79a2,2,0,0,0,1.15,2.65,2.21,2.21,0,0,0,.75.14,2,2,0,1,0-1.9-2.79m-6.79-6.79A2,2,0,0,0,170,81.06a2,2,0,0,0,.75.14,2,2,0,0,0,.73-4,2,2,0,0,0-2.64,1.16m-4.47,11.42A2,2,0,1,0,167,88.67a2,2,0,0,0-2.64,1.16M162,71.62a2,2,0,0,0,1.14,2.65,2,2,0,0,0,.75.15,2.08,2.08,0,0,0,1.92-1.3,2,2,0,0,0-1.17-2.65A2,2,0,0,0,162,71.62M157.55,83a2.06,2.06,0,0,0,1.16,2.65,2,2,0,0,0,.75.14A2,2,0,1,0,157.55,83m-2.31-18.2a2.05,2.05,0,0,0,1.16,2.65,2.11,2.11,0,0,0,.74.14,2,2,0,1,0-1.9-2.79m-4.48,11.41a2.07,2.07,0,0,0,1.16,2.65,2,2,0,0,0,.75.14,2,2,0,1,0-1.91-2.79m-2.31-18.2a2.06,2.06,0,0,0,1.16,2.65,2,2,0,0,0,.75.14,2,2,0,1,0-1.91-2.79M144,69.47a2,2,0,0,0,1.16,2.65,2.21,2.21,0,0,0,.75.14A2,2,0,1,0,144,69.47m-4.47,11.41a2,2,0,0,0,1.16,2.65,2,2,0,0,0,.75.14,2,2,0,1,0-1.91-2.79m-2.31-18.2a2,2,0,0,0,1.16,2.65,1.91,1.91,0,0,0,.74.14,2,2,0,1,0-1.9-2.79m-4.47,11.41a2,2,0,0,0,1.15,2.65,2,2,0,0,0,.74.15,2,2,0,1,0-1.89-2.8m-2.33-18.2a2.05,2.05,0,0,0,1.17,2.65,2,2,0,0,0,.75.14,2,2,0,0,0,.73-4,2.06,2.06,0,0,0-2.65,1.16m-4.47,11.42A2,2,0,0,0,127.1,70a2,2,0,0,0,.73.14,2,2,0,1,0-1.9-2.79m-6.78-6.79a2.05,2.05,0,0,0,1.15,2.65,2,2,0,0,0,.75.14,2,2,0,1,0-1.9-2.79m-6.79-6.79a2,2,0,0,0,1.16,2.65,2,2,0,0,0,.75.15,2.05,2.05,0,1,0-1.91-2.8m-.81-34.91a2,2,0,1,0-3.81-1.49A2,2,0,0,0,108.9,20a2.11,2.11,0,0,0,.74.14,2,2,0,0,0,1.91-1.3m1.15,15.55a2,2,0,1,0-1.49,3.81,1.94,1.94,0,0,0,.74.14,2,2,0,0,0,.75-4M116,7.4a2,2,0,1,0-2.66,1.16,2,2,0,0,0,.75.14A2,2,0,0,0,116,7.4m2.31,18.21a2,2,0,1,0-2.65,1.16,2.21,2.21,0,0,0,.75.14,2.05,2.05,0,0,0,1.9-1.3m1.16,15.55A2,2,0,1,0,118,45a2.21,2.21,0,0,0,.75.14,2,2,0,0,0,.75-4m3.31-27a2,2,0,1,0-2.65,1.16,2,2,0,0,0,.75.14,2,2,0,0,0,1.9-1.3m2.31,18.2A2,2,0,0,0,124,29.74a2,2,0,1,0-1.5,3.81,2,2,0,0,0,.75.14,2,2,0,0,0,1.9-1.3M126.27,48a2,2,0,0,0-2.65,1.15,2.06,2.06,0,0,0,1.15,2.66,2.21,2.21,0,0,0,.75.14,2.05,2.05,0,0,0,1.91-1.3A2,2,0,0,0,126.27,48m3.33-27A2,2,0,1,0,127,22.14a2,2,0,0,0,.73.14A2.06,2.06,0,0,0,129.6,21m1.14,15.55a2,2,0,0,0-1.48,3.81,1.89,1.89,0,0,0,.73.14,2,2,0,0,0,.75-3.95m3.33-27a2,2,0,1,0-2.65,1.16,2,2,0,0,0,.75.14,2.06,2.06,0,0,0,1.9-1.3m2.31,18.21a2,2,0,1,0-2.65,1.15,2,2,0,0,0,.75.15,2.05,2.05,0,0,0,1.9-1.3m1.16,15.55a2,2,0,0,0-1.5,3.81,2.21,2.21,0,0,0,.75.14,2,2,0,0,0,.75-4m3.32-27a2.05,2.05,0,1,0-2.66,1.16,2.21,2.21,0,0,0,.75.14,2.06,2.06,0,0,0,1.91-1.3m2.31,18.2a2,2,0,1,0-2.66,1.16,2,2,0,0,0,.75.14,2,2,0,0,0,1.91-1.3m1.16,15.56a2,2,0,1,0-1.5,3.8,2,2,0,0,0,.75.15,2,2,0,0,0,.75-4m3.31-27A2,2,0,1,0,145,24.3a2.21,2.21,0,0,0,.75.14,2.05,2.05,0,0,0,1.91-1.3m1.15,15.55a2,2,0,0,0-1.49,3.81,1.91,1.91,0,0,0,.74.14,2,2,0,0,0,.75-4m3.32-27a2,2,0,1,0-2.65,1.16,2,2,0,0,0,.75.14,2,2,0,0,0,1.9-1.3m2.31,18.2a2,2,0,0,0-1.16-2.65,2,2,0,1,0-1.49,3.81,2,2,0,0,0,.75.14,2,2,0,0,0,1.9-1.3m1.16,15.56a2,2,0,0,0-1.5,3.81,2.21,2.21,0,0,0,.75.14,2,2,0,0,0,.75-4m3.32-27a2,2,0,1,0-2.64,1.16,2,2,0,0,0,.73.14,2,2,0,0,0,1.91-1.3m2.31,18.2a2,2,0,1,0-2.64,1.16,1.83,1.83,0,0,0,.73.14,2,2,0,0,0,1.91-1.3m1.15,15.55a2,2,0,1,0-1.48,3.81,1.89,1.89,0,0,0,.73.14,2,2,0,0,0,.75-4m3.32-27A2,2,0,1,0,163,26.46a2.21,2.21,0,0,0,.75.14,2,2,0,0,0,1.89-1.3M168,43.5A2,2,0,1,0,164.2,42a2,2,0,0,0,1.16,2.65,2.11,2.11,0,0,0,.74.14A2.06,2.06,0,0,0,168,43.5m1.14,15.55a2,2,0,0,0-1.48,3.81,2.1,2.1,0,0,0,.73.14,2,2,0,0,0,.75-4m3.33-27a2,2,0,1,0-2.65,1.16,1.94,1.94,0,0,0,.74.14,2.06,2.06,0,0,0,1.91-1.3m2.31,18.2a2,2,0,1,0-2.65,1.16,2,2,0,0,0,.75.14,2,2,0,0,0,1.9-1.3M176,65.84a2,2,0,1,0-1.5,3.81,2.21,2.21,0,0,0,.75.14,2,2,0,0,0,.75-4m3.31-27A2,2,0,1,0,176.61,40a2.21,2.21,0,0,0,.75.14,2,2,0,0,0,1.9-1.3m2.32,18.2a2.05,2.05,0,1,0-2.66,1.16,2,2,0,0,0,.75.14,2.06,2.06,0,0,0,1.91-1.3m1.15,15.55a2.05,2.05,0,0,0-1.5,3.82,2.21,2.21,0,0,0,.75.14,2.05,2.05,0,0,0,.75-4m3.32-27a2,2,0,0,0-3.81-1.5,2.06,2.06,0,0,0,1.15,2.66,2.21,2.21,0,0,0,.75.14,2.06,2.06,0,0,0,1.91-1.3m2.31,18.2A2,2,0,1,0,185.71,65a1.91,1.91,0,0,0,.74.14,2,2,0,0,0,1.91-1.3m1.15,15.55A2,2,0,1,0,188,83.22a1.94,1.94,0,0,0,.74.14,2,2,0,0,0,.75-4m-58.82,4.88c.39.3.79.59,1.19.88a2.06,2.06,0,0,0-1-.82l-.2-.06m245.54,82.56-10.52-24.09c1,1.81,2,3.65,3,5.51a130.71,130.71,0,0,1,7.57,18.58M359.59,133l19.83,45.4a158.09,158.09,0,0,1,3.45,21.95L346.47,117a129.41,129.41,0,0,1,13.12,16M328,101c.81.59,1.61,1.19,2.41,1.79l53,121.27q-.25,6.08-.86,12.06L321.6,96.66c2.19,1.42,4.34,2.87,6.42,4.38M252.08,69.81l105.71,242c-1.15,2-2.34,3.93-3.57,5.87L273,131.7c.5,2.45,1,4.91,1.38,7.41l78.76,180.3q-1.81,2.79-3.72,5.52L276.86,158.87c.15,1.71.28,3.43.39,5.15l71,162.54q-1.89,2.64-3.86,5.2L277.85,179.43c0,1.1,0,2.18,0,3.29,0,.34,0,.68,0,1l65.33,149.56q-1.95,2.49-4,4.91L277.54,197c-.06,1.25-.15,2.5-.23,3.75L338,339.67c-1.34,1.57-2.7,3.13-4.1,4.66L276.35,212.59c-.11,1.13-.25,2.25-.38,3.37l56.67,129.73c-1.38,1.48-2.79,2.95-4.21,4.39L274.54,226.73c-.15,1-.34,2.06-.51,3.09l53.1,121.56c-1.41,1.4-2.86,2.78-4.32,4.14L272.23,239.73c-.19,1-.4,1.92-.6,2.88l49.86,114.14c-1.45,1.33-2.93,2.63-4.42,3.91L269.52,251.81c-.23.91-.44,1.83-.67,2.73l46.86,107.27c-1.49,1.25-3,2.49-4.52,3.7L266.48,263.15l-.75,2.53,44.08,100.91q-2.28,1.77-4.62,3.47l-42-96.23c-.26.8-.53,1.59-.81,2.39l41.44,94.87q-2.32,1.67-4.7,3.26l-39.51-90.44c-.29.76-.57,1.52-.87,2.28l38.93,89.11c-1.58,1-3.18,2.07-4.79,3.06l-37.07-84.85c-.3.72-.6,1.44-.91,2.16l36.51,83.59q-2.42,1.46-4.89,2.85l-34.71-79.47-1,2.05L285,382.94q-2.46,1.37-5,2.66l-32.44-74.25c-.33.66-.65,1.33-1,2l31.9,73c-1.67.84-3.36,1.65-5.06,2.45l-30.19-69.11-1,1.87,29.69,68q-2.55,1.15-5.15,2.25l-28-64.11c-.35.6-.71,1.2-1.06,1.81l27.5,62.95c-1.74.71-3.48,1.39-5.24,2.05l-25.84-59.15c-.36.58-.72,1.17-1.09,1.75l25.33,58c-1.76.64-3.54,1.25-5.32,1.85l-23.69-54.23c-.37.56-.75,1.12-1.13,1.67l23.19,53.09c-1.79.57-3.59,1.13-5.41,1.65l-21.55-49.33c-.38.54-.77,1.06-1.16,1.59l21.06,48.21q-2.74.75-5.5,1.44L219.4,356.59l-1.18,1.54,18.92,43.31c-1.86.44-3.72.86-5.59,1.24l-17.28-39.54-1.2,1.49L229.83,403c-1.88.37-3.78.71-5.68,1L209,369.45c-.41.48-.81,1-1.23,1.45l14.6,33.42c-1.92.29-3.84.55-5.78.79L203.7,375.53l-1.25,1.38,12.41,28.41q-2.93.33-5.88.57l-10.71-24.5c-.42.44-.85.87-1.28,1.31L207.18,406c-2,.14-4,.25-6,.33L192.74,387l-1.3,1.27,7.93,18.16c-2,.06-4.05.11-6.08.11h0l-6.16-14.12-1.33,1.23,5.62,12.86q-3.1,0-6.2-.16l-3.81-8.71-1.33,1.19,3.25,7.45c-2.12-.11-4.23-.27-6.33-.45l-1.38-3.17-1.36,1.15.81,1.85C78.65,396.46,3,315,3,216.26c0-25.39,5-48.26,14.91-68A130.1,130.1,0,0,1,58.55,101C75.51,88.76,96,79.5,119.32,73.33q1.7,1.94,3.52,3.77l.38.36a1.49,1.49,0,0,0-.43.06c.83.82,1.69,1.62,2.56,2.4a2,2,0,0,0,0-.42A76.92,76.92,0,0,0,153,95.64a1.25,1.25,0,0,0,0,.19c1.06.35,2.13.66,3.2,1a1.36,1.36,0,0,0,.12-.12,77.57,77.57,0,0,0,21.13,3A76.28,76.28,0,0,0,194,97.79h8.4v-3a70.46,70.46,0,0,1,6.71-30,293.84,293.84,0,0,1,43,5.06m-52.68,25h-2.19a76.8,76.8,0,0,0,2-19.62,77,77,0,0,1,74.35-57.09v2.7a74.19,74.19,0,0,0-74.21,74m.32-30.34c-.38.9-.73,1.81-1.07,2.72-.12-.92-.27-1.84-.42-2.75l1.49,0M191,49.68A2,2,0,0,0,189,51a2.06,2.06,0,0,0,1.16,2.65,2,2,0,0,0,2.13-.42,74.76,74.76,0,0,1,3.94,21.59,78.77,78.77,0,0,0-2.1,11.87,2.16,2.16,0,0,0-.5.72,2,2,0,0,0,.25,1.88c-.13,1.84-.21,3.68-.21,5.55v0a74,74,0,0,1-18.77,1.76,2.05,2.05,0,0,0-1.13-1.11,2,2,0,0,0-2.48.88,74.85,74.85,0,0,1-15.43-3s-.09-.07-.15-.09a2.79,2.79,0,0,0-.33-.06,73.75,73.75,0,0,1-7.84-2.9,2.1,2.1,0,1,0-.27-.12,73.06,73.06,0,0,1-38.88-40.73,2,2,0,0,0-1.35-3.76A74.72,74.72,0,0,1,103.84,31a1.75,1.75,0,0,0,.58.37,2,2,0,0,0,.75.15,2,2,0,0,0,1.9-1.3,2.06,2.06,0,0,0-1.15-2.66,2,2,0,0,0-2.37.71A73.85,73.85,0,0,1,104,13a2.08,2.08,0,0,0,.8-1,2,2,0,0,0-.37-2q.44-2.53,1-5a73.29,73.29,0,0,1,18.19-1.89,2.1,2.1,0,0,0,1,.89,2.27,2.27,0,0,0,.76.14A2,2,0,0,0,127,3.21a74.73,74.73,0,0,1,15.17,2.57,1.88,1.88,0,0,0,.48.31,2,2,0,0,0,.75.15,1.52,1.52,0,0,0,.21,0,74,74,0,0,1,31,18.45l1.06-1.06-1,1.07a73.79,73.79,0,0,1,16.36,25M310.82,90.27c2.82,1.53,5.55,3.14,8.22,4.8l63.11,144.46q-.64,5.26-1.57,10.44ZM300.6,85.18q4,1.83,7.8,3.82L380,252.93q-.92,4.69-2.06,9.3ZM290.77,81q3.83,1.52,7.51,3.15l79,180.8c-.75,2.84-1.57,5.65-2.44,8.44Zm-9.49-3.45c2.46.83,4.88,1.69,7.26,2.6L374,275.8q-1.29,3.92-2.75,7.74ZM272,74.65q3.59,1,7.08,2.17l91.3,209c-1,2.41-2,4.79-3,7.16Zm90.22,229.07c-1.1,2.1-2.23,4.19-3.4,6.25L254.13,70.25c2.28.47,4.55,1,6.78,1.48ZM263,72.25c2.34.57,4.64,1.17,6.92,1.8l96.56,221c-1,2.25-2.11,4.48-3.22,6.68ZM383.52,220.13,333.24,105q5.22,4.14,9.92,8.68l40.09,91.76c.21,3.55.32,7.14.32,10.8,0,1.29,0,2.58-.05,3.87m3.05-3.87c0-25.86-5.12-49.18-15.23-69.33a133,133,0,0,0-41.56-48.32C299.64,76.8,258.65,64.25,210.57,61.84a71.28,71.28,0,0,1,63-38.06h3v-8.7h-3A80,80,0,0,0,201,61.48l-3.35-.07A77.1,77.1,0,0,0,176.8,22.57l0,0a76.91,76.91,0,0,0-31.4-18.92v0c-.73-.24-1.46-.44-2.19-.65l-.29-.09-.77-.23,0,0A78.06,78.06,0,0,0,126.19.16l-.07,0a1.94,1.94,0,0,0-1.3,0,76.54,76.54,0,0,0-16,1.08,1.83,1.83,0,0,0,.21-.26c-1,.17-2,.36-3,.56a2.5,2.5,0,0,0,.35.21c-.86.18-1.72.34-2.58.55l-.87.21-.22.87c-.57,2.16-1,4.34-1.36,6.53a1.92,1.92,0,0,0-.45.69,2,2,0,0,0,.07,1.62,74.67,74.67,0,0,0-.68,10,2.06,2.06,0,0,0-.64-1c0,1,0,2.05,0,3.08a2,2,0,0,0,.59-.79,1.55,1.55,0,0,0,.06-.31,77.78,77.78,0,0,0,1.93,16.54,2,2,0,0,0-.82-.67c.23,1.08.49,2.16.77,3.23a2.1,2.1,0,0,0,.37-.59,2.7,2.7,0,0,0,.07-.41,77.25,77.25,0,0,0,14.55,29.52,2.19,2.19,0,0,0-.66-.12l.22.26c-22.92,6.27-43.16,15.53-60,27.71a133,133,0,0,0-41.56,48.32C5.12,167.08,0,190.4,0,216.26,0,322.84,86.71,409.55,193.29,409.55s193.28-86.71,193.28-193.29"/></g></g></svg>