<svg id="Ebene_1" data-name="Ebene 1" xmlns="http://www.w3.org/2000/svg" xmlns:xlink="http://www.w3.org/1999/xlink" viewBox="0 0 256 256"><defs><style>.cls-1,.cls-10,.cls-5,.cls-6,.cls-8,.cls-9{fill:none;}.cls-2{clip-path:url(#clip-path);}.cls-3{fill:#fff;}.cls-4{clip-path:url(#clip-path-2);}.cls-10,.cls-5,.cls-6,.cls-8,.cls-9{stroke:#d3033b;}.cls-10,.cls-5{stroke-miterlimit:10;}.cls-5{stroke-width:1.6px;}.cls-10,.cls-6{stroke-width:4px;}.cls-7{clip-path:url(#clip-path-4);}.cls-8,.cls-9{stroke-linecap:round;stroke-linejoin:round;stroke-width:2.73px;}.cls-8{stroke-dasharray:0 8.19;}</style><clipPath id="clip-path"><rect class="cls-1" x="5.82" y="0.07" width="243.68" height="256"/></clipPath><clipPath id="clip-path-2"><path class="cls-1" d="M7.82,134.24a119.84,119.84,0,0,0,239.67,0c0-66.19-53.65-95.87-119.83-95.87S7.82,68.05,7.82,134.24"/></clipPath><clipPath id="clip-path-4"><path class="cls-1" d="M82,.07A48.25,48.25,0,0,0,71,1.6a48.06,48.06,0,0,0,12.4,46.64h0A48.07,48.07,0,0,0,129.53,60.8a48,48,0,0,0-12.41-46.64h0A48,48,0,0,0,84.26.07Z"/></clipPath></defs><g class="cls-2"><path class="cls-3" d="M127.66,254.07A119.83,119.83,0,0,0,247.49,134.24c0-66.19-53.65-95.87-119.83-95.87S7.82,68.05,7.82,134.24A119.83,119.83,0,0,0,127.66,254.07"/></g><g class="cls-4"><path class="cls-5" d="M-220.88,648.47-524.53-46.65m311.17,695.12L-517-46.65m311.17,695.12L-509.5-46.65m311.17,695.12L-502-46.65m311.17,695.12L-494.47-46.65M-183.3,648.47-486.95-46.65m311.17,695.12L-479.43-46.65m311.17,695.12L-471.91-46.65m311.16,695.12L-464.4-46.65m311.17,695.12L-456.88-46.65m311.17,695.12L-449.36-46.65m311.17,695.12L-441.85-46.65m311.17,695.12L-434.33-46.65m311.17,695.12L-426.81-46.65m311.17,695.12L-419.3-46.65m311.17,695.12L-411.78-46.65m311.17,695.12L-404.26-46.65M-93.09,648.47-396.74-46.65M-85.57,648.47-389.23-46.65M-78.06,648.47-381.71-46.65M-70.54,648.47-374.19-46.65M-63,648.47-366.68-46.65M-55.51,648.47-359.16-46.65M-48,648.47-351.64-46.65M-40.47,648.47-344.13-46.65M-33,648.47-336.61-46.65M-25.44,648.47-329.09-46.65M-17.92,648.47-321.57-46.65M-10.41,648.47-314.06-46.65M-2.89,648.47-306.54-46.65M4.63,648.47-299-46.65M12.14,648.47-291.51-46.65M19.66,648.47-284-46.65M27.18,648.47-276.47-46.65M34.7,648.47-269-46.65M42.21,648.47-261.44-46.65M49.73,648.47-253.92-46.65M57.25,648.47-246.41-46.65M64.76,648.47-238.89-46.65M72.28,648.47-231.37-46.65M79.8,648.47-223.85-46.65M87.31,648.47-216.34-46.65M94.83,648.47-208.82-46.65M102.35,648.47-201.3-46.65M109.86,648.47-193.79-46.65M117.38,648.47-186.27-46.65M124.9,648.47-178.75-46.65M132.42,648.47-171.24-46.65M139.93,648.47-163.72-46.65M147.45,648.47-156.2-46.65M155,648.47-148.68-46.65M162.48,648.47-141.17-46.65M170,648.47-133.65-46.65M177.52,648.47-126.13-46.65M185,648.47-118.62-46.65M192.55,648.47-111.1-46.65M200.07,648.47-103.58-46.65M207.59,648.47-96.07-46.65M215.1,648.47-88.55-46.65M222.62,648.47-81-46.65M230.14,648.47-73.51-46.65M237.65,648.47-66-46.65M245.17,648.47-58.48-46.65M252.69,648.47-51-46.65M260.2,648.47-43.45-46.65M267.72,648.47-35.93-46.65M275.24,648.47-28.41-46.65M282.76,648.47-20.9-46.65M290.27,648.47-13.38-46.65M297.79,648.47-5.86-46.65M305.31,648.47,1.66-46.65M312.82,648.47,9.17-46.65M320.34,648.47,16.69-46.65M327.86,648.47,24.21-46.65M335.37,648.47,31.72-46.65M342.89,648.47,39.24-46.65M350.41,648.47,46.76-46.65M357.92,648.47,54.27-46.65M365.44,648.47,61.79-46.65M373,648.47,69.31-46.65M380.48,648.47,76.82-46.65M388,648.47,84.34-46.65M395.51,648.47,91.86-46.65M403,648.47,99.38-46.65M410.54,648.47,106.89-46.65M418.06,648.47,114.41-46.65M425.58,648.47,121.93-46.65M433.09,648.47,129.44-46.65M440.61,648.47,137-46.65M448.13,648.47,144.48-46.65M455.65,648.47,152-46.65M463.16,648.47,159.51-46.65M470.68,648.47,167-46.65M478.2,648.47,174.55-46.65M485.71,648.47,182.06-46.65M493.23,648.47,189.58-46.65M500.75,648.47,197.1-46.65M508.26,648.47,204.61-46.65M515.78,648.47,212.13-46.65M523.3,648.47,219.65-46.65M530.82,648.47,227.16-46.65M538.33,648.47,234.68-46.65M545.85,648.47,242.2-46.65M553.37,648.47,249.72-46.65M560.88,648.47,257.23-46.65M568.4,648.47,264.75-46.65M575.92,648.47,272.26-46.65M583.43,648.47,279.78-46.65M591,648.47,287.3-46.65M598.47,648.47,294.82-46.65M606,648.47,302.33-46.65M613.5,648.47,309.85-46.65M621,648.47,317.37-46.65M628.54,648.47,324.88-46.65M636.05,648.47,332.4-46.65M643.57,648.47,339.92-46.65M651.09,648.47,347.44-46.65M658.6,648.47,355-46.65M666.12,648.47,362.47-46.65M673.64,648.47,370-46.65M681.15,648.47,377.5-46.65M688.67,648.47,385-46.65M696.19,648.47,392.54-46.65M703.71,648.47,400.05-46.65M711.22,648.47,407.57-46.65M718.74,648.47,415.09-46.65M726.26,648.47,422.6-46.65M733.77,648.47,430.12-46.65M741.29,648.47,437.64-46.65M748.81,648.47,445.16-46.65M756.32,648.47,452.67-46.65M763.84,648.47,460.19-46.65M771.36,648.47,467.71-46.65M778.87,648.47,475.22-46.65M786.39,648.47,482.74-46.65M793.91,648.47,490.26-46.65M801.43,648.47,497.77-46.65M808.94,648.47,505.29-46.65M816.46,648.47,512.81-46.65M824,648.47,520.32-46.65M831.49,648.47,527.84-46.65M839,648.47,535.36-46.65M846.53,648.47,542.88-46.65M854.05,648.47,550.39-46.65M861.56,648.47,557.91-46.65M869.08,648.47,565.43-46.65M876.59,648.47,572.94-46.65M884.11,648.47,580.46-46.65M891.63,648.47,588-46.65M899.15,648.47,595.5-46.65M906.66,648.47,603-46.65M914.18,648.47,610.53-46.65M921.7,648.47,618.05-46.65M929.21,648.47,625.56-46.65M936.73,648.47,633.08-46.65M944.25,648.47,640.6-46.65M951.77,648.47,648.11-46.65M959.28,648.47,655.63-46.65M966.8,648.47,663.15-46.65M974.32,648.47,670.66-46.65M981.83,648.47,678.18-46.65M989.35,648.47,685.7-46.65M996.87,648.47,693.22-46.65m311.16,695.12L700.73-46.65M1011.9,648.47,708.25-46.65m311.17,695.12L715.77-46.65m311.16,695.12L723.28-46.65m311.17,695.12L730.8-46.65M1042,648.47,738.32-46.65m311.17,695.12L745.83-46.65M1057,648.47,753.35-46.65m311.17,695.12L760.87-46.65M1072,648.47,768.38-46.65m311.17,695.12L775.9-46.65m311.17,695.12L783.42-46.65m311.17,695.12L790.94-46.65M1102.1,648.47,798.45-46.65m311.17,695.12L806-46.65m311.17,695.12L813.49-46.65m311.16,695.12L821-46.65m311.17,695.12L828.52-46.65m311.17,695.12L836-46.65m311.17,695.12L843.55-46.65m311.17,695.12L851.07-46.65m311.17,695.12L858.59-46.65m311.17,695.12L866.11-46.65m311.16,695.12L873.62-46.65m311.17,695.12L881.14-46.65m311.17,695.12L888.66-46.65m311.17,695.12L896.17-46.65m311.17,695.12L903.69-46.65m311.17,695.12L911.21-46.65m311.17,695.12L918.72-46.65m311.17,695.12L926.24-46.65m311.17,695.12L933.76-46.65m311.17,695.12L941.28-46.65m311.16,695.12L948.79-46.65M1260,648.47,956.31-46.65m311.17,695.12L963.83-46.65M1275,648.47,971.34-46.65"/><path class="cls-3" d="M.47,294A180.42,180.42,0,0,0,180.89,113.57C180.89,13.92,100.11-30.77.47-30.77S-179.95,13.92-179.95,113.57A180.42,180.42,0,0,0,.47,294"/></g><g class="cls-2"><path class="cls-6" d="M127.66,254.07A119.83,119.83,0,0,0,247.49,134.24c0-66.19-53.65-95.87-119.83-95.87S7.82,68.05,7.82,134.24A119.83,119.83,0,0,0,127.66,254.07Z"/><path class="cls-3" d="M115.7,15.57A46.32,46.32,0,0,0,72.64,3.26,46.22,46.22,0,0,0,84.83,46.83a46.28,46.28,0,0,0,43.06,12.31,46.23,46.23,0,0,0-12.18-43.57Z"/></g><g class="cls-7"><line class="cls-8" x1="-253.51" y1="-356.73" x2="0.46" y2="224.65"/><path class="cls-9" d="M2.1,228.41h0M-256.79-364.23h0"/><line class="cls-8" x1="-247.1" y1="-356.73" x2="6.87" y2="224.65"/><path class="cls-9" d="M8.51,228.41h0M-250.38-364.23h0"/><line class="cls-8" x1="-240.69" y1="-356.73" x2="13.28" y2="224.65"/><path class="cls-9" d="M14.92,228.41h0M-244-364.23h0"/><line class="cls-8" x1="-234.28" y1="-356.73" x2="19.69" y2="224.65"/><path class="cls-9" d="M21.33,228.41h0M-237.56-364.23h0"/><line class="cls-8" x1="-227.87" y1="-356.73" x2="26.1" y2="224.65"/><path class="cls-9" d="M27.73,228.41h0M-231.15-364.23h0"/><line class="cls-8" x1="-221.47" y1="-356.73" x2="32.51" y2="224.65"/><path class="cls-9" d="M34.14,228.41h0M-224.74-364.23h0"/><line class="cls-8" x1="-215.06" y1="-356.73" x2="38.91" y2="224.65"/><path class="cls-9" d="M40.55,228.41h0M-218.33-364.23h0"/><line class="cls-8" x1="-208.65" y1="-356.73" x2="45.32" y2="224.65"/><path class="cls-9" d="M47,228.41h0M-211.93-364.23h0"/><line class="cls-8" x1="-202.24" y1="-356.73" x2="51.73" y2="224.65"/><path class="cls-9" d="M53.37,228.41h0M-205.52-364.23h0"/><line class="cls-8" x1="-195.83" y1="-356.73" x2="58.14" y2="224.65"/><path class="cls-9" d="M59.78,228.41h0M-199.11-364.23h0"/><line class="cls-8" x1="-189.42" y1="-356.73" x2="64.55" y2="224.65"/><path class="cls-9" d="M66.19,228.41h0M-192.7-364.23h0"/><line class="cls-8" x1="-183.01" y1="-356.73" x2="70.96" y2="224.65"/><path class="cls-9" d="M72.6,228.41h0M-186.29-364.23h0"/><line class="cls-8" x1="-176.6" y1="-356.73" x2="77.37" y2="224.65"/><path class="cls-9" d="M79,228.41h0M-179.88-364.23h0"/><line class="cls-8" x1="-170.2" y1="-356.73" x2="83.78" y2="224.65"/><path class="cls-9" d="M85.41,228.41h0M-173.47-364.23h0"/><line class="cls-8" x1="-163.79" y1="-356.73" x2="90.18" y2="224.65"/><path class="cls-9" d="M91.82,228.41h0M-167.06-364.23h0"/><line class="cls-8" x1="-157.38" y1="-356.73" x2="96.59" y2="224.65"/><path class="cls-9" d="M98.23,228.41h0M-160.65-364.23h0"/><line class="cls-8" x1="-150.97" y1="-356.73" x2="103" y2="224.65"/><path class="cls-9" d="M104.64,228.41h0M-154.25-364.23h0"/><line class="cls-8" x1="-144.56" y1="-356.73" x2="109.41" y2="224.65"/><path class="cls-9" d="M111.05,228.41h0M-147.84-364.23h0"/><line class="cls-8" x1="-138.15" y1="-356.73" x2="115.82" y2="224.65"/><path class="cls-9" d="M117.46,228.41h0M-141.43-364.23h0"/><line class="cls-8" x1="-131.74" y1="-356.73" x2="122.23" y2="224.65"/><path class="cls-9" d="M123.87,228.41h0M-135-364.23h0"/><line class="cls-8" x1="-125.33" y1="-356.73" x2="128.64" y2="224.65"/><path class="cls-9" d="M130.28,228.41h0M-128.61-364.23h0"/><line class="cls-8" x1="-118.93" y1="-356.73" x2="135.05" y2="224.65"/><path class="cls-9" d="M136.68,228.41h0M-122.2-364.23h0"/><line class="cls-8" x1="-112.52" y1="-356.73" x2="141.45" y2="224.65"/><path class="cls-9" d="M143.09,228.41h0M-115.79-364.23h0"/><line class="cls-8" x1="-106.11" y1="-356.73" x2="147.86" y2="224.65"/><path class="cls-9" d="M149.5,228.41h0M-109.38-364.23h0"/><line class="cls-8" x1="-99.7" y1="-356.73" x2="154.27" y2="224.65"/><path class="cls-9" d="M155.91,228.41h0M-103-364.23h0"/><line class="cls-8" x1="-93.29" y1="-356.73" x2="160.68" y2="224.65"/><path class="cls-9" d="M162.32,228.41h0M-96.57-364.23h0"/><line class="cls-8" x1="-86.88" y1="-356.73" x2="167.09" y2="224.65"/><path class="cls-9" d="M168.73,228.41h0M-90.16-364.23h0"/><line class="cls-8" x1="-80.47" y1="-356.73" x2="173.5" y2="224.65"/><path class="cls-9" d="M175.14,228.41h0M-83.75-364.23h0"/><line class="cls-8" x1="-74.06" y1="-356.73" x2="179.91" y2="224.65"/><path class="cls-9" d="M181.55,228.41h0M-77.34-364.23h0"/><line class="cls-8" x1="-67.65" y1="-356.73" x2="186.32" y2="224.65"/><path class="cls-9" d="M188,228.41h0M-70.93-364.23h0"/><line class="cls-8" x1="-61.25" y1="-356.73" x2="192.73" y2="224.65"/><path class="cls-9" d="M194.36,228.41h0M-64.52-364.23h0"/><line class="cls-8" x1="-54.84" y1="-356.73" x2="199.13" y2="224.65"/><path class="cls-9" d="M200.77,228.41h0M-58.11-364.23h0"/><line class="cls-8" x1="-48.43" y1="-356.73" x2="205.54" y2="224.65"/><path class="cls-9" d="M207.18,228.41h0M-51.7-364.23h0"/><line class="cls-8" x1="-42.02" y1="-356.73" x2="211.95" y2="224.65"/><path class="cls-9" d="M213.59,228.41h0M-45.3-364.23h0"/><line class="cls-8" x1="-35.61" y1="-356.73" x2="218.36" y2="224.65"/><path class="cls-9" d="M220,228.41h0M-38.89-364.23h0"/><line class="cls-8" x1="-29.2" y1="-356.73" x2="224.77" y2="224.65"/><path class="cls-9" d="M226.41,228.41h0M-32.48-364.23h0"/><line class="cls-8" x1="-22.79" y1="-356.73" x2="231.18" y2="224.65"/><path class="cls-9" d="M232.82,228.41h0M-26.07-364.23h0"/><line class="cls-8" x1="-16.38" y1="-356.73" x2="237.59" y2="224.65"/><path class="cls-9" d="M239.22,228.41h0M-19.66-364.23h0"/><line class="cls-8" x1="-9.98" y1="-356.73" x2="244" y2="224.65"/><path class="cls-9" d="M245.63,228.41h0M-13.25-364.23h0"/><line class="cls-8" x1="-3.57" y1="-356.73" x2="250.4" y2="224.65"/><path class="cls-9" d="M252,228.41h0M-6.84-364.23h0"/><line class="cls-8" x1="2.84" y1="-356.73" x2="256.81" y2="224.65"/><path class="cls-9" d="M258.45,228.41h0M-.44-364.23h0"/><line class="cls-8" x1="9.25" y1="-356.73" x2="263.22" y2="224.65"/><path class="cls-9" d="M264.86,228.41h0M6-364.23H6"/><line class="cls-8" x1="15.66" y1="-356.73" x2="269.63" y2="224.65"/><path class="cls-9" d="M271.27,228.41h0M12.38-364.23h0"/><line class="cls-8" x1="22.07" y1="-356.73" x2="276.04" y2="224.65"/><path class="cls-9" d="M277.68,228.41h0M18.79-364.23h0"/><line class="cls-8" x1="28.48" y1="-356.73" x2="282.45" y2="224.65"/><path class="cls-9" d="M284.09,228.41h0M25.2-364.23h0"/><line class="cls-8" x1="34.89" y1="-356.73" x2="288.86" y2="224.65"/><path class="cls-9" d="M290.49,228.41h0M31.61-364.23h0"/><line class="cls-8" x1="41.29" y1="-356.73" x2="295.26" y2="224.65"/><path class="cls-9" d="M296.9,228.41h0M38-364.23h0"/><line class="cls-8" x1="47.7" y1="-356.73" x2="301.67" y2="224.65"/><path class="cls-9" d="M303.31,228.41h0M44.43-364.23h0"/><line class="cls-8" x1="54.11" y1="-356.73" x2="308.08" y2="224.65"/><path class="cls-9" d="M309.72,228.41h0M50.84-364.23h0"/><line class="cls-8" x1="60.52" y1="-356.73" x2="314.49" y2="224.65"/><path class="cls-9" d="M316.13,228.41h0M57.24-364.23h0"/><line class="cls-8" x1="66.93" y1="-356.73" x2="320.9" y2="224.65"/><path class="cls-9" d="M322.54,228.41h0M63.65-364.23h0"/><line class="cls-8" x1="73.34" y1="-356.73" x2="327.31" y2="224.65"/><path class="cls-9" d="M329,228.41h0M70.06-364.23h0"/><line class="cls-8" x1="79.75" y1="-356.73" x2="333.72" y2="224.65"/><path class="cls-9" d="M335.36,228.41h0M76.47-364.23h0"/><line class="cls-8" x1="86.16" y1="-356.73" x2="340.13" y2="224.65"/><path class="cls-9" d="M341.76,228.41h0M82.88-364.23h0"/><line class="cls-8" x1="92.56" y1="-356.73" x2="346.54" y2="224.65"/><path class="cls-9" d="M348.17,228.41h0M89.29-364.23h0"/><line class="cls-8" x1="98.97" y1="-356.73" x2="352.94" y2="224.65"/><path class="cls-9" d="M354.58,228.41h0M95.7-364.23h0"/><line class="cls-8" x1="105.38" y1="-356.73" x2="359.35" y2="224.65"/><path class="cls-9" d="M361,228.41h0M102.11-364.23h0"/><line class="cls-8" x1="111.79" y1="-356.73" x2="365.76" y2="224.65"/><path class="cls-9" d="M367.4,228.41h0M108.51-364.23h0"/><line class="cls-8" x1="118.2" y1="-356.73" x2="372.17" y2="224.65"/><path class="cls-9" d="M373.81,228.41h0M114.92-364.23h0"/><line class="cls-8" x1="124.61" y1="-356.73" x2="378.58" y2="224.65"/><path class="cls-9" d="M380.22,228.41h0M121.33-364.23h0"/><line class="cls-8" x1="131.02" y1="-356.73" x2="384.99" y2="224.65"/><path class="cls-9" d="M386.63,228.41h0M127.74-364.23h0"/><line class="cls-8" x1="137.43" y1="-356.73" x2="391.4" y2="224.65"/><path class="cls-9" d="M393,228.41h0M134.15-364.23h0"/><line class="cls-8" x1="143.84" y1="-356.73" x2="397.8" y2="224.65"/><path class="cls-9" d="M399.44,228.41h0M140.56-364.23h0"/><line class="cls-8" x1="150.24" y1="-356.73" x2="404.21" y2="224.65"/><path class="cls-9" d="M405.85,228.41h0M147-364.23h0"/><line class="cls-8" x1="156.65" y1="-356.73" x2="410.62" y2="224.65"/><path class="cls-9" d="M412.26,228.41h0M153.38-364.23h0"/><line class="cls-8" x1="163.06" y1="-356.73" x2="417.03" y2="224.65"/><path class="cls-9" d="M418.67,228.41h0M159.79-364.23h0"/><line class="cls-8" x1="169.47" y1="-356.73" x2="423.44" y2="224.65"/><path class="cls-9" d="M425.08,228.41h0M166.19-364.23h0"/><line class="cls-8" x1="175.88" y1="-356.73" x2="429.85" y2="224.65"/><path class="cls-9" d="M431.49,228.41h0M172.6-364.23h0"/><line class="cls-8" x1="182.29" y1="-356.73" x2="436.26" y2="224.65"/><path class="cls-9" d="M437.9,228.41h0M179-364.23h0"/><line class="cls-8" x1="188.7" y1="-356.73" x2="442.67" y2="224.65"/><path class="cls-9" d="M444.31,228.41h0M185.42-364.23h0"/><line class="cls-8" x1="195.11" y1="-356.73" x2="449.08" y2="224.65"/><path class="cls-9" d="M450.71,228.41h0M191.83-364.23h0"/><line class="cls-8" x1="201.51" y1="-356.73" x2="455.48" y2="224.65"/><path class="cls-9" d="M457.12,228.41h0M198.24-364.23h0"/><line class="cls-8" x1="207.92" y1="-356.73" x2="461.89" y2="224.65"/><path class="cls-9" d="M463.53,228.41h0M204.65-364.23h0"/><line class="cls-8" x1="214.33" y1="-356.73" x2="468.3" y2="224.65"/><path class="cls-9" d="M469.94,228.41h0M211.05-364.23h0"/><line class="cls-8" x1="220.74" y1="-356.73" x2="474.71" y2="224.65"/><path class="cls-9" d="M476.35,228.41h0M217.46-364.23h0"/><line class="cls-8" x1="227.15" y1="-356.73" x2="481.12" y2="224.65"/><path class="cls-9" d="M482.76,228.41h0M223.87-364.23h0"/><line class="cls-8" x1="233.56" y1="-356.73" x2="487.53" y2="224.65"/><path class="cls-9" d="M489.17,228.41h0M230.28-364.23h0"/><line class="cls-8" x1="239.97" y1="-356.73" x2="493.94" y2="224.65"/><path class="cls-9" d="M495.58,228.41h0M236.69-364.23h0"/><line class="cls-8" x1="246.38" y1="-356.73" x2="500.35" y2="224.65"/><path class="cls-9" d="M502,228.41h0M243.1-364.23h0"/><line class="cls-8" x1="252.78" y1="-356.73" x2="506.75" y2="224.65"/><path class="cls-9" d="M508.39,228.41h0M249.51-364.23h0"/><path class="cls-9" d="M514.8,228.41h0M255.92-364.23h0"/></g><g class="cls-2"><path class="cls-6" d="M115.7,15.57A46.32,46.32,0,0,0,72.64,3.26,46.22,46.22,0,0,0,84.83,46.83a46.28,46.28,0,0,0,43.06,12.31,46.23,46.23,0,0,0-12.18-43.57Z"/><path class="cls-3" d="M131.49,60.32H127.8v-2a50,50,0,0,1,50-49.91h2V14.1h-2a44.33,44.33,0,0,0-44.34,44.22v2Z"/><path class="cls-10" d="M131.49,60.32H127.8v-2a50,50,0,0,1,50-49.91h2V14.1h-2a44.33,44.33,0,0,0-44.34,44.22v2Z"/></g></svg>