<svg xmlns="http://www.w3.org/2000/svg" viewBox="0 0 95.91 143.06"><defs><style>.cls-1{fill:#fff;}.cls-2{fill:#d3033b;}</style></defs><g id="Layer_2" data-name="Layer 2"><g id="Ebene_3" data-name="Ebene 3"><path class="cls-1" d="M93.89,12.48c0-6.07-14.25-11-46.41-11S1.07,6.41,1.07,12.48a4,4,0,0,0,.24,1.31C2.59,26.71,12.88,130.4,12.88,130.59c0,6.06,15.49,11,34.6,11s34.6-4.92,34.6-11c0-.19,10.29-103.88,11.57-116.8a4,4,0,0,0,.24-1.31"/><path class="cls-2" d="M82.3,40.34l4.12,9.43c.06-.64.12-1.2.17-1.69L83.49,41c-.37-.22-.76-.43-1.19-.64m-4.65-1.69,8,18.36q.09-.87.18-1.68L78.69,39l-1-.3m-4.33-1L84.93,64.26c.06-.58.11-1.14.17-1.69L74.31,37.86l-1-.19M69.12,37,84.18,71.49c.06-.56.12-1.12.17-1.68L70.09,37.15l-1-.13M65,36.58,83.43,78.73l.18-1.68L66,36.66l-1-.08m-4-.31L82.68,86l.18-1.69-21-47.95L61,36.27m-4-.2,25,57.13c0-.55.11-1.12.17-1.68L57.9,36.11l-.92,0M53,36l28.17,64.49c.06-.55.11-1.12.17-1.68L53.94,36,53,36m27.42,71.73c.06-.56.12-1.12.17-1.69L50,35.91h-.91Zm-2.93,16.65a2,2,0,0,1-.24.86l-1.45-3.34a3.56,3.56,0,0,1,1.69,2.48m-3-3.34,2.18,5a9.06,9.06,0,0,1-2.24,1.73l-3.68-8.41A23,23,0,0,1,74.53,121m-4.81-2.06,4,9.18a22.57,22.57,0,0,1-2.52,1.1L66.31,118c1.22.3,2.37.61,3.41,1m-4.43-1.19,5.13,11.75c-.81.29-1.68.56-2.63.82L62,117.12c1.14.19,2.24.39,3.27.62M61,117,67,130.53c-.86.21-1.78.42-2.73.61l-6.38-14.59c1.11.12,2.16.26,3.18.41m-4.13-.5,6.49,14.85c-.9.17-1.82.32-2.8.46l-6.79-15.55c1.07.06,2.1.14,3.1.24m-4-.29,6.86,15.72c-.92.12-1.87.23-2.85.32l-7.06-16.14c1.05,0,2.06.05,3.05.1m-4-.12L56,132.29c-.94.08-1.92.14-2.91.2l-7.17-16.42c.67,0,1.33,0,2,0h1m-3.9,0,7.19,16.44c-1,0-2,.07-3,.08l-7.16-16.39c1-.06,1.94-.11,2.94-.13m-3.82.18,7.14,16.35H48c-.9,0-1.77,0-2.64,0l-7-16.07c.94-.1,1.9-.18,2.9-.25m-3.76.36,7,15.93c-1,0-2.07-.08-3.07-.15L34.61,117c.91-.14,1.85-.27,2.83-.38m-3.68.51,6.63,15.19c-1.08-.09-2.12-.19-3.13-.31L31,117.66c.88-.18,1.8-.36,2.77-.52m-3.6.71L36.3,131.9q-1.68-.21-3.21-.48l-5.63-12.87c.85-.25,1.74-.48,2.7-.7m-3.5.94,5.43,12.43c-1.17-.22-2.29-.47-3.33-.74l-4.7-10.77c.79-.32,1.65-.63,2.6-.92M23.29,120l4.44,10.17c-1.29-.37-2.47-.76-3.51-1.17l-3.36-7.71A16.89,16.89,0,0,1,23.29,120m-3.13,1.77,2.95,6.76c-2.43-1.1-4-2.28-4.48-3.39l-.12-.26a2,2,0,0,1-.11-.58c0-.79.62-1.66,1.76-2.53m59-1.33L42.21,36l-.9,0,36.55,83.68a17.77,17.77,0,0,0-4-2.36L38.35,36.08l-.89,0,35.26,80.72c-1.09-.43-2.27-.81-3.52-1.17L34.53,36.28l-.89.06,34.53,79c-1.07-.28-2.18-.54-3.34-.77l-34.09-78-.87.08,34,77.78c-1.05-.2-2.12-.37-3.22-.52L27,37l-.86.11,33.5,76.69c-1-.14-2.09-.25-3.15-.34L23.33,37.51l-.84.14,33.07,75.7c-1-.08-2.05-.15-3.09-.19L19.74,38.22l-.83.2,32.63,74.69q-1.51-.06-3-.06L16.25,39.19l-.79.27L47.6,113q-1.49,0-3,.06L12.94,40.57c-.25.13-.5.27-.73.41l31.53,72.16c-1,0-2,.1-2.93.18L10,42.79a5,5,0,0,0-.55.8l30.48,69.8c-1,.08-1.92.17-2.87.29L9.32,50.18c.09.81.18,1.72.28,2.72l26.59,60.87c-.95.13-1.89.26-2.81.42L10.53,61.88c.09.89.18,1.79.28,2.72l21.72,49.74c-.94.17-1.86.35-2.76.55l-18-41.3c.1.9.19,1.81.29,2.73L29,115.08c-.93.22-1.83.46-2.69.71L13,85.31c.09.91.18,1.82.28,2.73l12.23,28c-.92.29-1.78.61-2.59.94L14.16,97c.09.92.19,1.83.28,2.73L22.1,117.3a20.9,20.9,0,0,0-2.46,1.25l-4.27-9.79c.1.94.19,1.85.28,2.73L18.94,119a10.51,10.51,0,0,0-2.17,1.91l-.19-.45c0,.23,0,.41.06.62a5.2,5.2,0,0,0-1.24,3.23c0,7.34,16.77,11.3,32.56,11.3s32.55-4,32.55-11.3a5.38,5.38,0,0,0-1.43-3.48c0-.13,0-.24,0-.38m.75-7.24L46.09,35.91h-.91l34.51,79q.09-.81.18-1.68m13-100.75C92.87,16,83.41,22,48,22S3.05,16,3.05,12.48,12.5,3,48,3s44.91,6,44.91,9.48M3.73,18.17C10.26,22.58,25.38,25,48,25s37.69-2.37,44.22-6.78C81.06,130.27,81.06,130.49,81.06,130.59c0,2.12-3.49,4.55-9.09,6.33-6.39,2-14.92,3.14-24,3.14s-17.61-1.11-24-3.14c-5.6-1.78-9.08-4.21-9.08-6.33,0-.1,0-.32-11.13-112.42M95.91,11h-.26C93.63,3.88,76.87,0,48,0S2.29,3.88.26,11H0l.11,1a3.25,3.25,0,0,0-.06.45A5.54,5.54,0,0,0,.31,14.1C1.64,27.54,11.61,128,11.86,130.66c.1,8.06,18.65,12.4,36.09,12.4s36-4.34,36.1-12.4C84.31,128,94.27,27.54,95.6,14.1a5.55,5.55,0,0,0,.27-1.62c0-.16-.05-.3-.06-.45Z"/></g></g></svg>