<svg id="Ebene_1" data-name="Ebene 1" xmlns="http://www.w3.org/2000/svg" xmlns:xlink="http://www.w3.org/1999/xlink" viewBox="0 0 256 256"><defs><style>.cls-1,.cls-4,.cls-6,.cls-7{fill:none;}.cls-2{clip-path:url(#clip-path);}.cls-3{fill:#fff;}.cls-4,.cls-6,.cls-7{stroke:#d3033b;}.cls-4{stroke-width:4px;}.cls-5{clip-path:url(#clip-path-2);}.cls-6,.cls-7{stroke-linecap:round;stroke-linejoin:round;stroke-width:2.71px;}.cls-7{stroke-dasharray:0 8.12;}</style><clipPath id="clip-path"><rect class="cls-1" x="0.01" y="50.28" width="256" height="154.47"/></clipPath><clipPath id="clip-path-2"><path class="cls-1" d="M108.73,55.47c-67.7,2.1-98,25.75-98,65.75,0,54.06,35.66,62.4,79.64,62.4,64.51,0,54.88-24.63,77.43-40.52,12.07-6.7,25.13-6.43,36.7-6.15,19.07.45,34.12.91,34.12-29.83,0-44.4-70.46-51.86-116.42-51.86-4.78,0-9.31.08-13.46.21"/></clipPath></defs><g class="cls-2"><path class="cls-3" d="M90.07,202.75C41.43,202.75,2,193.14,2,130.82,2,84.71,35.52,57.45,110.39,55,159,53.45,254,58.06,254,114.57c0,56.94-43,21-78.32,41.47-24.93,18.32-14.29,46.71-85.62,46.71"/><path class="cls-4" d="M90.07,202.75C41.43,202.75,2,193.14,2,130.82,2,84.71,35.52,57.45,110.39,55,159,53.45,254,58.06,254,114.57c0,56.94-43,21-78.32,41.47C150.76,174.36,161.4,202.75,90.07,202.75Z"/><path class="cls-3" d="M88.33,191.45c-47.68,0-86.32-9-86.32-67.66,0-43.37,32.85-69,106.24-71.28C155.9,51,249,55.36,249,108.51c0,53.55-42.12,19.77-76.77,39-24.44,17.23-14,43.94-83.93,43.94"/><path class="cls-4" d="M88.33,191.45c-47.68,0-86.32-9-86.32-67.66,0-43.37,32.85-69,106.24-71.28C155.9,51,249,55.36,249,108.51c0,53.55-42.12,19.77-76.77,39C147.82,164.74,158.26,191.45,88.33,191.45Z"/><path class="cls-3" d="M90.36,183.62c-44,0-79.64-8.34-79.64-62.4,0-40,30.31-63.65,98-65.75,44-1.37,129.88,2.62,129.88,51.65,0,49.39-38.86,18.24-70.83,36-22.54,15.89-12.91,40.52-77.42,40.52"/></g><g class="cls-5"><path class="cls-6" d="M489.7,249.55h0m-234,597h0"/><line class="cls-7" x1="254.16" y1="834.53" x2="483.73" y2="248.83"/><path class="cls-6" d="M485.21,245.06h0m-234,597h0"/><line class="cls-7" x1="249.67" y1="830.04" x2="479.23" y2="244.34"/><path class="cls-6" d="M480.72,240.56h0m-234,597h0"/><line class="cls-7" x1="245.18" y1="825.55" x2="474.74" y2="239.85"/><path class="cls-6" d="M476.22,236.07h0m-234,597h0"/><line class="cls-7" x1="240.68" y1="821.05" x2="470.25" y2="235.35"/><path class="cls-6" d="M471.73,231.58h0m-234,597h0"/><line class="cls-7" x1="236.19" y1="816.56" x2="465.75" y2="230.86"/><path class="cls-6" d="M467.23,227.08h0m-234,597h0"/><line class="cls-7" x1="231.7" y1="812.07" x2="461.26" y2="226.37"/><path class="cls-6" d="M462.74,222.59h0m-234,597h0"/><line class="cls-7" x1="227.2" y1="807.57" x2="456.77" y2="221.87"/><path class="cls-6" d="M458.25,218.1h0m-234,597h0"/><line class="cls-7" x1="222.71" y1="803.08" x2="452.27" y2="217.38"/><path class="cls-6" d="M453.76,213.6h0m-234,597h0"/><line class="cls-7" x1="218.22" y1="798.59" x2="447.78" y2="212.89"/><path class="cls-6" d="M449.26,209.11h0m-234,597h0"/><line class="cls-7" x1="213.72" y1="794.09" x2="443.29" y2="208.39"/><path class="cls-6" d="M444.77,204.62h0m-234,597h0"/><line class="cls-7" x1="209.23" y1="789.6" x2="438.79" y2="203.9"/><path class="cls-6" d="M440.27,200.12h0m-234,597h0"/><line class="cls-7" x1="204.74" y1="785.11" x2="434.3" y2="199.41"/><path class="cls-6" d="M435.78,195.63h0m-234,597h0"/><line class="cls-7" x1="200.24" y1="780.61" x2="429.81" y2="194.91"/><path class="cls-6" d="M431.29,191.14h0m-234,597h0"/><line class="cls-7" x1="195.75" y1="776.12" x2="425.31" y2="190.42"/><path class="cls-6" d="M426.79,186.64h0m-234,597h0"/><line class="cls-7" x1="191.26" y1="771.63" x2="420.82" y2="185.93"/><path class="cls-6" d="M422.3,182.15h0m-234,597h0"/><line class="cls-7" x1="186.76" y1="767.13" x2="416.33" y2="181.43"/><path class="cls-6" d="M417.81,177.66h0m-234,597h0"/><line class="cls-7" x1="182.27" y1="762.64" x2="411.83" y2="176.94"/><path class="cls-6" d="M413.31,173.16h0m-234,597h0"/><line class="cls-7" x1="177.78" y1="758.15" x2="407.34" y2="172.45"/><path class="cls-6" d="M408.82,168.67h0m-234,597h0"/><line class="cls-7" x1="173.28" y1="753.65" x2="402.85" y2="167.95"/><path class="cls-6" d="M404.33,164.17h0m-234,597h0"/><line class="cls-7" x1="168.79" y1="749.16" x2="398.35" y2="163.46"/><path class="cls-6" d="M399.83,159.68h0m-234,597h0"/><line class="cls-7" x1="164.3" y1="744.67" x2="393.86" y2="158.97"/><path class="cls-6" d="M395.34,155.19h0m-234,597h0"/><line class="cls-7" x1="159.8" y1="740.17" x2="389.37" y2="154.47"/><path class="cls-6" d="M390.85,150.69h0m-234,597h0"/><line class="cls-7" x1="155.31" y1="735.68" x2="384.87" y2="149.98"/><path class="cls-6" d="M386.35,146.2h0m-234,597h0"/><line class="cls-7" x1="150.81" y1="731.18" x2="380.38" y2="145.49"/><path class="cls-6" d="M381.86,141.71h0m-234,597h0"/><line class="cls-7" x1="146.32" y1="726.69" x2="375.89" y2="140.99"/><path class="cls-6" d="M377.37,137.21h0m-234,597h0"/><line class="cls-7" x1="141.83" y1="722.2" x2="371.39" y2="136.5"/><path class="cls-6" d="M372.87,132.72h0m-234,597h0"/><line class="cls-7" x1="137.33" y1="717.7" x2="366.9" y2="132.01"/><path class="cls-6" d="M368.38,128.23h0m-234,597h0"/><line class="cls-7" x1="132.84" y1="713.21" x2="362.41" y2="127.51"/><path class="cls-6" d="M363.89,123.73h0m-234,597h0"/><line class="cls-7" x1="128.35" y1="708.72" x2="357.91" y2="123.02"/><path class="cls-6" d="M359.39,119.24h0m-234,597h0"/><line class="cls-7" x1="123.85" y1="704.22" x2="353.42" y2="118.53"/><path class="cls-6" d="M354.9,114.75h0m-234,597h0"/><line class="cls-7" x1="119.36" y1="699.73" x2="348.93" y2="114.03"/><path class="cls-6" d="M350.41,110.25h0m-234,597h0"/><line class="cls-7" x1="114.87" y1="695.24" x2="344.43" y2="109.54"/><path class="cls-6" d="M345.91,105.76h0m-234,597h0"/><line class="cls-7" x1="110.37" y1="690.74" x2="339.94" y2="105.05"/><path class="cls-6" d="M341.42,101.27h0m-234,597h0"/><line class="cls-7" x1="105.88" y1="686.25" x2="335.44" y2="100.55"/><path class="cls-6" d="M336.93,96.77h0m-234,597h0"/><line class="cls-7" x1="101.39" y1="681.76" x2="330.95" y2="96.06"/><path class="cls-6" d="M332.43,92.28h0m-234,597h0"/><line class="cls-7" x1="96.89" y1="677.26" x2="326.46" y2="91.56"/><path class="cls-6" d="M327.94,87.79h0m-234,597h0"/><line class="cls-7" x1="92.4" y1="672.77" x2="321.96" y2="87.07"/><path class="cls-6" d="M323.45,83.29h0m-234,597h0"/><line class="cls-7" x1="87.91" y1="668.28" x2="317.47" y2="82.58"/><path class="cls-6" d="M319,78.8h0m-234,597h0"/><line class="cls-7" x1="83.41" y1="663.78" x2="312.98" y2="78.09"/><path class="cls-6" d="M314.46,74.31h0m-234,597h0"/><line class="cls-7" x1="78.92" y1="659.29" x2="308.48" y2="73.59"/><path class="cls-6" d="M310,69.81h0m-234,597h0"/><line class="cls-7" x1="74.43" y1="654.8" x2="303.99" y2="69.1"/><path class="cls-6" d="M305.47,65.32h0m-234,597h0"/><line class="cls-7" x1="69.93" y1="650.3" x2="299.5" y2="64.61"/><path class="cls-6" d="M301,60.83h0m-234,597h0"/><line class="cls-7" x1="65.44" y1="645.81" x2="295" y2="60.11"/><path class="cls-6" d="M296.49,56.33h0m-234,597h0"/><line class="cls-7" x1="60.95" y1="641.32" x2="290.51" y2="55.62"/><path class="cls-6" d="M292,51.84h0m-234,597h0"/><line class="cls-7" x1="56.45" y1="636.82" x2="286.02" y2="51.12"/><path class="cls-6" d="M287.5,47.35h0m-234,597h0"/><line class="cls-7" x1="51.96" y1="632.33" x2="281.52" y2="46.63"/><path class="cls-6" d="M283,42.85h0m-234,597h0"/><line class="cls-7" x1="47.47" y1="627.84" x2="277.03" y2="42.14"/><path class="cls-6" d="M278.51,38.36h0m-234,597h0"/><line class="cls-7" x1="42.97" y1="623.34" x2="272.54" y2="37.64"/><path class="cls-6" d="M274,33.87h0M40,630.9h0"/><line class="cls-7" x1="38.48" y1="618.85" x2="268.04" y2="33.15"/><path class="cls-6" d="M269.52,29.37h0m-234,597h0"/><line class="cls-7" x1="33.99" y1="614.36" x2="263.55" y2="28.66"/><path class="cls-6" d="M265,24.88h0m-234,597h0"/><line class="cls-7" x1="29.49" y1="609.86" x2="259.06" y2="24.16"/><path class="cls-6" d="M260.54,20.39h0m-234,597h0"/><line class="cls-7" x1="25" y1="605.37" x2="254.56" y2="19.67"/><path class="cls-6" d="M256,15.89h0m-234,597h0"/><line class="cls-7" x1="20.51" y1="600.88" x2="250.07" y2="15.18"/><path class="cls-6" d="M251.55,11.4h0m-234,597h0"/><line class="cls-7" x1="16.01" y1="596.38" x2="245.58" y2="10.68"/><path class="cls-6" d="M247.06,6.91h0m-234,597h0"/><line class="cls-7" x1="11.52" y1="591.89" x2="241.08" y2="6.19"/><path class="cls-6" d="M242.56,2.41h0m-234,597h0"/><line class="cls-7" x1="7.03" y1="587.4" x2="236.59" y2="1.7"/><path class="cls-6" d="M238.07-2.08h0M4.06,595h0"/><line class="cls-7" x1="2.53" y1="582.9" x2="232.1" y2="-2.8"/><path class="cls-6" d="M233.58-6.57h0m-234,597h0"/><line class="cls-7" x1="-1.96" y1="578.41" x2="227.6" y2="-7.29"/><path class="cls-6" d="M229.08-11.07h0m-234,597h0"/><line class="cls-7" x1="-6.46" y1="573.91" x2="223.11" y2="-11.78"/><path class="cls-6" d="M224.59-15.56h0m-234,597h0"/><line class="cls-7" x1="-10.95" y1="569.42" x2="218.62" y2="-16.28"/><path class="cls-6" d="M220.1-20.06h0m-234,597h0"/><line class="cls-7" x1="-15.44" y1="564.93" x2="214.12" y2="-20.77"/><path class="cls-6" d="M215.6-24.55h0m-234,597h0"/><line class="cls-7" x1="-19.93" y1="560.44" x2="209.63" y2="-25.26"/><path class="cls-6" d="M211.11-29h0m-234,597h0"/><line class="cls-7" x1="-24.43" y1="555.94" x2="205.14" y2="-29.76"/><path class="cls-6" d="M206.62-33.54h0m-234,597h0"/><line class="cls-7" x1="-28.92" y1="551.45" x2="200.64" y2="-34.25"/><path class="cls-6" d="M202.12-38h0m-234,597h0"/><line class="cls-7" x1="-33.42" y1="546.95" x2="196.15" y2="-38.74"/><path class="cls-6" d="M197.63-42.52h0m-234,597h0"/><line class="cls-7" x1="-37.91" y1="542.46" x2="191.66" y2="-43.24"/><path class="cls-6" d="M193.14-47h0m-234,597h0"/><line class="cls-7" x1="-42.4" y1="537.97" x2="187.16" y2="-47.73"/><path class="cls-6" d="M188.64-51.51h0m-234,597h0"/><line class="cls-7" x1="-46.9" y1="533.47" x2="182.67" y2="-52.22"/><path class="cls-6" d="M184.15-56h0m-234,597h0"/><line class="cls-7" x1="-51.39" y1="528.98" x2="178.17" y2="-56.72"/><path class="cls-6" d="M179.66-60.5h0m-234,597h0"/><line class="cls-7" x1="-55.88" y1="524.49" x2="173.68" y2="-61.21"/><path class="cls-6" d="M175.16-65h0m-234,597h0"/><line class="cls-7" x1="-60.38" y1="519.99" x2="169.19" y2="-65.7"/><path class="cls-6" d="M170.67-69.48h0m-234,597h0"/><line class="cls-7" x1="-64.87" y1="515.5" x2="164.7" y2="-70.2"/><path class="cls-6" d="M166.18-74h0m-234,597h0"/><line class="cls-7" x1="-69.36" y1="511.01" x2="160.2" y2="-74.69"/><path class="cls-6" d="M161.68-78.47h0m-234,597h0"/><line class="cls-7" x1="-73.86" y1="506.51" x2="155.71" y2="-79.18"/><path class="cls-6" d="M157.19-83h0m-234,597h0"/><line class="cls-7" x1="-78.35" y1="502.02" x2="151.22" y2="-83.68"/><path class="cls-6" d="M152.7-87.46h0m-234,597h0"/><line class="cls-7" x1="-82.84" y1="497.53" x2="146.72" y2="-88.17"/><path class="cls-6" d="M148.2-91.95h0m-234,597h0"/><line class="cls-7" x1="-87.34" y1="493.03" x2="142.23" y2="-92.66"/><path class="cls-6" d="M143.71-96.44h0m-234,597h0"/><line class="cls-7" x1="-91.83" y1="488.54" x2="137.73" y2="-97.16"/><path class="cls-6" d="M139.22-100.94h0m-234,597h0"/><line class="cls-7" x1="-96.32" y1="484.05" x2="133.24" y2="-101.65"/><path class="cls-6" d="M134.72-105.43h0m-234,597h0"/><line class="cls-7" x1="-100.82" y1="479.55" x2="128.75" y2="-106.15"/><path class="cls-6" d="M130.23-109.92h0m-234,597h0"/><line class="cls-7" x1="-105.31" y1="475.06" x2="124.25" y2="-110.64"/><path class="cls-6" d="M125.74-114.42h0m-234,597h0"/><line class="cls-7" x1="-109.8" y1="470.57" x2="119.76" y2="-115.13"/><path class="cls-6" d="M121.24-118.91h0m-234,597h0"/><line class="cls-7" x1="-114.3" y1="466.07" x2="115.27" y2="-119.63"/><path class="cls-6" d="M116.75-123.4h0m-234,597h0"/><line class="cls-7" x1="-118.79" y1="461.58" x2="110.77" y2="-124.12"/><path class="cls-6" d="M112.26-127.9h0m-234,597h0"/><line class="cls-7" x1="-123.28" y1="457.09" x2="106.28" y2="-128.61"/><path class="cls-6" d="M107.76-132.39h0m-234,597h0"/><line class="cls-7" x1="-127.78" y1="452.59" x2="101.79" y2="-133.11"/><path class="cls-6" d="M103.27-136.88h0m-234,597h0"/><line class="cls-7" x1="-132.27" y1="448.1" x2="97.29" y2="-137.6"/><path class="cls-6" d="M98.78-141.38h0m-234,597h0"/><line class="cls-7" x1="-136.76" y1="443.61" x2="92.8" y2="-142.09"/><path class="cls-6" d="M94.28-145.87h0m-234,597h0"/><line class="cls-7" x1="-141.26" y1="439.11" x2="88.31" y2="-146.59"/><path class="cls-6" d="M89.79-150.36h0m-234,597h0"/><line class="cls-7" x1="-145.75" y1="434.62" x2="83.81" y2="-151.08"/><path class="cls-6" d="M85.29-154.86h0m-234,597h0"/><line class="cls-7" x1="-150.24" y1="430.13" x2="79.32" y2="-155.57"/><path class="cls-6" d="M80.8-159.35h0m-234,597h0"/><line class="cls-7" x1="-154.74" y1="425.63" x2="74.83" y2="-160.07"/><path class="cls-6" d="M76.31-163.84h0m-234,597h0"/><line class="cls-7" x1="-159.23" y1="421.14" x2="70.33" y2="-164.56"/><path class="cls-6" d="M71.81-168.34h0m-234,597h0"/><line class="cls-7" x1="-163.72" y1="416.65" x2="65.84" y2="-169.05"/><path class="cls-6" d="M67.32-172.83h0m-234,597h0"/><line class="cls-7" x1="-168.22" y1="412.15" x2="61.35" y2="-173.55"/><path class="cls-6" d="M62.83-177.33h0m-234,597h0"/><line class="cls-7" x1="-172.71" y1="407.66" x2="56.85" y2="-178.04"/><path class="cls-6" d="M58.33-181.82h0m-234,597h0"/><line class="cls-7" x1="-177.2" y1="403.17" x2="52.36" y2="-182.53"/><path class="cls-6" d="M53.84-186.31h0m-234,597h0"/><line class="cls-7" x1="-181.7" y1="398.67" x2="47.87" y2="-187.03"/><path class="cls-6" d="M49.35-190.81h0m-234,597h0"/><line class="cls-7" x1="-186.19" y1="394.18" x2="43.37" y2="-191.52"/><path class="cls-6" d="M44.85-195.3h0m-234,597h0"/><line class="cls-7" x1="-190.69" y1="389.68" x2="38.88" y2="-196.01"/><path class="cls-6" d="M40.36-199.79h0m-234,597h0"/><line class="cls-7" x1="-195.18" y1="385.19" x2="34.39" y2="-200.51"/><path class="cls-6" d="M35.87-204.29h0m-234,597h0"/><line class="cls-7" x1="-199.67" y1="380.7" x2="29.89" y2="-205"/><path class="cls-6" d="M31.37-208.78h0m-234,597h0"/><line class="cls-7" x1="-204.17" y1="376.2" x2="25.4" y2="-209.49"/><path class="cls-6" d="M26.88-213.27h0m-234,597h0"/><line class="cls-7" x1="-208.66" y1="371.71" x2="20.91" y2="-213.99"/><path class="cls-6" d="M22.39-217.77h0m-234,597h0"/><line class="cls-7" x1="-213.15" y1="367.22" x2="16.41" y2="-218.48"/><path class="cls-6" d="M17.89-222.26h0m-234,597h0"/><line class="cls-7" x1="-217.64" y1="362.73" x2="11.92" y2="-222.97"/><path class="cls-6" d="M13.4-226.75h0m-234,597h0"/><line class="cls-7" x1="-222.14" y1="358.23" x2="7.43" y2="-227.47"/><path class="cls-6" d="M8.91-231.25h0m-234,597h0"/><line class="cls-7" x1="-226.63" y1="353.74" x2="2.93" y2="-231.96"/><path class="cls-6" d="M4.41-235.74h0m-234,597h0"/><path class="cls-6" d="M-.08-240.23h0m-234,597h0"/></g><g class="cls-2"><path class="cls-4" d="M90.36,183.62c-44,0-79.64-8.34-79.64-62.4,0-40,30.31-63.65,98-65.75,44-1.37,129.88,2.62,129.88,51.65,0,49.39-38.86,18.24-70.83,36C145.24,159,154.87,183.62,90.36,183.62Z"/><path class="cls-3" d="M218.21,105.37c0,9.65-8.28,17.48-18.5,17.48s-18.49-7.83-18.49-17.48,8.28-17.48,18.49-17.48,18.5,7.83,18.5,17.48"/><ellipse class="cls-4" cx="199.71" cy="105.37" rx="18.49" ry="17.48"/></g></svg>