<svg xmlns="http://www.w3.org/2000/svg" xmlns:xlink="http://www.w3.org/1999/xlink" viewBox="0 0 214.14 189.01"><defs><style>.cls-1{fill:none;}.cls-2{fill:#fff;}.cls-3{clip-path:url(#clip-path);}.cls-4{fill:#d3033b;}</style><clipPath id="clip-path" transform="translate(25.25 0.13)"><path class="cls-1" d="M131.07,1.81A40,40,0,0,0,186.64,57.3l.71-.71C182,62,174,54,179.41,48.65s-2.54-13.31-7.93-7.93-13.31-2.55-7.93-7.93-2.55-13.32-7.93-7.93-13.32-2.55-7.93-7.93S145.14,3.61,139.75,9s-13.31-2.55-7.93-7.93l-.75.75"/></clipPath></defs><g id="Layer_2" data-name="Layer 2"><g id="Ebene_3" data-name="Ebene 3"><path class="cls-2" d="M122.23,122.7c23.13-23.13,29.24-54.54,13.63-70.15S88.84,43,65.71,66.18s-29.25,54.55-13.64,70.15,47,9.51,70.16-13.63" transform="translate(25.25 0.13)"/><path class="cls-2" d="M186.64,57.3l.71-.71C182,62,174,54,179.41,48.65s-2.54-13.31-7.93-7.93-13.31-2.55-7.93-7.93-2.55-13.32-7.93-7.93-13.32-2.55-7.93-7.94S145.14,3.61,139.75,9s-13.31-2.55-7.93-7.93l-.75.75A40,40,0,0,0,186.64,57.3" transform="translate(25.25 0.13)"/><g class="cls-3"><path class="cls-2" d="M93,118.07c34.7-34.71,43.86-81.82,20.45-105.23S42.87-1.42,8.16,33.29-35.7,115.1-12.28,138.52,58.24,152.77,93,118.07" transform="translate(25.25 0.13)"/></g><path class="cls-2" d="M56.82,187.11l-.71.71c5.38-5.38-2.55-13.31-7.93-7.93s-13.32-2.55-7.93-7.93S37.7,158.64,32.31,164s-13.31-2.54-7.93-7.93-2.55-13.31-7.93-7.93-13.32-2.55-7.93-7.93S6,126.91.59,132.3l.74-.75a40,40,0,0,1,55.49,55.56" transform="translate(25.25 0.13)"/><path class="cls-4" d="M180.8,59.17a38.47,38.47,0,0,1-51.1-51.1,7.86,7.86,0,0,0,1.46,2.06,7.25,7.25,0,0,0,4.73,2.15,7,7,0,0,0,5.4-2.23,3.9,3.9,0,0,1,3.92-1.22A4.54,4.54,0,0,1,148.33,12a3.9,3.9,0,0,1-1.23,3.91,7,7,0,0,0-2,6.82,7.52,7.52,0,0,0,5.24,5.24,6.93,6.93,0,0,0,6.81-2,3.89,3.89,0,0,1,3.92-1.23,4.54,4.54,0,0,1,3.12,3.12A3.89,3.89,0,0,1,163,31.73,7.11,7.11,0,1,0,173,41.78a4.11,4.11,0,1,1,5.81,5.81,6.93,6.93,0,0,0-.07,10.13,7.36,7.36,0,0,0,2,1.45m-45.53-5.56c7.19,7.18,9.78,18.16,7.3,30.91-2.51,13-9.95,26.14-20.93,37.12s-24.16,18.42-37.12,20.94c-12.75,2.47-23.73-.12-30.91-7.31s-9.78-18.16-7.3-30.9c2.51-13,9.95-26.15,20.93-37.13s24.17-18.41,37.13-20.93a47.91,47.91,0,0,1,9.09-.92c8.85,0,16.4,2.81,21.81,8.22M51.48,137.39a38.48,38.48,0,0,1,7.69,43.41,7.36,7.36,0,0,0-1.45-2,7.24,7.24,0,0,0-5.07-2.17,7.12,7.12,0,0,0-5.06,2.24,3.94,3.94,0,0,1-5.88.07,4.3,4.3,0,0,1-1.28-2.75A4.14,4.14,0,0,1,41.78,173a7.11,7.11,0,1,0-10-10.06,4.11,4.11,0,1,1-5.81-5.81,7,7,0,0,0,2.22-5.4A7.18,7.18,0,0,0,26,147a6.93,6.93,0,0,0-10.13.07,3.93,3.93,0,0,1-5.88.07,4,4,0,0,1,.07-5.88,7,7,0,0,0,2.23-5.4,7.17,7.17,0,0,0-2.16-4.72,7.4,7.4,0,0,0-2-1.47,38.49,38.49,0,0,1,43.4,7.69m137.4-79.74-2.12-2.13h0A4.11,4.11,0,1,1,181,49.71a7.11,7.11,0,1,0-10-10.05,4.11,4.11,0,1,1-5.82-5.81,7,7,0,0,0,2-6.82,7.54,7.54,0,0,0-5.24-5.24,7,7,0,0,0-6.82,2A3.9,3.9,0,0,1,151.11,25,4.54,4.54,0,0,1,148,21.9,3.91,3.91,0,0,1,149.22,18a7,7,0,0,0,2-6.82A7.52,7.52,0,0,0,146,5.93a6.93,6.93,0,0,0-6.81,2,3.93,3.93,0,0,1-5.88.07A4.23,4.23,0,0,1,132,5.25a4.1,4.1,0,0,1,1.35-3.13L131.24,0l-.75.74-.18.22a41.47,41.47,0,0,0-1.21,44.72c-7.06-3.34-15.74-4.18-25.31-2.32C90.25,46,76.52,53.72,65.12,65.12S46,90.25,43.36,103.8c-1.86,9.56-1,18.24,2.32,25.3A41.47,41.47,0,0,0,1,130.31l-1,.93,2.12,2.12A3.93,3.93,0,0,1,8,133.29,4.23,4.23,0,0,1,9.28,136a4.1,4.1,0,0,1-1.35,3.13,7,7,0,0,0-2.22,5.4,7.18,7.18,0,0,0,2.15,4.72,7.19,7.19,0,0,0,4.72,2.16A7,7,0,0,0,18,149.22a4,4,0,0,1,5.88-.07A4,4,0,0,1,23.8,155a7,7,0,0,0-2.23,5.4,7.25,7.25,0,0,0,2.15,4.73,6.94,6.94,0,0,0,10.13-.07,3.94,3.94,0,0,1,5.88-.08A4.27,4.27,0,0,1,41,167.77a4.1,4.1,0,0,1-1.35,3.13,7,7,0,0,0-2.23,5.4A7.24,7.24,0,0,0,39.59,181,6.92,6.92,0,0,0,49.71,181a4.11,4.11,0,1,1,5.82,5.81l2.12,2.12.71-.71.17-.21a41.43,41.43,0,0,0,1.23-44.79,36.29,36.29,0,0,0,15.65,3.32,50.9,50.9,0,0,0,9.68-1c13.54-2.63,27.27-10.36,38.67-21.76s19.13-25.13,21.76-38.67c1.86-9.58,1-18.27-2.33-25.34A41.33,41.33,0,0,0,188,58.54l.92-.89h0" transform="translate(25.25 0.13)"/><path class="cls-4" d="M129.06,41.59l50.26,19.7,1-.38L128.61,40.66q.21.47.45.93m15.29,24.77L126.09,59.2c0,.24-.07.48-.12.71l18.55,7.27c-.06-.27-.11-.55-.17-.82M126.56,56.13c0,.24,0,.48-.09.73l17.07,6.68-.29-.87ZM145,69.86l-19.46-7.63c0,.24-.1.47-.16.7l19.73,7.73c0-.27-.08-.53-.11-.8M125.51,30.44l53.08,20.8a5.67,5.67,0,0,1,.2-.67l-53.4-20.94.12.81m-.4-3.41,55,21.54a1.62,1.62,0,0,1,.18-.19c.12-.12.22-.25.33-.37L125.06,26.25c0,.26,0,.52,0,.78M126.25,34,179,54.64a5.44,5.44,0,0,1-.32-.88L126.05,33.15c.06.28.13.55.2.83m15.23,24.75L126.91,53c0,.25,0,.49-.06.74L142,59.67c-.15-.32-.3-.64-.47-.94m-14.36-8.89c0,.25,0,.5,0,.75l12.29,4.82c-.27-.38-.57-.74-.87-1.1Zm.07-3.23v.76l7.14,2.8A26.29,26.29,0,0,0,132,48.48Zm4.24-.83,43.3,17,1.14-.31L130.8,44.77c.2.34.42.68.63,1M135,50.42l34,13.33c.49,0,1-.1,1.48-.17L134,49.28c.31.38.64.76,1,1.14m6.14,5.66,19.51,7.65c.81.08,1.62.15,2.43.19l-23.83-9.34q.93.78,1.89,1.5M42.85,167.3l20.23,7.93c.06-.23.13-.46.19-.69l-20.54-8a5.66,5.66,0,0,1,.12.81m-.7,3,20,7.83c.08-.22.17-.44.24-.66l-19.91-7.8a6.23,6.23,0,0,1-.32.63M60,183l-1.33-.52a4.28,4.28,0,0,1,.11.8l.89.35L60,183m-1.66,2.6a6.35,6.35,0,0,1-.33.63l.06,0,.4-.6Zm-18.1-12.84,12.91,5a5.66,5.66,0,0,1,3.57,1.4l4.32,1.7c.1-.22.19-.43.28-.65l-20.65-8.09a5.9,5.9,0,0,0-.43.59m6.56,8.32-6.69-2.62a5.73,5.73,0,0,0,.82,1.07l4.66,1.83a4.82,4.82,0,0,0,1.21-.28m-7.41-6.16a6.13,6.13,0,0,0-.05.74l9.82,3.85a7,7,0,0,1,.61-.52Zm-8.29-9.76-6.93-2.72a5.68,5.68,0,0,0,.72,1l5.07,2a5.37,5.37,0,0,0,1.14-.31M34,163.06,23.5,159a3.68,3.68,0,0,0-.07.73l9.91,3.89a7,7,0,0,1,.62-.51m30,8.49L24.84,156.23a6,6,0,0,0-.45.58L37.58,162a5.61,5.61,0,0,1,2.92,1.14l23.3,9.13c.05-.23.09-.47.13-.7m.45-3.08L26.65,153.68c-.09.21-.19.43-.3.64L64.3,169.2c0-.25,0-.49.08-.73m.2-3.18L28.09,151l-1.14.09,0,.23L64.56,166c0-.25,0-.5,0-.75m0-3.27L34.46,150.23c-.46.08-.91.16-1.37.22l31.48,12.34c0-.26,0-.51,0-.77m-.34-3.39L40,149.14c-.41.1-.83.18-1.24.27l25.55,10c0-.27-.07-.53-.11-.8m-.66-3.52L45,147.83l-1.11.33L63.72,156c-.06-.28-.13-.56-.19-.84m-1.05-3.66-13-5.09-1,.36,14.3,5.6c-.09-.29-.19-.58-.29-.87M61,147.59l-7.22-2.83-1,.38,8.58,3.37c-.13-.31-.26-.61-.4-.92m-4.15-4.12,2.54,1c-.19-.34-.39-.67-.59-1l-1-.41-.91.4m11.59.53-6.92-2.71-.62.3A31.94,31.94,0,0,0,68.39,144m9.91.63L65,139.43l-.82.44,12.3,4.82c.6,0,1.19,0,1.79-.06m6.34-.77-16.21-6.35-.78.45,15.64,6.13,1.35-.23m5.21-1.21-18.18-7.13-.74.47,17.76,7c.39-.1.78-.19,1.16-.3m4.54-1.48-19.61-7.68-.7.48,19.29,7.56,1-.36m4.08-1.65L77.78,131.4l-.68.5,20.46,8,.91-.4m3.76-1.78-21.57-8.46-.66.5,21.38,8.38.85-.42m3.46-1.9-22.27-8.73-.64.5,22.13,8.68.78-.45m3.25-2-22.87-9-.61.52,22.74,8.91.74-.46m3-2.07-23.35-9.15-.59.53,23.24,9.11.7-.49m2.86-2.13-23.73-9.3-.56.54,23.64,9.27.65-.51m2.71-2.19-24-9.43-.56.54,24,9.4.62-.51m2.56-2.25-24.31-9.53-.53.55,24.25,9.5.59-.52m2.43-2.31L98,113.31l-.51.56L122,123.45c.19-.18.38-.35.56-.54m2.31-2.35L100.2,110.9l-.5.56,24.63,9.65.53-.55m2.18-2.39-24.78-9.72-.48.57,24.76,9.7.5-.55m2.07-2.45L104.24,106l-.45.58,24.84,9.74c.16-.19.33-.38.48-.57m1.95-2.49-24.9-9.76c-.14.2-.28.4-.43.59l24.88,9.75.45-.58m1.83-2.54L108,100.94l-.43.59,24.9,9.76.41-.6m1.72-2.58-24.85-9.74-.4.6,24.87,9.75.38-.61m1.61-2.62-24.77-9.71-.38.61,24.79,9.72c.13-.21.24-.42.36-.62m1.5-2.67-24.65-9.66-.36.62,24.67,9.67c.12-.21.23-.42.34-.63m1.38-2.71-24.49-9.6c-.11.21-.24.41-.36.62l24.54,9.61c.11-.21.21-.42.31-.63m1.27-2.76-24.3-9.53c-.11.21-.22.42-.34.63L140.08,98c.1-.21.19-.43.29-.64m1.14-2.81-24.06-9.43c-.1.21-.2.43-.31.64l24.11,9.45c.09-.22.18-.44.26-.66m1-2.85-23.76-9.32-.3.64,23.83,9.34c.07-.22.16-.44.23-.66m.87-2.92L120,79.6l-.28.64,23.5,9.22c.07-.23.13-.46.19-.69m.73-3-23-9c-.09.22-.17.44-.26.65L144,86.5l.15-.7m.57-3L122.19,74l-.23.66,22.62,8.87c0-.23.09-.47.12-.71m.41-3.09-21.94-8.6-.21.67L145,80.4c0-.24.06-.48.08-.72m.19-3.18-21.24-8.33c-.06.23-.14.45-.21.68l21.43,8.4c0-.25,0-.5,0-.75m0-3.26-20.45-8c-.06.23-.13.46-.18.69L145.31,74c0-.25,0-.51,0-.76m17.45-35.48L125,23c0,.26,0,.51,0,.76l38,14.91a4.81,4.81,0,0,1-.3-.88M163,34.6,125.22,19.8c0,.24-.06.49-.08.73l37.61,14.74a5.25,5.25,0,0,1,.22-.67m1.82-2.54L125.66,16.72c0,.24-.09.47-.13.71l38.76,15.19.09-.11a5.57,5.57,0,0,0,.41-.45M146.85,21.77l-20.52-8c-.06.23-.11.46-.17.69l21,8.21a5.31,5.31,0,0,1-.26-.86m.3-3.14-19.93-7.81c-.08.22-.14.45-.22.67l19.91,7.81a4.12,4.12,0,0,1,.24-.67M149,16.11,128.33,8l-.27.65,20.44,8,0,0c.18-.18.34-.36.49-.54M131,5.78l-1.3-.51c-.11.21-.23.41-.33.62l1.86.74a5.09,5.09,0,0,1-.23-.85m.12-2.45a5.92,5.92,0,0,1,.25-.66l-.13,0c-.13.2-.26.4-.38.6ZM142,7.62l7.93,3.1a6.87,6.87,0,0,0-.47-.94l-6.56-2.57a6,6,0,0,0-.9.41M150.11,14a4.37,4.37,0,0,0,.15-.7L139.93,9.29a7.39,7.39,0,0,1-.71.48Zm7.66,9.51,8.09,3.18a5.53,5.53,0,0,0-.42-.93l-6.81-2.67a5.25,5.25,0,0,0-.86.42M165.94,30a5.78,5.78,0,0,0,.17-.69l-10.42-4.09a6.54,6.54,0,0,1-.73.48Zm7.57,9.48,8.26,3.23a5.54,5.54,0,0,0-.39-.91l-7-2.75a5.47,5.47,0,0,0-.83.43M181.77,46a4.39,4.39,0,0,0,.18-.69l-10.5-4.11a7.57,7.57,0,0,1-.75.46Zm1.43,13.58.82-.44L127.09,36.81c.1.29.19.58.3.87Zm4.08-2.41-.07,0a6.25,6.25,0,0,1-.78.45l.12,0,.73-.47" transform="translate(25.25 0.13)"/></g></g></svg>