<svg id="Ebene_1" data-name="Ebene 1" xmlns="http://www.w3.org/2000/svg" xmlns:xlink="http://www.w3.org/1999/xlink" viewBox="0 0 256 256"><defs><style>.cls-1,.cls-5,.cls-6{fill:none;}.cls-2{clip-path:url(#clip-path);}.cls-3{fill:#fff;}.cls-4{clip-path:url(#clip-path-2);}.cls-5,.cls-6{stroke:#d3033b;}.cls-5{stroke-miterlimit:10;stroke-width:1.36px;}.cls-6{stroke-width:4px;}.cls-7{clip-path:url(#clip-path-4);}.cls-8{clip-path:url(#clip-path-6);}</style><clipPath id="clip-path"><rect class="cls-1" x="0.09" y="75.1" width="256" height="106.22"/></clipPath><clipPath id="clip-path-2"><path class="cls-1" d="M52.31,128.22c0,28.22,33.93,51.11,75.78,51.11s75.77-22.89,75.77-51.11S169.93,77.1,128.09,77.1,52.31,100,52.31,128.22"/></clipPath><clipPath id="clip-path-4"><path class="cls-1" d="M245.43,78a51.11,51.11,0,0,0,.07,100.42h1.29c-9.74,0-9.74-14.35,0-14.35s9.73-14.35,0-14.35-9.74-14.34,0-14.34,9.73-14.35,0-14.35-9.74-14.34,0-14.34,9.73-14.35,0-14.35S237.05,78,246.79,78Z"/></clipPath><clipPath id="clip-path-6"><path class="cls-1" d="M9.38,78c9.74,0,9.74,14.34,0,14.34s-9.73,14.35,0,14.35S19.12,121,9.38,121s-9.73,14.35,0,14.35,9.74,14.34,0,14.34-9.73,14.35,0,14.35,9.74,14.35,0,14.35h1.29a51.12,51.12,0,0,0,41.61-50.22A51.1,51.1,0,0,0,10.74,78Z"/></clipPath></defs><g class="cls-2"><path class="cls-3" d="M128.09,179.33c41.84,0,75.77-22.89,75.77-51.11S169.93,77.1,128.09,77.1,52.31,100,52.31,128.22s33.93,51.11,75.78,51.11"/></g><g class="cls-4"><path class="cls-5" d="M-268.7,424.72-527.23-167.09M-262.3,424.72-520.83-167.09M-255.9,424.72-514.43-167.09M-249.5,424.72-508-167.09M-243.1,424.72-501.63-167.09M-236.7,424.72-495.23-167.09M-230.3,424.72-488.83-167.09M-223.9,424.72-482.43-167.09M-217.5,424.72-476-167.09M-211.1,424.72-469.63-167.09M-204.7,424.72-463.23-167.09M-198.3,424.72-456.83-167.09M-191.9,424.72-450.43-167.09M-185.5,424.72-444-167.09M-179.1,424.72-437.63-167.09M-172.7,424.72-431.23-167.09M-166.3,424.72-424.83-167.09M-159.9,424.72-418.43-167.09M-153.5,424.72-412-167.09M-147.1,424.72-405.63-167.09M-140.7,424.72-399.23-167.09M-134.3,424.72-392.83-167.09M-127.9,424.72-386.43-167.09m264.92,591.81L-380-167.09m264.92,591.81L-373.63-167.09m264.92,591.81L-367.23-167.09m264.92,591.81L-360.83-167.09M-95.91,424.72-354.43-167.09M-89.51,424.72-348-167.09M-83.11,424.72-341.63-167.09M-76.71,424.72-335.23-167.09M-70.31,424.72-328.83-167.09M-63.91,424.72-322.43-167.09M-57.51,424.72-316-167.09M-51.11,424.72-309.63-167.09M-44.71,424.72-303.23-167.09M-38.31,424.72-296.83-167.09M-31.91,424.72-290.43-167.09M-25.51,424.72-284-167.09M-19.11,424.72-277.63-167.09M-12.71,424.72-271.23-167.09M-6.31,424.72-264.83-167.09M.09,424.72-258.43-167.09M6.49,424.72-252-167.09M12.89,424.72-245.63-167.09M19.29,424.72-239.23-167.09M25.69,424.72-232.83-167.09M32.09,424.72-226.43-167.09M38.49,424.72-220-167.09M44.89,424.72-213.63-167.09M51.29,424.72-207.23-167.09M57.69,424.72-200.83-167.09M64.09,424.72-194.43-167.09M70.49,424.72-188-167.09M76.89,424.72-181.63-167.09M83.29,424.72-175.23-167.09M89.69,424.72-168.83-167.09M96.09,424.72-162.43-167.09M102.49,424.72-156-167.09M108.89,424.72-149.63-167.09M115.29,424.72-143.24-167.09M121.69,424.72-136.84-167.09M128.09,424.72-130.44-167.09M134.49,424.72-124-167.09M140.89,424.72-117.64-167.09M147.29,424.72-111.24-167.09M153.69,424.72-104.84-167.09M160.09,424.72-98.44-167.09M166.49,424.72-92-167.09M172.89,424.72-85.64-167.09M179.29,424.72-79.24-167.09M185.69,424.72-72.84-167.09M192.09,424.72-66.44-167.09M198.49,424.72-60-167.09M204.89,424.72-53.64-167.09M211.29,424.72-47.24-167.09M217.69,424.72-40.84-167.09M224.09,424.72-34.44-167.09M230.49,424.72-28-167.09M236.89,424.72-21.64-167.09M243.29,424.72-15.24-167.09M249.69,424.72-8.84-167.09M256.09,424.72-2.44-167.09M262.49,424.72,4-167.09M268.89,424.72,10.36-167.09M275.28,424.72,16.76-167.09M281.68,424.72,23.16-167.09M288.08,424.72,29.56-167.09M294.48,424.72,36-167.09M300.88,424.72,42.36-167.09M307.28,424.72,48.76-167.09M313.68,424.72,55.16-167.09M320.08,424.72,61.56-167.09M326.48,424.72,68-167.09M332.88,424.72,74.36-167.09M339.28,424.72,80.76-167.09M345.68,424.72,87.16-167.09M352.08,424.72,93.56-167.09M358.48,424.72,100-167.09M364.88,424.72,106.36-167.09M371.28,424.72,112.76-167.09M377.68,424.72,119.16-167.09M384.08,424.72,125.56-167.09M390.48,424.72,132-167.09M396.88,424.72,138.36-167.09M403.28,424.72,144.76-167.09M409.68,424.72,151.16-167.09M416.08,424.72,157.56-167.09M422.48,424.72,164-167.09M428.88,424.72,170.36-167.09M435.28,424.72,176.76-167.09M441.68,424.72,183.16-167.09M448.08,424.72,189.56-167.09M454.48,424.72,196-167.09M460.88,424.72,202.36-167.09M467.28,424.72,208.76-167.09M473.68,424.72,215.16-167.09M480.08,424.72,221.56-167.09M486.48,424.72,228-167.09M492.88,424.72,234.36-167.09M499.28,424.72,240.76-167.09M505.68,424.72,247.15-167.09M512.08,424.72,253.55-167.09M518.48,424.72,260-167.09M524.88,424.72,266.35-167.09M531.28,424.72,272.75-167.09M537.68,424.72,279.15-167.09M544.08,424.72,285.55-167.09M550.48,424.72,292-167.09M556.88,424.72,298.35-167.09M563.28,424.72,304.75-167.09M569.68,424.72,311.15-167.09M576.08,424.72,317.55-167.09M582.48,424.72,324-167.09M588.88,424.72,330.35-167.09M595.28,424.72,336.75-167.09M601.68,424.72,343.15-167.09M608.08,424.72,349.55-167.09M614.48,424.72,356-167.09M620.88,424.72,362.35-167.09M627.28,424.72,368.75-167.09M633.68,424.72,375.15-167.09M640.08,424.72,381.55-167.09M646.48,424.72,388-167.09M652.88,424.72,394.35-167.09M659.28,424.72,400.75-167.09M665.68,424.72,407.15-167.09M672.08,424.72,413.55-167.09M678.48,424.72,420-167.09M684.87,424.72,426.35-167.09M691.27,424.72,432.75-167.09M697.67,424.72,439.15-167.09M704.07,424.72,445.55-167.09M710.47,424.72,452-167.09M716.87,424.72,458.35-167.09M723.27,424.72,464.75-167.09M729.67,424.72,471.15-167.09M736.07,424.72,477.55-167.09M742.47,424.72,484-167.09M748.87,424.72,490.35-167.09M755.27,424.72,496.75-167.09M761.67,424.72,503.15-167.09M768.07,424.72,509.55-167.09M774.47,424.72,516-167.09M780.87,424.72,522.35-167.09M787.27,424.72,528.75-167.09M793.67,424.72,535.15-167.09M800.07,424.72,541.55-167.09M806.47,424.72,548-167.09M812.87,424.72,554.35-167.09M819.27,424.72,560.75-167.09M825.67,424.72,567.15-167.09M832.07,424.72,573.55-167.09M838.47,424.72,580-167.09M844.87,424.72,586.35-167.09M851.27,424.72,592.75-167.09M857.67,424.72,599.15-167.09M864.07,424.72,605.55-167.09M870.47,424.72,612-167.09M876.87,424.72,618.35-167.09M883.27,424.72,624.75-167.09M889.67,424.72,631.15-167.09M896.07,424.72,637.54-167.09M902.47,424.72,643.94-167.09M908.87,424.72,650.34-167.09M915.27,424.72,656.74-167.09M921.67,424.72,663.14-167.09M928.07,424.72,669.54-167.09M934.47,424.72,675.94-167.09M940.87,424.72,682.34-167.09M947.27,424.72,688.74-167.09M953.67,424.72,695.14-167.09M960.07,424.72,701.54-167.09M966.47,424.72,707.94-167.09M972.87,424.72,714.34-167.09M979.27,424.72,720.74-167.09M985.67,424.72,727.14-167.09M992.07,424.72,733.54-167.09M998.47,424.72,739.94-167.09m264.93,591.81L746.34-167.09"/><path class="cls-3" d="M105.6,148.84c63.32,0,114.66-34.63,114.66-77.34S168.92-5.85,105.6-5.85-9,28.78-9,71.5s51.33,77.34,114.65,77.34"/></g><g class="cls-2"><path class="cls-6" d="M128.09,179.33c41.84,0,75.77-22.89,75.77-51.11S169.93,77.1,128.09,77.1,52.31,100,52.31,128.22,86.24,179.33,128.09,179.33Z"/><path class="cls-3" d="M245.5,178.43h1.29c-9.74,0-9.74-14.35,0-14.35s9.73-14.35,0-14.35-9.74-14.34,0-14.34,9.73-14.35,0-14.35-9.74-14.34,0-14.34,9.73-14.35,0-14.35S237.05,78,246.79,78h-1.36a51.11,51.11,0,0,0,.07,100.42"/></g><g class="cls-7"><path class="cls-5" d="M-268.7,424.72-527.23-167.09M-262.3,424.72-520.83-167.09M-255.9,424.72-514.43-167.09M-249.5,424.72-508-167.09M-243.1,424.72-501.63-167.09M-236.7,424.72-495.23-167.09M-230.3,424.72-488.83-167.09M-223.9,424.72-482.43-167.09M-217.5,424.72-476-167.09M-211.1,424.72-469.63-167.09M-204.7,424.72-463.23-167.09M-198.3,424.72-456.83-167.09M-191.9,424.72-450.43-167.09M-185.5,424.72-444-167.09M-179.1,424.72-437.63-167.09M-172.7,424.72-431.23-167.09M-166.3,424.72-424.83-167.09M-159.9,424.72-418.43-167.09M-153.5,424.72-412-167.09M-147.1,424.72-405.63-167.09M-140.7,424.72-399.23-167.09M-134.3,424.72-392.83-167.09M-127.9,424.72-386.43-167.09m264.92,591.81L-380-167.09m264.92,591.81L-373.63-167.09m264.92,591.81L-367.23-167.09m264.92,591.81L-360.83-167.09M-95.91,424.72-354.43-167.09M-89.51,424.72-348-167.09M-83.11,424.72-341.63-167.09M-76.71,424.72-335.23-167.09M-70.31,424.72-328.83-167.09M-63.91,424.72-322.43-167.09M-57.51,424.72-316-167.09M-51.11,424.72-309.63-167.09M-44.71,424.72-303.23-167.09M-38.31,424.72-296.83-167.09M-31.91,424.72-290.43-167.09M-25.51,424.72-284-167.09M-19.11,424.72-277.63-167.09M-12.71,424.72-271.23-167.09M-6.31,424.72-264.83-167.09M.09,424.72-258.43-167.09M6.49,424.72-252-167.09M12.89,424.72-245.63-167.09M19.29,424.72-239.23-167.09M25.69,424.72-232.83-167.09M32.09,424.72-226.43-167.09M38.49,424.72-220-167.09M44.89,424.72-213.63-167.09M51.29,424.72-207.23-167.09M57.69,424.72-200.83-167.09M64.09,424.72-194.43-167.09M70.49,424.72-188-167.09M76.89,424.72-181.63-167.09M83.29,424.72-175.23-167.09M89.69,424.72-168.83-167.09M96.09,424.72-162.43-167.09M102.49,424.72-156-167.09M108.89,424.72-149.63-167.09M115.29,424.72-143.24-167.09M121.69,424.72-136.84-167.09M128.09,424.72-130.44-167.09M134.49,424.72-124-167.09M140.89,424.72-117.64-167.09M147.29,424.72-111.24-167.09M153.69,424.72-104.84-167.09M160.09,424.72-98.44-167.09M166.49,424.72-92-167.09M172.89,424.72-85.64-167.09M179.29,424.72-79.24-167.09M185.69,424.72-72.84-167.09M192.09,424.72-66.44-167.09M198.49,424.72-60-167.09M204.89,424.72-53.64-167.09M211.29,424.72-47.24-167.09M217.69,424.72-40.84-167.09M224.09,424.72-34.44-167.09M230.49,424.72-28-167.09M236.89,424.72-21.64-167.09M243.29,424.72-15.24-167.09M249.69,424.72-8.84-167.09M256.09,424.72-2.44-167.09M262.49,424.72,4-167.09M268.89,424.72,10.36-167.09M275.28,424.72,16.76-167.09M281.68,424.72,23.16-167.09M288.08,424.72,29.56-167.09M294.48,424.72,36-167.09M300.88,424.72,42.36-167.09M307.28,424.72,48.76-167.09M313.68,424.72,55.16-167.09M320.08,424.72,61.56-167.09M326.48,424.72,68-167.09M332.88,424.72,74.36-167.09M339.28,424.72,80.76-167.09M345.68,424.72,87.16-167.09M352.08,424.72,93.56-167.09M358.48,424.72,100-167.09M364.88,424.72,106.36-167.09M371.28,424.72,112.76-167.09M377.68,424.72,119.16-167.09M384.08,424.72,125.56-167.09M390.48,424.72,132-167.09M396.88,424.72,138.36-167.09M403.28,424.72,144.76-167.09M409.68,424.72,151.16-167.09M416.08,424.72,157.56-167.09M422.48,424.72,164-167.09M428.88,424.72,170.36-167.09M435.28,424.72,176.76-167.09M441.68,424.72,183.16-167.09M448.08,424.72,189.56-167.09M454.48,424.72,196-167.09M460.88,424.72,202.36-167.09M467.28,424.72,208.76-167.09M473.68,424.72,215.16-167.09M480.08,424.72,221.56-167.09M486.48,424.72,228-167.09M492.88,424.72,234.36-167.09M499.28,424.72,240.76-167.09M505.68,424.72,247.15-167.09M512.08,424.72,253.55-167.09M518.48,424.72,260-167.09M524.88,424.72,266.35-167.09M531.28,424.72,272.75-167.09M537.68,424.72,279.15-167.09M544.08,424.72,285.55-167.09M550.48,424.72,292-167.09M556.88,424.72,298.35-167.09M563.28,424.72,304.75-167.09M569.68,424.72,311.15-167.09M576.08,424.72,317.55-167.09M582.48,424.72,324-167.09M588.88,424.72,330.35-167.09M595.28,424.72,336.75-167.09M601.68,424.72,343.15-167.09M608.08,424.72,349.55-167.09M614.48,424.72,356-167.09M620.88,424.72,362.35-167.09M627.28,424.72,368.75-167.09M633.68,424.72,375.15-167.09M640.08,424.72,381.55-167.09M646.48,424.72,388-167.09M652.88,424.72,394.35-167.09M659.28,424.72,400.75-167.09M665.68,424.72,407.15-167.09M672.08,424.72,413.55-167.09M678.48,424.72,420-167.09M684.87,424.72,426.35-167.09M691.27,424.72,432.75-167.09M697.67,424.72,439.15-167.09M704.07,424.72,445.55-167.09M710.47,424.72,452-167.09M716.87,424.72,458.35-167.09M723.27,424.72,464.75-167.09M729.67,424.72,471.15-167.09M736.07,424.72,477.55-167.09M742.47,424.72,484-167.09M748.87,424.72,490.35-167.09M755.27,424.72,496.75-167.09M761.67,424.72,503.15-167.09M768.07,424.72,509.55-167.09M774.47,424.72,516-167.09M780.87,424.72,522.35-167.09M787.27,424.72,528.75-167.09M793.67,424.72,535.15-167.09M800.07,424.72,541.55-167.09M806.47,424.72,548-167.09M812.87,424.72,554.35-167.09M819.27,424.72,560.75-167.09M825.67,424.72,567.15-167.09M832.07,424.72,573.55-167.09M838.47,424.72,580-167.09M844.87,424.72,586.35-167.09M851.27,424.72,592.75-167.09M857.67,424.72,599.15-167.09M864.07,424.72,605.55-167.09M870.47,424.72,612-167.09M876.87,424.72,618.35-167.09M883.27,424.72,624.75-167.09M889.67,424.72,631.15-167.09M896.07,424.72,637.54-167.09M902.47,424.72,643.94-167.09M908.87,424.72,650.34-167.09M915.27,424.72,656.74-167.09M921.67,424.72,663.14-167.09M928.07,424.72,669.54-167.09M934.47,424.72,675.94-167.09M940.87,424.72,682.34-167.09M947.27,424.72,688.74-167.09M953.67,424.72,695.14-167.09M960.07,424.72,701.54-167.09M966.47,424.72,707.94-167.09M972.87,424.72,714.34-167.09M979.27,424.72,720.74-167.09M985.67,424.72,727.14-167.09M992.07,424.72,733.54-167.09M998.47,424.72,739.94-167.09m264.93,591.81L746.34-167.09"/><path class="cls-3" d="M105.6,148.84c63.32,0,114.66-34.63,114.66-77.34S168.92-5.85,105.6-5.85-9,28.78-9,71.5s51.33,77.34,114.65,77.34"/></g><g class="cls-2"><path class="cls-6" d="M245.5,178.43h1.29c-9.74,0-9.74-14.35,0-14.35s9.73-14.35,0-14.35-9.74-14.34,0-14.34,9.73-14.35,0-14.35-9.74-14.34,0-14.34,9.73-14.35,0-14.35S237.05,78,246.79,78h-1.36a51.11,51.11,0,0,0,.07,100.42Z"/><path class="cls-3" d="M10.67,178.43H9.38c9.74,0,9.74-14.35,0-14.35s-9.73-14.35,0-14.35,9.74-14.34,0-14.34S-.35,121,9.38,121s9.74-14.34,0-14.34-9.73-14.35,0-14.35S19.12,78,9.38,78h1.36a51.1,51.1,0,0,1,41.54,50.2,51.12,51.12,0,0,1-41.61,50.22"/></g><g class="cls-8"><path class="cls-5" d="M-268.7,424.72-527.23-167.09M-262.3,424.72-520.83-167.09M-255.9,424.72-514.43-167.09M-249.5,424.72-508-167.09M-243.1,424.72-501.63-167.09M-236.7,424.72-495.23-167.09M-230.3,424.72-488.83-167.09M-223.9,424.72-482.43-167.09M-217.5,424.72-476-167.09M-211.1,424.72-469.63-167.09M-204.7,424.72-463.23-167.09M-198.3,424.72-456.83-167.09M-191.9,424.72-450.43-167.09M-185.5,424.72-444-167.09M-179.1,424.72-437.63-167.09M-172.7,424.72-431.23-167.09M-166.3,424.72-424.83-167.09M-159.9,424.72-418.43-167.09M-153.5,424.72-412-167.09M-147.1,424.72-405.63-167.09M-140.7,424.72-399.23-167.09M-134.3,424.72-392.83-167.09M-127.9,424.72-386.43-167.09m264.92,591.81L-380-167.09m264.92,591.81L-373.63-167.09m264.92,591.81L-367.23-167.09m264.92,591.81L-360.83-167.09M-95.91,424.72-354.43-167.09M-89.51,424.72-348-167.09M-83.11,424.72-341.63-167.09M-76.71,424.72-335.23-167.09M-70.31,424.72-328.83-167.09M-63.91,424.72-322.43-167.09M-57.51,424.72-316-167.09M-51.11,424.72-309.63-167.09M-44.71,424.72-303.23-167.09M-38.31,424.72-296.83-167.09M-31.91,424.72-290.43-167.09M-25.51,424.72-284-167.09M-19.11,424.72-277.63-167.09M-12.71,424.72-271.23-167.09M-6.31,424.72-264.83-167.09M.09,424.72-258.43-167.09M6.49,424.72-252-167.09M12.89,424.72-245.63-167.09M19.29,424.72-239.23-167.09M25.69,424.72-232.83-167.09M32.09,424.72-226.43-167.09M38.49,424.72-220-167.09M44.89,424.72-213.63-167.09M51.29,424.72-207.23-167.09M57.69,424.72-200.83-167.09M64.09,424.72-194.43-167.09M70.49,424.72-188-167.09M76.89,424.72-181.63-167.09M83.29,424.72-175.23-167.09M89.69,424.72-168.83-167.09M96.09,424.72-162.43-167.09M102.49,424.72-156-167.09M108.89,424.72-149.63-167.09M115.29,424.72-143.24-167.09M121.69,424.72-136.84-167.09M128.09,424.72-130.44-167.09M134.49,424.72-124-167.09M140.89,424.72-117.64-167.09M147.29,424.72-111.24-167.09M153.69,424.72-104.84-167.09M160.09,424.72-98.44-167.09M166.49,424.72-92-167.09M172.89,424.72-85.64-167.09M179.29,424.72-79.24-167.09M185.69,424.72-72.84-167.09M192.09,424.72-66.44-167.09M198.49,424.72-60-167.09M204.89,424.72-53.64-167.09M211.29,424.72-47.24-167.09M217.69,424.72-40.84-167.09M224.09,424.72-34.44-167.09M230.49,424.72-28-167.09M236.89,424.72-21.64-167.09M243.29,424.72-15.24-167.09M249.69,424.72-8.84-167.09M256.09,424.72-2.44-167.09M262.49,424.72,4-167.09M268.89,424.72,10.36-167.09M275.28,424.72,16.76-167.09M281.68,424.72,23.16-167.09M288.08,424.72,29.56-167.09M294.48,424.72,36-167.09M300.88,424.72,42.36-167.09M307.28,424.72,48.76-167.09M313.68,424.72,55.16-167.09M320.08,424.72,61.56-167.09M326.48,424.72,68-167.09M332.88,424.72,74.36-167.09M339.28,424.72,80.76-167.09M345.68,424.72,87.16-167.09M352.08,424.72,93.56-167.09M358.48,424.72,100-167.09M364.88,424.72,106.36-167.09M371.28,424.72,112.76-167.09M377.68,424.72,119.16-167.09M384.08,424.72,125.56-167.09M390.48,424.72,132-167.09M396.88,424.72,138.36-167.09M403.28,424.72,144.76-167.09M409.68,424.72,151.16-167.09M416.08,424.72,157.56-167.09M422.48,424.72,164-167.09M428.88,424.72,170.36-167.09M435.28,424.72,176.76-167.09M441.68,424.72,183.16-167.09M448.08,424.72,189.56-167.09M454.48,424.72,196-167.09M460.88,424.72,202.36-167.09M467.28,424.72,208.76-167.09M473.68,424.72,215.16-167.09M480.08,424.72,221.56-167.09M486.48,424.72,228-167.09M492.88,424.72,234.36-167.09M499.28,424.72,240.76-167.09M505.68,424.72,247.15-167.09M512.08,424.72,253.55-167.09M518.48,424.72,260-167.09M524.88,424.72,266.35-167.09M531.28,424.72,272.75-167.09M537.68,424.72,279.15-167.09M544.08,424.72,285.55-167.09M550.48,424.72,292-167.09M556.88,424.72,298.35-167.09M563.28,424.72,304.75-167.09M569.68,424.72,311.15-167.09M576.08,424.72,317.55-167.09M582.48,424.72,324-167.09M588.88,424.72,330.35-167.09M595.28,424.72,336.75-167.09M601.68,424.72,343.15-167.09M608.08,424.72,349.55-167.09M614.48,424.72,356-167.09M620.88,424.72,362.35-167.09M627.28,424.72,368.75-167.09M633.68,424.72,375.15-167.09M640.08,424.72,381.55-167.09M646.48,424.72,388-167.09M652.88,424.72,394.35-167.09M659.28,424.72,400.75-167.09M665.68,424.72,407.15-167.09M672.08,424.72,413.55-167.09M678.48,424.72,420-167.09M684.87,424.72,426.35-167.09M691.27,424.72,432.75-167.09M697.67,424.72,439.15-167.09M704.07,424.72,445.55-167.09M710.47,424.72,452-167.09M716.87,424.72,458.35-167.09M723.27,424.72,464.75-167.09M729.67,424.72,471.15-167.09M736.07,424.72,477.55-167.09M742.47,424.72,484-167.09M748.87,424.72,490.35-167.09M755.27,424.72,496.75-167.09M761.67,424.72,503.15-167.09M768.07,424.72,509.55-167.09M774.47,424.72,516-167.09M780.87,424.72,522.35-167.09M787.27,424.72,528.75-167.09M793.67,424.72,535.15-167.09M800.07,424.72,541.55-167.09M806.47,424.72,548-167.09M812.87,424.72,554.35-167.09M819.27,424.72,560.75-167.09M825.67,424.72,567.15-167.09M832.07,424.72,573.55-167.09M838.47,424.72,580-167.09M844.87,424.72,586.35-167.09M851.27,424.72,592.75-167.09M857.67,424.72,599.15-167.09M864.07,424.72,605.55-167.09M870.47,424.72,612-167.09M876.87,424.72,618.35-167.09M883.27,424.72,624.75-167.09M889.67,424.72,631.15-167.09M896.07,424.72,637.54-167.09M902.47,424.72,643.94-167.09M908.87,424.72,650.34-167.09M915.27,424.72,656.74-167.09M921.67,424.72,663.14-167.09M928.07,424.72,669.54-167.09M934.47,424.72,675.94-167.09M940.87,424.72,682.34-167.09M947.27,424.72,688.74-167.09M953.67,424.72,695.14-167.09M960.07,424.72,701.54-167.09M966.47,424.72,707.94-167.09M972.87,424.72,714.34-167.09M979.27,424.72,720.74-167.09M985.67,424.72,727.14-167.09M992.07,424.72,733.54-167.09M998.47,424.72,739.94-167.09m264.93,591.81L746.34-167.09"/><path class="cls-3" d="M105.6,148.84c63.32,0,114.66-34.63,114.66-77.34S168.92-5.85,105.6-5.85-9,28.78-9,71.5s51.33,77.34,114.65,77.34"/></g><g class="cls-2"><path class="cls-6" d="M10.67,178.43H9.38c9.74,0,9.74-14.35,0-14.35s-9.73-14.35,0-14.35,9.74-14.34,0-14.34S-.35,121,9.38,121s9.74-14.34,0-14.34-9.73-14.35,0-14.35S19.12,78,9.38,78h1.36a51.1,51.1,0,0,1,41.54,50.2A51.12,51.12,0,0,1,10.67,178.43Z"/></g></svg>