<svg xmlns="http://www.w3.org/2000/svg" viewBox="0 0 101.52 200.04"><defs><style>.cls-1{fill:#fff;}.cls-2{fill:#d3033b;}</style></defs><g id="Layer_2" data-name="Layer 2"><g id="Ebene_3" data-name="Ebene 3"><polygon class="cls-1" points="99.54 198.53 99.54 60.61 79.84 21.2 79.84 1.5 20.73 1.5 20.73 21.2 1.02 40.91 1.02 178.83 20.73 198.53 99.54 198.53"/><path class="cls-2" d="M48,36c0-3.37,3.87-6.12,8.63-6.12S65.3,32.64,65.3,36s-3.87,6.11-8.63,6.11S48,39.38,48,36m.27,6.32a13.92,13.92,0,0,0,16.72,0C64.1,45,60.72,47,56.67,47s-7.43-2-8.36-4.66m-3.14-5A16.44,16.44,0,0,0,45,40.11v.77c0,5,5.22,9.11,11.63,9.11S68.3,45.91,68.3,40.88v-.77a16.56,16.56,0,0,0-.14-2.82A6.86,6.86,0,0,0,68.3,36c0-5-5.22-9.12-11.63-9.12S45,31,45,36a7,7,0,0,0,.13,1.29M98.52,62.11v84.57c-3.5,3.77-9.3,5.56-14.84,5.56-8.72,0-18.11-4.38-18.11-14,0-8.19-6.6-17-21.1-17s-21.11,8.8-21.11,17a12.6,12.6,0,0,1-.66,4.08V62.11Zm-.93-3H22.7V22.7H79.39ZM78.81,19.7H22.7V3H78.81ZM23,197l-.34-.77v-6.87L26,197ZM27,197l-4.25-9.72v-6.87L30,197Zm3.91,0L22.7,178.36V171.5L33.86,197Zm3.91,0L22.7,169.41v-6.86L37.77,197Zm3.91,0-16-36.57V153.6l19,43.43Zm3.91,0L22.7,151.52v-3.3a15.51,15.51,0,0,0,1-1.31L45.59,197Zm3.91,0-22.27-51a15.46,15.46,0,0,0,1.49-3.46L49.5,197Zm3.91,0L26.05,141.29a14.91,14.91,0,0,0,.31-3,13.74,13.74,0,0,1,.26-2.54L53.41,197Zm3.91,0L27,134.39a11.72,11.72,0,0,1,1.59-3.23L57.31,197Zm3.9,0L29.11,130.4a13.21,13.21,0,0,1,2.11-2.05l30,68.68Zm3.91,0L31.91,127.84a16.52,16.52,0,0,1,2.39-1.38L65.13,197ZM66,197l-31-70.93a22.17,22.17,0,0,1,2.6-.91L69,197ZM70,197,38.48,125a26,26,0,0,1,2.77-.51L73,197Zm3.91,0L42.13,124.39c.78-.07,1.56-.12,2.34-.12l.61,0L76.86,197Zm3.91,0L46,124.32a24.81,24.81,0,0,1,3.16.38L80.77,197Zm3.91,0L50.17,124.91A21.54,21.54,0,0,1,53.66,126l31,71Zm3.91,0-30.8-70.5a17.18,17.18,0,0,1,2.29,1.34,14.8,14.8,0,0,1,2.07,1.77l3.36,7.69c0,.31.06.6.06.93a15,15,0,0,0,5.52,11.86L88.59,197Zm3.91,0-20-45.85a21.46,21.46,0,0,0,3.91,2.1L92.5,197Zm3.91,0L74.48,153.7a24.81,24.81,0,0,0,3.41,1L96.41,197Zm3.91,0-18.44-42.2a29.46,29.46,0,0,0,3.15.35l16.49,37.74V197Zm-.23-45.25a17.51,17.51,0,0,0,1.43-1V155Zm-3.2,1.62a19.53,19.53,0,0,0,2.47-1.21l2.16,4.93V164Zm-3.44,1.08a24.62,24.62,0,0,0,2.67-.77l5.4,12.36v6.87Zm-3.64.6a26.7,26.7,0,0,0,2.81-.42L98.52,175v6.87Zm11.71,35.76L83,155.22l.72,0c.77,0,1.52,0,2.25-.09L98.52,184ZM19.7,194.91,3,178.21V44.53l16.7,16.7ZM19.7,57,4.54,41.83l15.16-3Zm0-21.25L6.06,38.47,19.7,24.82Zm81.82,162.79V60.61a1.46,1.46,0,0,0-.15-.63.06.06,0,0,1,0,0L81.81,20.85V1.5A1.5,1.5,0,0,0,80.31,0H21.2a1.5,1.5,0,0,0-1.5,1.5V20.58L.44,39.85l-.06.08s0,0,0,0-.06.07-.08.11a1.19,1.19,0,0,0-.08.16l-.07.14s0,0,0,0,0,0,0,0h0a1.52,1.52,0,0,0-.06.42v0H0V178.83a1.5,1.5,0,0,0,.44,1.06l19.7,19.71a.39.39,0,0,0,.11.06,1.28,1.28,0,0,0,.38.26,1.62,1.62,0,0,0,.57.12H100a1.5,1.5,0,0,0,1.5-1.5"/></g></g></svg>