<svg id="Ebene_1" data-name="Ebene 1" xmlns="http://www.w3.org/2000/svg" xmlns:xlink="http://www.w3.org/1999/xlink" viewBox="0 0 256 256"><defs><style>.cls-1,.cls-4,.cls-6,.cls-8{fill:none;}.cls-2{fill:#fff;}.cls-3{clip-path:url(#clip-path);}.cls-4,.cls-6,.cls-8{stroke:#d3033b;}.cls-4{stroke-miterlimit:10;stroke-width:1.35px;}.cls-5{clip-path:url(#clip-path-2);}.cls-6,.cls-8{stroke-width:4px;}.cls-7{clip-path:url(#clip-path-3);}.cls-8{stroke-linecap:round;stroke-linejoin:round;}</style><clipPath id="clip-path"><path class="cls-1" d="M91.13,177.24a18.6,18.6,0,0,1-.87,5.76v71.4H191V184.08c-7.84,19.56-49.32,17.28-49.32-6.84,0-13.32-12.65-20-25.29-20s-25.3,6.66-25.3,20"/></clipPath><clipPath id="clip-path-2"><rect class="cls-1" x="90.26" y="78.01" width="100.78" height="176.39"/></clipPath><clipPath id="clip-path-3"><rect class="cls-1" x="63.05" y="0.4" width="129.98" height="256"/></clipPath></defs><rect class="cls-2" x="90.26" y="78.01" width="100.78" height="176.39"/><g class="cls-3"><path class="cls-4" d="M-385.59,512.57-640.49-70.94m261.21,583.51L-634.18-70.94M-373,512.57-627.87-70.94m261.21,583.51L-621.56-70.94m261.21,583.51L-615.25-70.94M-354,512.57-608.94-70.94m261.21,583.51L-602.63-70.94m261.22,583.51L-596.32-70.94m261.21,583.51L-590-70.94M-328.8,512.57-583.7-70.94m261.21,583.51L-577.39-70.94m261.21,583.51L-571.08-70.94m261.21,583.51L-564.77-70.94m261.22,583.51L-558.45-70.94m261.21,583.51L-552.15-70.94m261.22,583.51L-545.84-70.94m261.22,583.51L-539.53-70.94m261.22,583.51L-533.22-70.94M-272,512.57-526.91-70.94m261.22,583.51L-520.6-70.94m261.22,583.51L-514.28-70.94m261.21,583.51L-508-70.94m261.21,583.51L-501.66-70.94m261.21,583.51L-495.35-70.94m261.21,583.51L-489-70.94m261.21,583.51L-482.73-70.94m261.21,583.51L-476.42-70.94m261.21,583.51L-470.11-70.94M-208.9,512.57-463.8-70.94m261.21,583.51L-457.49-70.94m261.21,583.51L-451.18-70.94M-190,512.57-444.87-70.94m261.21,583.51L-438.56-70.94m261.21,583.51L-432.25-70.94M-171,512.57-425.94-70.94m261.21,583.51L-419.63-70.94m261.21,583.51L-413.32-70.94m261.21,583.51L-407-70.94M-145.8,512.57-400.7-70.94m261.21,583.51L-394.39-70.94m261.21,583.51L-388.08-70.94m261.21,583.51L-381.77-70.94m261.21,583.51L-375.46-70.94m261.21,583.51L-369.15-70.94m261.21,583.51L-362.84-70.94m261.21,583.51L-356.53-70.94M-95.32,512.57-350.22-70.94M-89,512.57-343.91-70.94M-82.7,512.57-337.6-70.94M-76.39,512.57-331.29-70.94M-70.08,512.57-325-70.94M-63.77,512.57-318.67-70.94M-57.46,512.57-312.36-70.94M-51.15,512.57-306-70.94M-44.84,512.57-299.74-70.94M-38.53,512.57-293.43-70.94M-32.22,512.57-287.12-70.94M-25.91,512.57-280.81-70.94M-19.6,512.57-274.5-70.94M-13.29,512.57-268.19-70.94M-7,512.57-261.88-70.94M-.67,512.57-255.57-70.94M5.64,512.57-249.26-70.94M12,512.57-242.95-70.94M18.26,512.57-236.64-70.94M24.57,512.57-230.33-70.94M30.88,512.57-224-70.94M37.19,512.57-217.71-70.94M43.5,512.57-211.4-70.94M49.81,512.57-205.09-70.94M56.12,512.57-198.78-70.94M62.43,512.57-192.47-70.94M68.74,512.57-186.16-70.94M75.05,512.57-179.85-70.94M81.36,512.57-173.54-70.94M87.67,512.57-167.23-70.94M94,512.57-160.92-70.94M100.29,512.57-154.61-70.94M106.6,512.57-148.3-70.94M112.91,512.57-142-70.94M119.22,512.57-135.68-70.94M125.53,512.57-129.37-70.94M131.84,512.57-123.06-70.94M138.16,512.57-116.75-70.94M144.47,512.57-110.44-70.94M150.77,512.57-104.13-70.94M157.08,512.57-97.82-70.94M163.39,512.57-91.51-70.94M169.7,512.57-85.2-70.94M176,512.57-78.89-70.94M182.33,512.57-72.57-70.94M188.64,512.57-66.27-70.94M195,512.57-60-70.94M201.26,512.57-53.65-70.94M207.57,512.57-47.34-70.94M213.88,512.57-41-70.94M220.19,512.57-34.71-70.94M226.5,512.57-28.4-70.94M232.81,512.57-22.09-70.94M239.12,512.57-15.78-70.94M245.43,512.57-9.47-70.94M251.74,512.57-3.16-70.94M258.05,512.57,3.15-70.94M264.36,512.57,9.46-70.94M270.67,512.57,15.77-70.94M277,512.57,22.08-70.94M283.29,512.57,28.39-70.94M289.6,512.57,34.7-70.94M295.91,512.57,41-70.94M302.22,512.57,47.32-70.94M308.53,512.57,53.63-70.94M314.84,512.57,59.94-70.94M321.15,512.57,66.25-70.94M327.46,512.57,72.56-70.94M333.77,512.57,78.87-70.94M340.08,512.57,85.18-70.94M346.39,512.57,91.49-70.94M352.7,512.57,97.8-70.94M359,512.57,104.11-70.94M365.32,512.57,110.42-70.94M371.63,512.57,116.73-70.94M377.94,512.57,123-70.94M384.25,512.57,129.35-70.94M390.56,512.57,135.66-70.94M396.87,512.57,142-70.94M403.18,512.57,148.28-70.94M409.49,512.57,154.59-70.94M415.8,512.57,160.9-70.94M422.11,512.57,167.21-70.94M428.42,512.57,173.52-70.94M434.73,512.57,179.83-70.94M441,512.57,186.14-70.94M447.35,512.57,192.45-70.94M453.66,512.57,198.76-70.94M460,512.57,205.07-70.94M466.28,512.57,211.38-70.94M472.59,512.57,217.69-70.94M478.9,512.57,224-70.94M485.21,512.57,230.31-70.94M491.52,512.57,236.62-70.94M497.83,512.57,242.93-70.94M504.14,512.57,249.24-70.94M510.45,512.57,255.55-70.94M516.76,512.57,261.86-70.94M523.07,512.57,268.17-70.94M529.38,512.57,274.48-70.94M535.69,512.57,280.79-70.94M542,512.57,287.1-70.94M548.31,512.57,293.41-70.94M554.62,512.57,299.72-70.94M560.93,512.57,306-70.94M567.24,512.57,312.34-70.94M573.55,512.57,318.65-70.94M579.86,512.57,325-70.94M586.17,512.57,331.27-70.94M592.48,512.57,337.58-70.94M598.79,512.57,343.89-70.94M605.1,512.57,350.2-70.94M611.41,512.57,356.51-70.94M617.72,512.57,362.82-70.94M624,512.57,369.13-70.94M630.34,512.57,375.44-70.94M636.65,512.57,381.75-70.94M643,512.57,388.06-70.94M649.27,512.57,394.37-70.94M655.58,512.57,400.68-70.94M661.9,512.57,407-70.94M668.21,512.57,413.3-70.94M674.52,512.57,419.61-70.94M680.83,512.57,425.92-70.94M687.14,512.57,432.23-70.94M693.45,512.57,438.54-70.94M699.76,512.57,444.86-70.94M706.07,512.57,451.17-70.94M712.38,512.57,457.48-70.94M718.69,512.57,463.79-70.94M725,512.57,470.1-70.94M731.31,512.57,476.41-70.94M737.62,512.57,482.72-70.94M743.93,512.57,489-70.94M750.24,512.57,495.34-70.94M756.55,512.57,501.65-70.94M762.86,512.57,508-70.94M769.17,512.57,514.27-70.94M775.48,512.57,520.58-70.94M781.79,512.57,526.89-70.94M788.1,512.57,533.2-70.94M794.41,512.57,539.51-70.94M800.72,512.57,545.82-70.94M807,512.57,552.13-70.94M813.34,512.57,558.44-70.94M819.65,512.57,564.75-70.94M826,512.57,571.06-70.94M832.27,512.57,577.37-70.94M838.58,512.57,583.68-70.94M844.89,512.57,590-70.94M851.2,512.57,596.3-70.94M857.51,512.57,602.61-70.94M863.82,512.57,608.92-70.94M870.13,512.57,615.23-70.94"/></g><g class="cls-5"><path class="cls-6" d="M293.47,257.15V177.24c0,26.64-50.58,26.64-50.58,0s-50.59-26.63-50.59,0-50.58,26.64-50.58,0-50.59-26.63-50.59,0-50.58,26.64-50.58,0S-10,150.61-10,177.24s-50.58,26.64-50.58,0v79.91H293.47Z"/></g><g class="cls-7"><rect class="cls-8" x="90.26" y="78.01" width="100.78" height="176.39"/></g><rect class="cls-2" x="90.26" y="2.4" width="75.58" height="25.17"/><g class="cls-7"><rect class="cls-8" x="90.26" y="2.4" width="75.58" height="25.17"/></g><polygon class="cls-2" points="90.26 27.61 90.26 77.98 191.03 77.98 165.84 27.61 90.26 27.61"/><g class="cls-7"><polygon class="cls-8" points="90.26 27.61 90.26 77.98 191.03 77.98 165.84 27.61 90.26 27.61"/></g><polygon class="cls-2" points="90.22 27.61 90.22 77.98 65.05 52.79 90.22 27.61"/><g class="cls-7"><polygon class="cls-8" points="90.22 27.61 90.22 77.98 65.05 52.79 90.22 27.61"/></g><polygon class="cls-2" points="65.05 52.81 65.05 229.21 90.22 254.4 90.22 78.01 65.05 52.81"/><g class="cls-7"><polygon class="cls-8" points="65.05 52.81 65.05 229.21 90.22 254.4 90.22 78.01 65.05 52.81"/></g><polygon class="cls-2" points="90.22 47.77 90.22 77.98 65.05 52.81 90.22 47.77"/><g class="cls-7"><polygon class="cls-8" points="90.22 47.77 90.22 77.98 65.05 52.81 90.22 47.77"/><path class="cls-2" d="M135.6,62.48c7.15,0,13-4.35,13-9.72s1-9.73-13-9.72-12.94,4.35-12.94,9.72,5.8,9.72,12.94,9.72"/><path class="cls-6" d="M135.6,62.48c7.15,0,13-4.35,13-9.72s1-9.73-13-9.72-12.94,4.35-12.94,9.72S128.46,62.48,135.6,62.48Z"/><path class="cls-2" d="M135.6,56.25c7.15,0,13-4.35,13-9.72s-5.8-9.72-13-9.72-12.94,4.35-12.94,9.72,5.8,9.72,12.94,9.72"/><ellipse class="cls-6" cx="135.6" cy="46.53" rx="12.94" ry="9.72"/></g></svg>