<svg xmlns="http://www.w3.org/2000/svg" viewBox="0 0 198.91 80.08"><defs><style>.cls-1{fill:#fff;}.cls-2{fill:#d3033b;}</style></defs><g id="Layer_2" data-name="Layer 2"><g id="Ebene_3" data-name="Ebene 3"><path class="cls-1" d="M21,40.39C21,25.71,12.57,12.89,0,6V74.76c12.57-6.87,21-19.68,21-34.37"/><path class="cls-1" d="M121.84.71c-32.43,0-86.7,16.19-102,39.68C35,64.33,89.56,80.08,122.35,80.08h0c32.43,0,60.75-15.79,76-39.29C183.25,16.86,154.66.71,121.87.71Z"/><path class="cls-2" d="M6.51,18.81A.87.87,0,0,0,6,17.7a.85.85,0,0,0-1.1.49A.86.86,0,0,0,5.4,19.3a.85.85,0,0,0,.31.06.87.87,0,0,0,.8-.55M6.09,37.64A.84.84,0,0,0,5,38.11a.86.86,0,0,0,.48,1.11.91.91,0,0,0,.32.06.85.85,0,0,0,.31-1.64M7.47,26.4a.85.85,0,0,0-1.59-.62.85.85,0,0,0,.49,1.1.81.81,0,0,0,.31.06.84.84,0,0,0,.79-.54M8,32.88a.84.84,0,0,0-1.1.48.85.85,0,0,0,.48,1.11A.87.87,0,0,0,8.43,34,.85.85,0,0,0,8,32.88M7.81,41a.85.85,0,0,0,.48,1.1.89.89,0,0,0,.31.06.85.85,0,0,0,.8-.54.88.88,0,0,0-.49-1.12.87.87,0,0,0-1.1.5M9.33,21.64a.85.85,0,1,0-1.1.47.7.7,0,0,0,.31.07.84.84,0,0,0,.79-.54m1,7.59a.85.85,0,1,0-1.59-.62.84.84,0,0,0,.48,1.09.83.83,0,0,0,1.11-.47m.48,6.47a.86.86,0,0,0-1.11.49.86.86,0,0,0,.8,1.16.84.84,0,0,0,.79-.54.86.86,0,0,0-.48-1.11m1.38-11.23a.85.85,0,1,0-1.58-.62.84.84,0,0,0,.48,1.1.81.81,0,0,0,.31.06.84.84,0,0,0,.79-.54m1,7.59a.85.85,0,1,0-1.58-.63A.86.86,0,0,0,12,32.54a.84.84,0,0,0,1.1-.48M15,27.3a.84.84,0,0,0-.48-1.1.85.85,0,1,0-.62,1.58.81.81,0,0,0,.31.06A.84.84,0,0,0,15,27.3m.34,14.55A.85.85,0,0,0,16.12,43a.85.85,0,0,0,.31-1.65.85.85,0,0,0-1.1.49m-.48-6.49a.7.7,0,0,0,.31.07.86.86,0,0,0,.31-1.65.84.84,0,0,0-1.1.48.83.83,0,0,0,.48,1.1M13.47,46.6A.83.83,0,0,0,14,47.7a.82.82,0,0,0,.31.07.85.85,0,0,0,.79-.54.87.87,0,0,0-.48-1.12.86.86,0,0,0-1.1.49M13,40.11a.74.74,0,0,0,.32.07.84.84,0,0,0,.79-.54.85.85,0,1,0-1.11.47M11.6,51.36a.83.83,0,0,0,.48,1.09.87.87,0,0,0,.31.07.85.85,0,1,0-.79-1.16m-.48-6.48a.84.84,0,0,0,1.1-.48.85.85,0,1,0-1.58-.63.86.86,0,0,0,.48,1.11M9.74,56.11a.85.85,0,1,0,1.1-.48.85.85,0,0,0-1.1.48m-.48-6.47a.81.81,0,0,0,.31.06.86.86,0,1,0-.8-1.17.87.87,0,0,0,.49,1.11M7.87,60.86A.87.87,0,0,0,8.35,62a.91.91,0,0,0,.32.06A.86.86,0,0,0,9,60.39a.87.87,0,0,0-1.11.47m-1-7.57a.84.84,0,0,0,.48,1.1.85.85,0,0,0,.31.06.88.88,0,0,0,.8-.54A.85.85,0,0,0,8,52.81a.84.84,0,0,0-1.1.48m-.48-6.48a.87.87,0,0,0,1.1-.49.85.85,0,1,0-1.1.49M5,58.05a.85.85,0,0,0,.49,1.1.81.81,0,0,0,.31.05A.85.85,0,1,0,5,58.05m-1-7.6a.87.87,0,0,0,.48,1.12.83.83,0,0,0,.31,0,.84.84,0,0,0,.8-.53.86.86,0,0,0-1.59-.63M4,30.53a.85.85,0,0,0,.79,1.17.88.88,0,0,0,.8-.54A.86.86,0,0,0,4,30.53M29.13,41.44a.85.85,0,1,0-1.1.48,1.07,1.07,0,0,0,.31.06.84.84,0,0,0,.79-.54M31,36.68a.85.85,0,0,0-1.58-.62.85.85,0,0,0,.48,1.11,1.12,1.12,0,0,0,.31,0,.84.84,0,0,0,.79-.54m1,7.59a.86.86,0,0,0-.48-1.11.85.85,0,0,0-1.11.49.84.84,0,0,0,.48,1.09.7.7,0,0,0,.31.07.86.86,0,0,0,.8-.54M67.15,32.49a.85.85,0,0,0-.62,1.59,1.13,1.13,0,0,0,.31.06.86.86,0,0,0,.31-1.65M67,40.56a.85.85,0,0,0,.79,1.16.86.86,0,0,0,.8-.54.85.85,0,0,0-.49-1.1.83.83,0,0,0-1.1.48m1.52-19.32a.83.83,0,0,0-.48-1.09.85.85,0,1,0-.62,1.58.69.69,0,0,0,.31.06.83.83,0,0,0,.79-.55M69,27.73a.85.85,0,1,0-.31,1.65.88.88,0,0,0,.8-.54A.86.86,0,0,0,69,27.73M69.67,37a.83.83,0,0,0,.79-.53.84.84,0,0,0-.48-1.1.86.86,0,0,0-1.11.48.85.85,0,0,0,.49,1.1.65.65,0,0,0,.31.05m.17,6.44a.84.84,0,0,0,.48,1.1.85.85,0,1,0-.48-1.1m.56-26.9a.86.86,0,0,0-1.59-.63A.87.87,0,0,0,69.29,17a.89.89,0,0,0,.31.06.85.85,0,0,0,.8-.55m1,7.59a.84.84,0,0,0-.48-1.1.85.85,0,1,0-.62,1.58.81.81,0,0,0,.31.05.83.83,0,0,0,.79-.53m.48,6.48a.84.84,0,0,0-1.1.48.86.86,0,0,0,.48,1.11.84.84,0,0,0,.31.05.85.85,0,0,0,.79-.54.84.84,0,0,0-.48-1.1M74.36,35a.85.85,0,0,0,.79-.55.84.84,0,0,0-.48-1.1A.85.85,0,1,0,74.05,35a.7.7,0,0,0,.31.07m.17,6.41A.86.86,0,0,0,75,42.56a.84.84,0,0,0,.31,0A.85.85,0,0,0,75.63,41a.86.86,0,0,0-1.1.48m-.28,5.39a.86.86,0,0,0-1.59-.64.87.87,0,0,0,.49,1.12.84.84,0,0,0,1.1-.48m-1.76-7.05a.85.85,0,1,0-.31-.06.89.89,0,0,0,.31.06m.74-20.47a.85.85,0,0,0-.49-1.1.84.84,0,0,0-1.1.48.86.86,0,0,0,.48,1.11.84.84,0,0,0,.31.05.86.86,0,0,0,.8-.54m.48,6.48a.86.86,0,0,0-1.11.49.84.84,0,0,0,.48,1.1.91.91,0,0,0,.32.06.85.85,0,0,0,.79-.54.87.87,0,0,0-.48-1.11m1.38-11.23A.85.85,0,1,0,73.5,14a.85.85,0,0,0,.49,1.1.81.81,0,0,0,.31.06.85.85,0,0,0,.79-.54m1,7.58a.85.85,0,1,0-1.1.48.85.85,0,0,0,.31.06.84.84,0,0,0,.79-.54m.48,6.48a.85.85,0,1,0-.31,1.65.85.85,0,0,0,.31-1.65m25.08,7.17a.86.86,0,0,0,.8-.54.85.85,0,1,0-1.11.48.69.69,0,0,0,.31.06m.17,6.43a.86.86,0,0,0,.48,1.1,1.2,1.2,0,0,0,.32.06.85.85,0,0,0,.79-.54.85.85,0,1,0-1.59-.62m-.34-14.55a.85.85,0,1,0-1.1.48.81.81,0,0,0,.31.06.85.85,0,0,0,.79-.54m.06,19.92a.84.84,0,1,0-.79.55.85.85,0,0,0,.79-.55m-1.75-7a.88.88,0,1,0-.31-.07.67.67,0,0,0,.31.07m-.17-8.12a.86.86,0,0,0-.48-1.11.85.85,0,0,0-1.11.48.86.86,0,0,0,.48,1.11,1.13,1.13,0,0,0,.31.06.87.87,0,0,0,.8-.54m.06,19.92a.85.85,0,1,0-1.11.48.91.91,0,0,0,.32.06.84.84,0,0,0,.79-.54m-1.76-7a.88.88,0,0,0,.8-.54.86.86,0,0,0-.49-1.11.83.83,0,0,0-1.1.48.85.85,0,0,0,.79,1.17m-1-7.59a.85.85,0,1,0-.31-.06,1.13,1.13,0,0,0,.31.06m-.17-8.12A.85.85,0,1,0,95.16,29a.86.86,0,0,0,.48,1.1.89.89,0,0,0,.31.06.86.86,0,0,0,.8-.54m.06,19.92a.84.84,0,0,0-.48-1.1A.85.85,0,1,0,95.71,50a.81.81,0,0,0,.31.06.86.86,0,0,0,.79-.55m-1.76-7a.85.85,0,1,0-.79-1.16.85.85,0,0,0,.48,1.1.89.89,0,0,0,.31.06m-.16-8.13a.85.85,0,0,0-1.59-.62.85.85,0,0,0,.79,1.17.87.87,0,0,0,.8-.55M95,54.29a.85.85,0,1,0-1.59-.62.85.85,0,0,0,.48,1.1.89.89,0,0,0,.31.06.84.84,0,0,0,.8-.54m-1.76-7a.85.85,0,1,0-.79-1.16.85.85,0,0,0,.48,1.11.84.84,0,0,0,.31.05m-1-7.58a.86.86,0,1,0-.31-.06.81.81,0,0,0,.31.06m-.17-8.12A.86.86,0,1,0,91,32a.85.85,0,0,0,.31.06.88.88,0,0,0,.8-.54m.06,19.91a.84.84,0,0,0-.48-1.09.86.86,0,0,0-1.11.48.85.85,0,0,0,.49,1.1.81.81,0,0,0,.31.05.83.83,0,0,0,.79-.54m-1.76-7a.89.89,0,0,0,.8-.54.86.86,0,1,0-.8.54m-1-7.59a.85.85,0,1,0-.31-.06.85.85,0,0,0,.31.06m-.17-8.13a.85.85,0,0,0-.48-1.1.85.85,0,1,0-.62,1.59.79.79,0,0,0,.3,0,.84.84,0,0,0,.8-.54m.06,19.93a.85.85,0,0,0-.48-1.1A.86.86,0,0,0,87.7,48a.85.85,0,0,0,.49,1.1.69.69,0,0,0,.31.06.84.84,0,0,0,.79-.54m-1.76-7a.85.85,0,1,0-.31-.06.89.89,0,0,0,.31.06m-.17-8.14a.83.83,0,0,0-.48-1.09.84.84,0,0,0-1.1.48A.86.86,0,0,0,86.26,34a.91.91,0,0,0,1.1-.5m.07,19.94a.85.85,0,0,0-1.59-.62.83.83,0,0,0,.48,1.09.74.74,0,0,0,.32.07.84.84,0,0,0,.79-.54m-1.76-7a.85.85,0,0,0,.79-.54.85.85,0,1,0-1.58-.63.86.86,0,0,0,.48,1.11.85.85,0,0,0,.31.06m-1-7.59a.84.84,0,0,0,.79-.54.85.85,0,1,0-1.59-.62.85.85,0,0,0,.49,1.1.81.81,0,0,0,.31.06m-.17-8.12A.86.86,0,0,0,83,30a.84.84,0,0,0,.48,1.1.7.7,0,0,0,.31.07.88.88,0,0,0,.8-.54m.06,19.92a.85.85,0,1,0-1.11.48.91.91,0,0,0,.32.06.84.84,0,0,0,.79-.54m-1.76-7a.86.86,0,1,0-.79-1.17.84.84,0,0,0,.48,1.1.87.87,0,0,0,.31.07m-1-7.59a.85.85,0,0,0,.31-1.64.85.85,0,0,0-1.11.48.84.84,0,0,0,.49,1.09.7.7,0,0,0,.31.07m-.11,11.8a.85.85,0,0,0-1.59-.62.86.86,0,0,0,.49,1.11.84.84,0,0,0,1.1-.49m-1.75-7a.85.85,0,0,0,.79-.54A.86.86,0,0,0,80.33,39a.86.86,0,0,0-.63,1.59.91.91,0,0,0,.32.06m-1-7.58a.86.86,0,1,0-.79-1.17.86.86,0,0,0,.48,1.11.85.85,0,0,0,.31.06M79,44.91a.86.86,0,0,0-1.59-.63.85.85,0,0,0,.79,1.17.88.88,0,0,0,.8-.54m-1.76-7a.85.85,0,1,0-.8-1.16.85.85,0,0,0,.48,1.1.91.91,0,0,0,.32.06m.73-20.46a.86.86,0,1,0-1.11.48.91.91,0,0,0,.32.06.85.85,0,0,0,.79-.54m.48,6.48a.85.85,0,0,0-1.11.48.84.84,0,0,0,.49,1.09.87.87,0,0,0,.31.07.85.85,0,0,0,.31-1.64m1.38-11.24A.85.85,0,1,0,78.2,12a.83.83,0,0,0,.48,1.09.67.67,0,0,0,.31.07.85.85,0,0,0,.79-.54m1,7.58a.87.87,0,0,0-.49-1.11.86.86,0,0,0-1.1.49.84.84,0,0,0,.48,1.1.82.82,0,0,0,1.11-.48m.48,6.48a.85.85,0,0,0-1.11.49.86.86,0,0,0,.48,1.1.89.89,0,0,0,.31.06.86.86,0,0,0,.32-1.65m1.38-11.23A.85.85,0,1,0,81,14.85a.85.85,0,0,0,.49,1.1.81.81,0,0,0,.31.06.85.85,0,0,0,.79-.54M83.09,22a.85.85,0,0,0-.62,1.58.85.85,0,0,0,.31.06A.85.85,0,0,0,83.09,22M84.47,10.7a.87.87,0,1,0-.79.54.83.83,0,0,0,.79-.54m1,7.6A.86.86,0,0,0,85,17.19a.85.85,0,1,0-.31,1.65.86.86,0,0,0,.8-.54m.48,6.48a.85.85,0,1,0-.62,1.58.81.81,0,0,0,.31.06.85.85,0,0,0,.31-1.64M87.3,13.54a.84.84,0,1,0-.79.54.87.87,0,0,0,.79-.54M87.78,20a.85.85,0,0,0-1.1.47.87.87,0,0,0,.48,1.12.84.84,0,0,0,.31.05.85.85,0,0,0,.79-.55A.83.83,0,0,0,87.78,20M89.17,8.78a.86.86,0,1,0-.8.54.88.88,0,0,0,.8-.54m1,7.58a.85.85,0,0,0-.48-1.1A.85.85,0,1,0,89,16.85a.81.81,0,0,0,.31.06.85.85,0,0,0,.79-.55m.48,6.49A.85.85,0,0,0,90,24.43a.85.85,0,0,0,.31.06.85.85,0,0,0,.31-1.64M92,11.61a.85.85,0,1,0-1.1.48.85.85,0,0,0,.31.06.84.84,0,0,0,.79-.54m1,7.58a.85.85,0,0,0-1.59-.62.87.87,0,0,0,.48,1.11.89.89,0,0,0,.31.06.86.86,0,0,0,.8-.55m.48,6.48a.86.86,0,1,0,.48,1.11.86.86,0,0,0-.48-1.11m1.38-11.23a.85.85,0,0,0-.48-1.11.85.85,0,1,0-.62,1.59A1.13,1.13,0,0,0,94,15a.85.85,0,0,0,.79-.54m.48,6.48a.84.84,0,1,0-.62,1.57.7.7,0,0,0,.31.07.86.86,0,0,0,.8-.54.85.85,0,0,0-.49-1.1M96.69,9.68a.85.85,0,0,0-.49-1.1.83.83,0,0,0-1.1.48.85.85,0,0,0,.79,1.16.86.86,0,0,0,.8-.54m1,7.58a.85.85,0,1,0-1.1.48.67.67,0,0,0,.31.07.85.85,0,0,0,.79-.55m.48,6.48a.85.85,0,0,0-.62,1.59,1.13,1.13,0,0,0,.31.06.84.84,0,0,0,.79-.54.85.85,0,0,0-.48-1.11m1.38-11.23a.84.84,0,1,0-.79.54.85.85,0,0,0,.79-.54M100,19a.86.86,0,0,0-1.11.48.87.87,0,0,0,.48,1.11,1.19,1.19,0,0,0,.32.05.84.84,0,0,0,.79-.54A.85.85,0,0,0,100,19m1.38-11.25a.84.84,0,0,0-.48-1.09.85.85,0,1,0-.63,1.58.91.91,0,0,0,.32.06.83.83,0,0,0,.79-.55m1,7.6a.84.84,0,1,0-.79.54.86.86,0,0,0,.79-.54m.48,6.48a.85.85,0,0,0-.62,1.58.89.89,0,0,0,1.11-.48.85.85,0,0,0-.49-1.1m1.39-11.24a.86.86,0,1,0-1.11.48.87.87,0,0,0,.31,0,.84.84,0,0,0,.8-.53m.48,6.48a.85.85,0,1,0-.62,1.59.81.81,0,0,0,.31.05.85.85,0,0,0,.31-1.64m-.14,8.07a.84.84,0,0,0,.48,1.1.85.85,0,0,0,.31.06.83.83,0,0,0,.79-.55.85.85,0,1,0-1.58-.61m1.52-19.31a.85.85,0,1,0-1.1.49.81.81,0,0,0,.31.05.84.84,0,0,0,.79-.54m1,7.59a.86.86,0,0,0-.49-1.11.85.85,0,1,0-.31,1.65.88.88,0,0,0,.8-.54m.48,6.48a.85.85,0,1,0-.63,1.58.91.91,0,0,0,.32.06.85.85,0,0,0,.31-1.64M107.38,28a.85.85,0,1,0,1.1-.48.85.85,0,0,0-1.1.48m1.52-19.3a.85.85,0,1,0-1.1.48.81.81,0,0,0,.31.06.84.84,0,0,0,.79-.54m1,7.59a.84.84,0,1,0-.79.54.86.86,0,0,0,.79-.54m.49,6.48a.85.85,0,1,0,.48,1.1.85.85,0,0,0-.48-1.1M127.9,29a.85.85,0,1,0-.31-.06.85.85,0,0,0,.31.06m.17,6.42a.85.85,0,0,0,.48,1.1l.13,0c0-.55,0-1.09,0-1.64a.82.82,0,0,0-.66.52m-.28,5.38a.84.84,0,1,0-.79.54.87.87,0,0,0,.79-.54m-2.55-8.21a.86.86,0,0,0,.49,1.11.81.81,0,0,0,.31.05.84.84,0,0,0,.79-.54.85.85,0,0,0-.48-1.1.86.86,0,0,0-1.11.48m.63-7a.85.85,0,1,0-1.11.49.89.89,0,0,0,.31.06.87.87,0,0,0,.8-.55m1,27.52a.85.85,0,1,0-1.1.48.85.85,0,0,0,.31.06.84.84,0,0,0,.79-.54m-1.75-7a.86.86,0,1,0-.8-1.17.86.86,0,0,0,.49,1.11.81.81,0,0,0,.31.06m-1-7.6a.83.83,0,1,0-.31-.05.84.84,0,0,0,.31.05m-6.62-13.23a.85.85,0,0,0,.8-.54.86.86,0,0,0-.49-1.11.85.85,0,0,0-1.1.49.84.84,0,0,0,.48,1.1.89.89,0,0,0,.31.06m.17,6.42a.87.87,0,0,0,.49,1.11.81.81,0,0,0,.31.06.86.86,0,0,0,.31-1.65.86.86,0,0,0-1.11.48M117.55,17a2.77,2.77,0,0,0,1.14,2.21s-.06.07-.07.12a.86.86,0,0,0,.49,1.11.8.8,0,0,0,.31,0,.83.83,0,0,0,.79-.54s0-.09,0-.13l.29,0,0-2.66h0v0l0,.05v-.34s0,0,0,.05V15.27a.85.85,0,1,0,0-.75v-.35a2.91,2.91,0,0,0-3,2.84m2.83,11.08a.88.88,0,0,0,.8-.54.86.86,0,0,0-.49-1.11.85.85,0,1,0-.31,1.65m.17,6.42a.85.85,0,0,0,.48,1.1.91.91,0,0,0,.32.06.85.85,0,0,0,.31-1.64.86.86,0,0,0-1.11.48m.9-12.34a.85.85,0,0,0,.48,1.1.89.89,0,0,0,.31.06.85.85,0,0,0,.32-1.64.86.86,0,0,0-1.11.48m1,7.57a.85.85,0,1,0,1.58.62.84.84,0,0,0-.48-1.09.86.86,0,0,0-1.1.47m1.65,20.56a.85.85,0,0,0-1.59-.62.86.86,0,0,0,.48,1.11.84.84,0,0,0,.31.05.86.86,0,0,0,.8-.54m-1.76-7a.85.85,0,1,0-.79-1.16.84.84,0,0,0,.48,1.1.81.81,0,0,0,.31.06m-.11,11.8a.85.85,0,1,0-1.1.48.81.81,0,0,0,.31.06.84.84,0,0,0,.79-.54m-1.76-7a.85.85,0,0,0,.8-.55.85.85,0,1,0-1.59-.62.85.85,0,0,0,.48,1.1.92.92,0,0,0,.31.07m-1-7.59a.86.86,0,0,0,.31-1.65.85.85,0,0,0-1.1.49.83.83,0,0,0,.48,1.09.7.7,0,0,0,.31.07m-.11,11.8a.85.85,0,1,0-1.58-.62.82.82,0,0,0,.48,1.09.87.87,0,0,0,.31.07.84.84,0,0,0,.79-.54m-1.75-7a.86.86,0,1,0-.8-1.17.87.87,0,0,0,.48,1.11.91.91,0,0,0,.32.06m-1-7.59A.85.85,0,0,0,117,36a.85.85,0,1,0-.31,1.65m-.17-8.12a.85.85,0,1,0-1.58-.63.83.83,0,0,0,.48,1.1.87.87,0,0,0,.31.07.85.85,0,0,0,.79-.54m.06,19.92a.83.83,0,0,0-.48-1.1.85.85,0,0,0-.62,1.58.85.85,0,0,0,.31.06.84.84,0,0,0,.79-.54m-1.75-7a.85.85,0,0,0,.79-.54A.85.85,0,1,0,114,41.2a.84.84,0,0,0,.48,1.1.85.85,0,0,0,.31.06M113,33.61a.86.86,0,0,0,.48,1.11.89.89,0,0,0,.31.06.86.86,0,1,0-.79-1.17m.63-7a.86.86,0,0,0-.49-1.11.85.85,0,0,0-.62,1.59.85.85,0,0,0,.31.06.86.86,0,0,0,.8-.54m1,27.51a.85.85,0,1,0-1.1.48.81.81,0,0,0,.31.06.85.85,0,0,0,.79-.54m-1.76-7a.83.83,0,1,0-.31,0,.87.87,0,0,0,.31,0m-1-7.58a.85.85,0,1,0-.31-.06.85.85,0,0,0,.31.06m-.11,11.8a.84.84,0,0,0-.48-1.1.85.85,0,1,0-.62,1.58.84.84,0,0,0,.31,0,.83.83,0,0,0,.79-.53m-1.16-19.44A.81.81,0,0,0,111,32a.86.86,0,1,0-.31-.06m1-20.41a.85.85,0,0,0-1.59-.62.83.83,0,0,0,.48,1.09.87.87,0,0,0,.31.07.85.85,0,0,0,.8-.54m.48,6.47a.86.86,0,1,0-.62,1.6.84.84,0,0,0,1.1-.49.86.86,0,0,0-.48-1.11m1.38-11.23A.85.85,0,1,0,112,6.1a.84.84,0,0,0,.48,1.1.85.85,0,0,0,.31.06.84.84,0,0,0,.79-.54m1,7.59a.85.85,0,1,0-1.58-.62.85.85,0,1,0,1.58.62m.49,6.48a.85.85,0,1,0-.63,1.57.74.74,0,0,0,.32.07.84.84,0,0,0,.79-.54.85.85,0,0,0-.48-1.1m1.38-11.24a.84.84,0,0,0-.48-1.1.85.85,0,1,0-.63,1.58.91.91,0,0,0,.32.06.84.84,0,0,0,.79-.54M116.9,16a.85.85,0,0,0-1.1.48.83.83,0,0,0,.48,1.1.7.7,0,0,0,.31.07A.86.86,0,0,0,116.9,16M118.28,4.8a.84.84,0,1,0-.79.54.85.85,0,0,0,.79-.54m1,7.58a.85.85,0,1,0-1.11.48.89.89,0,0,0,.31.06.84.84,0,0,0,.8-.54m1.86-4.77a.84.84,0,0,0-.48-1.09A.85.85,0,1,0,120,8.11a.84.84,0,0,0,.31.05.85.85,0,0,0,.79-.55m2.88,2.5v-.9a3,3,0,0,0-.73.1.81.81,0,0,0-.78.31A2.81,2.81,0,0,0,121,12.05a2.9,2.9,0,0,0,3,2.83l0-2.66h0v0l0,.05v-.34s0,0,0,0V10.12h0m.43,6.82a.85.85,0,0,0-.62,1.59.85.85,0,0,0,.31.06.86.86,0,0,0,.79-.55.84.84,0,0,0-.48-1.1M125.8,5.69a.85.85,0,1,0-1.58-.62.86.86,0,0,0,.48,1.11.87.87,0,0,0,1.1-.49m1,7.59a.86.86,0,0,0-.49-1.11.85.85,0,1,0-.31,1.65.87.87,0,0,0,.8-.54m.48,6.48a.86.86,0,0,0-1.11.48.85.85,0,0,0,.49,1.1.81.81,0,0,0,.31.06.85.85,0,0,0,.31-1.64m1.38-11.24a.86.86,0,0,0-.48-1.11.84.84,0,0,0-1.1.49A.82.82,0,0,0,127.53,9a.67.67,0,0,0,.31.07.84.84,0,0,0,.79-.54m5.94.28a.5.5,0,0,0,0,.13c.07-.15.15-.29.22-.43a.77.77,0,0,0-.19.3M131.74,6a.84.84,0,0,0,.48,1.1.85.85,0,0,0,.31.06A.85.85,0,1,0,131.74,6m-.9,12.34a.83.83,0,0,0,.11.79c.1-.42.21-.84.32-1.25a.78.78,0,0,0-.43.46m-.48-6.48a1.07,1.07,0,0,0,.31.06.86.86,0,1,0-.31-.06M129,23.07a.85.85,0,0,0,.49,1.1,1.07,1.07,0,0,0,.3.06l.1,0c.09-.53.19-1.05.3-1.57l-.08-.05a.85.85,0,0,0-1.11.48m-.48-6.48a.85.85,0,0,0,.31.06.86.86,0,1,0-.79-1.17.86.86,0,0,0,.48,1.11m.27,31.77a.85.85,0,0,0-.48-1.09.86.86,0,0,0-1.11.47.88.88,0,0,0,.48,1.12.89.89,0,0,0,.31.06.87.87,0,0,0,.8-.56m2.41,10.73c-.08-.3-.14-.6-.22-.9a.86.86,0,0,0,.22.9m4,10.53c-.14-.28-.29-.55-.43-.84a.85.85,0,0,0,.43.84m-2.25,3.71a.86.86,0,0,0,.48,1.11.84.84,0,0,0,.31,0,.86.86,0,0,0,.8-.54.85.85,0,0,0-1.59-.62m-1-7.59a.84.84,0,0,0,.48,1.11.81.81,0,0,0,.31.06.85.85,0,0,0,.79-.55,1.08,1.08,0,0,0,0-.19l-.3-.77a.92.92,0,0,0-.21-.13.84.84,0,0,0-1.1.47m-1.87,4.75a.87.87,0,0,0,.49,1.12.81.81,0,0,0,.31.06.87.87,0,0,0,.79-.54.86.86,0,0,0-.48-1.11.87.87,0,0,0-1.11.47m-1-7.57a.86.86,0,0,0,.48,1.11.84.84,0,0,0,.31,0,.86.86,0,0,0,.8-.54.85.85,0,0,0-1.59-.62m-.48-6.48a.81.81,0,0,0,.31.05.84.84,0,0,0,.79-.54.85.85,0,1,0-1.58-.61.84.84,0,0,0,.48,1.1m-1.39,11.24a.85.85,0,0,0,.49,1.1.81.81,0,0,0,.31.06.85.85,0,0,0,.31-1.64.85.85,0,0,0-1.11.48m-.48-6.48a.85.85,0,0,0,.31.06.87.87,0,0,0,.8-.56.85.85,0,0,0-1.59-.61.86.86,0,0,0,.48,1.11m-1.38,11.23a.86.86,0,0,0,.48,1.11.85.85,0,0,0,.31.06.88.88,0,0,0,.8-.54.85.85,0,0,0-.49-1.11.84.84,0,0,0-1.1.48m-1-7.58a.86.86,0,0,0,.8,1.16.84.84,0,0,0,.79-.54.86.86,0,0,0-.48-1.11.87.87,0,0,0-1.11.49m-.48-6.49a.73.73,0,0,0,.31.07.88.88,0,1,0-.31-.07M122.54,69.6a.84.84,0,0,0,.48,1.1.92.92,0,0,0,.31.07.87.87,0,0,0,.8-.54.88.88,0,0,0-.49-1.12.87.87,0,0,0-1.1.49m-.48-6.47a.85.85,0,1,0-.48-1.11.86.86,0,0,0,.48,1.11m-1.38,11.23a.85.85,0,1,0,1.1-.48.84.84,0,0,0-1.1.48m-1-7.58a.85.85,0,0,0,.49,1.1.81.81,0,0,0,.31.06.85.85,0,1,0-.8-1.16m-.48-6.48a.86.86,0,0,0,1.11-.48.86.86,0,1,0-1.59-.63.86.86,0,0,0,.48,1.11m-1.38,11.24a.85.85,0,1,0,1.1-.49.85.85,0,0,0-1.1.49m-1-7.59a.84.84,0,0,0,.48,1.1.85.85,0,0,0,.31.06.85.85,0,1,0-.79-1.16m-.49-6.48a.89.89,0,0,0,.31.06.87.87,0,0,0,.8-.54.86.86,0,1,0-1.11.48M115,68.7a.86.86,0,0,0,.48,1.11.87.87,0,0,0,.31,0,.86.86,0,0,0,.8-.53A.86.86,0,1,0,115,68.7m-.48-6.47a.84.84,0,0,0,1.1-.49.84.84,0,0,0-.48-1.1.85.85,0,0,0-1.1.47.86.86,0,0,0,.48,1.12m-1.38,11.22a.85.85,0,1,0,1.1-.47.86.86,0,0,0-1.1.47m-1-7.57a.85.85,0,0,0,.49,1.1A.81.81,0,0,0,113,67a.83.83,0,0,0,.79-.55.85.85,0,0,0-.48-1.1.86.86,0,0,0-1.11.49m-.48-6.48a.84.84,0,0,0,.31.05.88.88,0,0,0,.8-.54.85.85,0,1,0-1.11.49m-1.38,11.24a.85.85,0,0,0,.79,1.16.88.88,0,0,0,.8-.54.86.86,0,0,0-.49-1.11.85.85,0,0,0-1.1.49m-1-7.59a.86.86,0,0,0,.49,1.11.8.8,0,0,0,.31,0,.83.83,0,0,0,.79-.53.85.85,0,0,0-.48-1.1.86.86,0,0,0-1.11.48m-.48-6.48a.91.91,0,0,0,.32.06.85.85,0,0,0,.79-.54.86.86,0,1,0-1.11.48M107.5,67.81a.85.85,0,0,0,.48,1.1.91.91,0,0,0,.32.06.84.84,0,0,0,.79-.54.85.85,0,1,0-1.59-.62M107,61.33a1.13,1.13,0,0,0,.31.06.85.85,0,1,0-.31-.06m-1.38,11.23a.86.86,0,0,0,.48,1.11,1.13,1.13,0,0,0,.31.06.85.85,0,0,0,.79-.54.84.84,0,0,0-.48-1.11.85.85,0,0,0-1.1.48m-1-7.58a.85.85,0,0,0,.48,1.1,1.2,1.2,0,0,0,.32.06.84.84,0,0,0,.79-.54.86.86,0,0,0-.48-1.11.87.87,0,0,0-1.11.49m-.48-6.49a.7.7,0,0,0,.31.07.88.88,0,0,0,.8-.54.86.86,0,0,0-.49-1.11.85.85,0,0,0-1.1.49.83.83,0,0,0,.48,1.09m-1.38,11.24a.85.85,0,0,0,.79,1.17.86.86,0,0,0,.31-1.66.87.87,0,0,0-1.1.49m-1-7.58a.85.85,0,0,0,.48,1.11.87.87,0,0,0,1.1-.49.85.85,0,0,0-.48-1.1.83.83,0,0,0-1.1.48M100,66.91a.84.84,0,0,0,.48,1.1.89.89,0,0,0,.31.06.87.87,0,0,0,.8-.54.85.85,0,0,0-1.59-.62m-.48-6.48A.85.85,0,1,0,99,59.32a.85.85,0,0,0,.48,1.11M98.12,71.66a.85.85,0,0,0,.79,1.17.87.87,0,0,0,.79-.54.85.85,0,1,0-1.58-.63m-1-7.58a.85.85,0,0,0,.49,1.1.81.81,0,0,0,.31.06.85.85,0,0,0,.31-1.64.86.86,0,0,0-1.11.48m-1.86,4.76a.85.85,0,1,0,1.1-.49.84.84,0,0,0-1.1.49m-1-7.6a.86.86,0,0,0,.48,1.12.81.81,0,0,0,.31.06.86.86,0,0,0,.79-.56.85.85,0,0,0-1.58-.62M92.46,66a.84.84,0,0,0,.48,1.1.85.85,0,1,0-.48-1.1M90.6,70.77a.83.83,0,0,0,.48,1.09.67.67,0,0,0,.31.07.85.85,0,1,0-.79-1.16m-1-7.59a.85.85,0,0,0,.48,1.1.73.73,0,0,0,.32.06.85.85,0,0,0,.31-1.64.86.86,0,0,0-1.11.48m-1.86,4.76a.85.85,0,0,0,.79,1.16.85.85,0,0,0,.31-1.65.84.84,0,0,0-1.1.49m-1-7.59a.85.85,0,0,0,.49,1.1.87.87,0,0,0,.31.07.85.85,0,0,0,.79-.55.86.86,0,0,0-.48-1.11.87.87,0,0,0-1.11.49m-1.86,4.76a.83.83,0,0,0,.48,1.09.83.83,0,0,0,1.11-.47.85.85,0,0,0-1.59-.62m-2.83-2.83a.86.86,0,0,0,.48,1.1.74.74,0,0,0,.32.07.86.86,0,1,0-.8-1.17M80.25,67a.84.84,0,0,0,.48,1.1.84.84,0,0,0,1.1-.48A.85.85,0,0,0,80.25,67m-1-7.59a.86.86,0,0,0,.49,1.11.81.81,0,0,0,.31,0,.84.84,0,0,0,.79-.53.86.86,0,0,0-1.59-.63m2-7.59L79.11,54A18.06,18.06,0,0,0,84,57.46s0,0,0,.06a.85.85,0,1,0,1.58.63v0a18.47,18.47,0,0,0,6.09,1.16,1,1,0,0,0,.33.24.85.85,0,0,0,.31.06.82.82,0,0,0,.61-.33,18.18,18.18,0,0,0,12-5.3c.24-.24.45-.49.67-.74a.84.84,0,0,0,.49.52.81.81,0,0,0,.31.06.85.85,0,0,0,.31-1.64.72.72,0,0,0-.19,0A18.28,18.28,0,0,0,108.42,49a.8.8,0,0,0,.6-.49.83.83,0,0,0-.06-.72,18.17,18.17,0,0,0,1-3.51.66.66,0,0,0,.15,0,.86.86,0,0,0,.31-1.65.67.67,0,0,0-.24,0,18.51,18.51,0,0,0-.52-6.11.9.9,0,0,0,.28-.33.85.85,0,0,0-.49-1.1,1,1,0,0,0-.24-.05,18,18,0,0,0-4.28-6.84l-1.21,1.21a.85.85,0,0,0-1,.5.86.86,0,0,0,.49,1.11.81.81,0,0,0,.31.06h0a15.2,15.2,0,0,1,3.71,8.72A.85.85,0,0,0,107,41.4a1.08,1.08,0,0,0,.27.05A15.23,15.23,0,0,1,104.36,50a.8.8,0,0,0-.51-.63.85.85,0,0,0-.62,1.58.81.81,0,0,0,.31.06l0,0c-.26.3-.52.61-.8.89A15.24,15.24,0,0,1,90.26,56.2a.85.85,0,0,0-1.59-.6.7.7,0,0,0-.06.32,15.16,15.16,0,0,1-7.38-4.06m23.21-13.23a.85.85,0,1,0-.31-.06.85.85,0,0,0,.31.06m.17,6.42a.85.85,0,0,0,.79,1.17.88.88,0,0,0,.8-.54.86.86,0,0,0-.49-1.11.85.85,0,0,0-1.1.48M78.8,53a.85.85,0,0,0,.31.06.86.86,0,0,0,.8-.54.85.85,0,0,0-.48-1.1.84.84,0,0,0-1.11.47A.85.85,0,0,0,78.8,53M77.42,64.2a.85.85,0,0,0,.48,1.11A.89.89,0,0,0,79,64.83a.86.86,0,0,0-1.59-.63m-1-7.57a.84.84,0,0,0,.48,1.1.84.84,0,0,0,1.1-.49.85.85,0,1,0-1.58-.61M76,50.15a.89.89,0,0,0,.32.05.85.85,0,1,0-.8-1.16A.86.86,0,0,0,76,50.15M74.59,61.38a.86.86,0,0,0,.49,1.11.81.81,0,0,0,.31,0,.85.85,0,0,0,.31-1.64.86.86,0,0,0-1.11.48m-.48-6.48a.84.84,0,0,0,.31.05.84.84,0,0,0,.31-1.63.85.85,0,0,0-.62,1.58M72.73,66.14a.84.84,0,0,0,.48,1.1.85.85,0,0,0,.31.06.86.86,0,0,0,.8-.54.85.85,0,0,0-.49-1.1.84.84,0,0,0-1.1.48m-1-7.59a.86.86,0,0,0,.49,1.11.81.81,0,0,0,.31.06.86.86,0,1,0-.8-1.17m-.48-6.48A.85.85,0,1,0,70.8,51a.84.84,0,0,0,.48,1.1M69.9,63.31a.85.85,0,0,0,.79,1.16.86.86,0,0,0,.8-.54.85.85,0,0,0-1.59-.62m-1-7.58a.84.84,0,0,0,.48,1.1,1.13,1.13,0,0,0,.31.06.85.85,0,1,0-.79-1.16m-.49-6.49a.74.74,0,0,0,.32.07.88.88,0,1,0-.32-.07M67.07,60.48a.86.86,0,0,0,.48,1.11.89.89,0,0,0,.31.06.85.85,0,0,0,.8-.55.85.85,0,1,0-1.59-.62m-1-7.58A.83.83,0,0,0,66.59,54a.7.7,0,0,0,.31.07.84.84,0,0,0,.79-.54.85.85,0,0,0-.48-1.11.84.84,0,0,0-1.1.49m-.48-6.48a1.07,1.07,0,0,0,.31.06.86.86,0,1,0-.8-1.17.87.87,0,0,0,.49,1.11m-.37-14.36,0-2.66h0v-.05l0,.06v-.35a.15.15,0,0,1,0,.06V26.39a2.84,2.84,0,1,0,0,5.67M63.42,42a.86.86,0,0,0-1.1.5.84.84,0,0,0,.48,1.1.84.84,0,0,0,1.1-.48A.87.87,0,0,0,63.42,42m1.87-4.75a.86.86,0,0,0-1.11.49.84.84,0,0,0,.48,1.1,1.2,1.2,0,0,0,.32.06.84.84,0,0,0,.79-.54.87.87,0,0,0-.48-1.11M64.24,57.66a.85.85,0,0,0,.49,1.1.81.81,0,0,0,.31.06.85.85,0,1,0-.8-1.16m-.48-6.49a1.21,1.21,0,0,0,.31.06.86.86,0,0,0,.8-.54.85.85,0,1,0-1.11.48M62.38,62.41a.85.85,0,0,0,.79,1.17A.89.89,0,0,0,64,63a.85.85,0,0,0-1.59-.62m-1-7.58a.84.84,0,0,0,.48,1.1.85.85,0,1,0-.48-1.1m-.49-6.48a.91.91,0,0,0,.32.06.86.86,0,1,0-.8-1.17.87.87,0,0,0,.48,1.11m.15-8.07a.86.86,0,0,0-.49-1.11A.85.85,0,0,0,60,40.76a.85.85,0,0,0,.31.06.88.88,0,0,0,.8-.54m-1.53,19.3A.86.86,0,0,0,60,60.69a.87.87,0,0,0,.31.05.85.85,0,1,0-.79-1.16m-1-7.59a.85.85,0,1,0,1.58.62.83.83,0,0,0-.48-1.09.84.84,0,0,0-1.1.47m-.48-6.47a.81.81,0,0,0,.31.06.87.87,0,0,0,.79-.54.86.86,0,0,0-.48-1.11.85.85,0,1,0-.62,1.59m.14-8.07a.85.85,0,0,0-.49-1.1.85.85,0,0,0-.62,1.58.89.89,0,0,0,.31.06.85.85,0,0,0,.8-.54M56.72,56.74a.87.87,0,0,0,.49,1.12.81.81,0,0,0,.31.06.87.87,0,0,0,.79-.54.86.86,0,0,0-.48-1.11.87.87,0,0,0-1.11.47m-1-7.57a.86.86,0,0,0,.48,1.11.84.84,0,0,0,.31,0,.85.85,0,1,0-.79-1.16m-.48-6.48a.87.87,0,0,0,1.1-.49.85.85,0,1,0-1.1.49M53.9,53.93a.84.84,0,0,0,.48,1.1.85.85,0,1,0-.48-1.1m-.49-6.48a.89.89,0,0,0,.31.06.86.86,0,1,0-.79-1.17.87.87,0,0,0,.48,1.11M52,58.68a.87.87,0,0,0,.48,1.11.91.91,0,0,0,.32.06.86.86,0,1,0-.8-1.17m-1-7.58a.84.84,0,0,0,.48,1.1.85.85,0,0,0,.31.06.84.84,0,0,0,.79-.54.85.85,0,1,0-1.58-.62m-.48-6.49a.67.67,0,0,0,.31.07A.86.86,0,0,0,51.21,43a.87.87,0,0,0-1.11.48.85.85,0,0,0,.49,1.1M49.2,55.86A.84.84,0,0,0,49.69,57,.82.82,0,0,0,50,57a.86.86,0,0,0,.8-.54.85.85,0,1,0-1.59-.62m-1-7.59a.86.86,0,0,0,.48,1.11.84.84,0,0,0,.31,0,.85.85,0,0,0,.31-1.64.84.84,0,0,0-1.1.48M46.37,53a.85.85,0,0,0,.49,1.1.81.81,0,0,0,.31.06.84.84,0,0,0,.79-.54A.85.85,0,1,0,46.37,53m-1-7.59a.86.86,0,0,0,.48,1.11.89.89,0,0,0,.31.06.87.87,0,0,0,.8-.54.86.86,0,1,0-1.59-.63M43.55,50.2A.86.86,0,0,0,44,51.31a.85.85,0,1,0-.48-1.11m-2.83-2.84a.87.87,0,0,0,.48,1.12.85.85,0,1,0-.48-1.12m-1.87,4.77a.85.85,0,0,0,.49,1.1.81.81,0,0,0,.31.06A.85.85,0,0,0,40,51.65a.86.86,0,0,0-1.11.48M36,49.3a.86.86,0,0,0,.48,1.11.91.91,0,0,0,1.1-.49A.85.85,0,1,0,36,49.3m-2.21-9.79a.85.85,0,1,0-1.59-.62.86.86,0,0,0,.8,1.16.84.84,0,0,0,.79-.54M34.3,46a.85.85,0,0,0-.62,1.59,1.13,1.13,0,0,0,.31.06.88.88,0,0,0,.8-.54A.86.86,0,0,0,34.3,46m1.39-11.25a.85.85,0,1,0-1.11.49.69.69,0,0,0,.31.06.86.86,0,0,0,.8-.55m.48,6.49a.86.86,0,0,0-1.11.49.85.85,0,0,0,.49,1.1.81.81,0,0,0,.31.06.86.86,0,0,0,.31-1.65M37.55,30a.85.85,0,0,0-.48-1.1.85.85,0,1,0-.62,1.59.81.81,0,0,0,.31.06.85.85,0,0,0,.79-.55m1,7.59a.84.84,0,0,0-.48-1.1.85.85,0,1,0-.62,1.58.84.84,0,0,0,.31,0,.83.83,0,0,0,.79-.53M39,44.06a.86.86,0,0,0-.63,1.59.89.89,0,0,0,.32.05A.85.85,0,0,0,39,44.06m1.38-11.24a.85.85,0,0,0-1.59-.62.83.83,0,0,0,.79,1.16.84.84,0,0,0,.8-.54m.48,6.49a.85.85,0,0,0-.62,1.58.84.84,0,0,0,1.1-.48.84.84,0,0,0-.48-1.1m1.38-11.24a.85.85,0,1,0-1.58-.62.84.84,0,0,0,.48,1.1.84.84,0,0,0,1.1-.48m1,7.58A.85.85,0,0,0,41.62,35a.86.86,0,0,0,.48,1.11.84.84,0,0,0,.31,0,.85.85,0,0,0,.8-.54m.48,6.48a.85.85,0,1,0-.62,1.59.81.81,0,0,0,.31.06.86.86,0,0,0,.31-1.65M45.07,30.9a.85.85,0,0,0-.48-1.11.84.84,0,0,0-1.1.48.85.85,0,1,0,1.58.63m.48,6.48A.84.84,0,1,0,44.93,39a.87.87,0,0,0,.31.07.85.85,0,0,0,.31-1.64m1.39-11.24a.85.85,0,0,0-1.59-.62.83.83,0,0,0,.48,1.09.7.7,0,0,0,.31.07.86.86,0,0,0,.8-.54m1,7.58a.85.85,0,1,0-1.59-.62.85.85,0,0,0,.49,1.1.82.82,0,0,0,.3.07.85.85,0,0,0,.8-.55m.48,6.48a.85.85,0,0,0-.62,1.59.85.85,0,0,0,.31.06.86.86,0,0,0,.31-1.65M49.76,29a.85.85,0,1,0-1.58-.62.84.84,0,0,0,.48,1.1.84.84,0,0,0,1.1-.48m.48,6.48a.85.85,0,0,0-1.1.48A.87.87,0,0,0,49.62,37a.84.84,0,0,0,.31.05.85.85,0,0,0,.31-1.64M51.63,24.2a.85.85,0,1,0-1.11.49.87.87,0,0,0,.31,0,.84.84,0,0,0,.8-.54m1,7.6a.86.86,0,1,0-1.1.48.81.81,0,0,0,.31.06.85.85,0,0,0,.79-.54m.48,6.48a.85.85,0,0,0-.62,1.58.85.85,0,0,0,.31.06.87.87,0,0,0,.79-.54.84.84,0,0,0-.48-1.1M54.46,27A.86.86,0,0,0,54,25.93a.85.85,0,0,0-1.1.49.84.84,0,0,0,.48,1.1.85.85,0,0,0,.31.06.86.86,0,0,0,.8-.54m.48,6.48a.86.86,0,0,0-1.11.47.84.84,0,0,0,.79,1.17.85.85,0,0,0,.8-.55.84.84,0,0,0-.48-1.09m1.38-11.24a.84.84,0,0,0-.48-1.1.85.85,0,1,0-.62,1.58.66.66,0,0,0,.31.06.85.85,0,0,0,.79-.54M58,26.79a2.84,2.84,0,1,0,0,5.67l0-2.67h0v-.05a.11.11,0,0,1,0,.05v-.34l0,.06Zm3-6.44a.85.85,0,1,0-1.1.49.81.81,0,0,0,.31.05.84.84,0,0,0,.79-.54m1,7.59a.86.86,0,0,0-.49-1.11h0l0-2h0v0a.11.11,0,0,1,0,0v-.34l0,.05V21.83A3,3,0,0,0,58.61,24a.84.84,0,0,0-1,.5.85.85,0,0,0,.48,1.1.91.91,0,0,0,.32.06,1,1,0,0,0,.32-.1A2.94,2.94,0,0,0,60.4,27.3a0,0,0,0,0,0,0,.86.86,0,0,0,.48,1.1,1.13,1.13,0,0,0,.31.06.86.86,0,0,0,.8-.54m.48,6.48a.84.84,0,0,0-.71,0v-.1h0v0l0,0V34s0,0,0,0V31.35a3,3,0,0,0-1.77.57.84.84,0,0,0-.39-.33A.85.85,0,1,0,59,33.18h0a2.61,2.61,0,0,0-.21,1,2.91,2.91,0,0,0,3,2.83l0-1.05.06,0a.87.87,0,0,0,.31.05.84.84,0,0,0,.8-.54.85.85,0,0,0-.48-1.1m1.38-11.24a.85.85,0,0,0-1.59-.62.85.85,0,0,0,.49,1.1.81.81,0,0,0,.31.06.84.84,0,0,0,.79-.54m1.86-4.76a.85.85,0,0,0-1.58-.62A.85.85,0,0,0,64.91,19a.85.85,0,0,0,.79-.55m.49,6.49a.85.85,0,1,0-.63,1.58.89.89,0,0,0,.31.06.84.84,0,0,0,.8-.54.85.85,0,0,0-.48-1.1m91.17,2.93a2,2,0,1,1-2-2,2,2,0,0,1,2,2m3,0a5,5,0,1,0-5,5,5,5,0,0,0,5-5M195.3,40.06c-.88,1.28-1.82,2.53-2.78,3.76-.25.32-.52.64-.78,1-.77.95-1.56,1.88-2.38,2.8l-.72.81c-12,13-28.52,22.16-46.75,26C129,59.94,128.28,20.85,140.54,4.82a88.48,88.48,0,0,1,44.88,23.32h0c1.11,1.09,2.18,2.23,3.22,3.39l.71.81c.83.95,1.63,1.91,2.41,2.9.25.31.51.62.75,1,1,1.26,1.91,2.54,2.79,3.86m-73-38.56v.23h0ZM65.9,13.86l.17-.06a.79.79,0,0,0,.39.35.89.89,0,0,0,.32,0,.86.86,0,0,0,.79-.53.93.93,0,0,0,0-.4c1.13-.39,2.26-.77,3.4-1.14a.75.75,0,0,0,.15.09.85.85,0,0,0,.31.06.84.84,0,0,0,.79-.54v0a206.28,206.28,0,0,1,20-5.22.83.83,0,0,0,.53.83,1.2,1.2,0,0,0,.32.06.84.84,0,0,0,.79-.54.91.91,0,0,0,0-.67c1.29-.26,2.58-.5,3.87-.73h.06a.94.94,0,0,0,.16,0c3.84-.68,7.6-1.23,11.24-1.63a.84.84,0,0,0,.5.6.84.84,0,0,0,1.1-.48,1,1,0,0,0,0-.28c3.75-.37,7.33-.58,10.68-.61a.92.92,0,0,0,.39.34.85.85,0,0,0,.31.06.88.88,0,0,0,.68-.4c2,0,4,.1,6,.25a.84.84,0,0,0,.51,1,.7.7,0,0,0,.31.07.87.87,0,0,0,.8-.55.94.94,0,0,0,0-.37q3,.27,5.87.72a.85.85,0,0,0,.31.92c.17-.28.36-.54.55-.8h0C125.37,21.61,126.08,59,138.56,75q-4.42.75-9,1.08a1,1,0,0,0,.18-.22.85.85,0,1,0-1.58-.62.86.86,0,0,0,.19.92c-1.85.11-3.7.19-5.57.19-1.69,0-3.46-.05-5.29-.14a.82.82,0,0,0-.44-.42.85.85,0,0,0-1,.33c-1.93-.11-3.92-.28-6-.49a.83.83,0,0,0-.53-.74.86.86,0,0,0-1.11.48s0,0,0,.07q-2.88-.33-5.88-.77a.81.81,0,0,0-.51-.68.86.86,0,0,0-1.09.43c-2-.31-4-.67-6.09-1.07a.8.8,0,0,0-.34-.26.85.85,0,0,0-.73.06C90.56,72.53,87.28,71.8,84,71a.87.87,0,0,0,.67-.5.85.85,0,1,0-1.58-.63.84.84,0,0,0,.26,1q-3.09-.78-6.16-1.65a.83.83,0,0,0-1.49-.43q-4.51-1.32-8.93-2.85s0,0,0,0a.85.85,0,0,0-.49-1.1.84.84,0,0,0-1.1.48.53.53,0,0,0,0,.12Q60.74,63.77,56.47,62A.84.84,0,0,0,55,61.34a125.92,125.92,0,0,1-11.69-5.78.85.85,0,0,0-1.45-.83C34.24,50.29,28,45.25,24,39.71c.25-.34.54-.67.81-1a.82.82,0,0,0,.43.39.85.85,0,0,0,.31.06.85.85,0,0,0,.31-1.64h-.05a48.41,48.41,0,0,1,5.61-5.4.87.87,0,0,0,.37.31.91.91,0,0,0,.32.06.85.85,0,0,0,.79-.54.89.89,0,0,0-.18-.9A92.6,92.6,0,0,1,47.5,21.74a.55.55,0,0,0,.19.12.71.71,0,0,0,.31.06.84.84,0,0,0,.8-.54.76.76,0,0,0,.05-.33c1-.51,2-1,3.11-1.5a.82.82,0,0,0,.43.39.87.87,0,0,0,1.1-.49.8.8,0,0,0,0-.59c1-.46,2-.91,3.11-1.36a.83.83,0,0,0,.48.51.84.84,0,0,0,1.1-.48.87.87,0,0,0,0-.69c1-.42,2.08-.84,3.14-1.25a.83.83,0,0,0,.48.49,1.13,1.13,0,0,0,.31.06.87.87,0,0,0,.8-.55.85.85,0,0,0,0-.61c1-.38,2-.75,3-1.12M3.48,10.78l.45.35a.81.81,0,0,0,.51.57.82.82,0,0,0,.31.07c.69.55,1.37,1.12,2,1.72a.85.85,0,0,0,.5,1,.81.81,0,0,0,.31.06.73.73,0,0,0,.25-.08c.61.6,1.2,1.22,1.76,1.86a.83.83,0,0,0,.5,1,.74.74,0,0,0,.32.07l0,0A35.85,35.85,0,0,1,16.81,29a.84.84,0,0,0-.58.49.87.87,0,0,0,.48,1.12.85.85,0,0,0,.31.06,1,1,0,0,0,.25-.08,34.2,34.2,0,0,1,1.09,6.06s0,0-.06,0a.86.86,0,0,0-1.11.48.85.85,0,0,0,.49,1.1.81.81,0,0,0,.31.05.79.79,0,0,0,.47-.14c0,.53.05,1.06.05,1.59a34.79,34.79,0,0,1-1.27,9.23.84.84,0,0,0-.95.51.85.85,0,0,0,.46,1.09,33.25,33.25,0,0,1-1.22,3.19h0a.85.85,0,0,0-1.1.49.83.83,0,0,0,.38,1,34.69,34.69,0,0,1-1.87,3.29.81.81,0,0,0-.37.42.7.7,0,0,0-.05.25,37.29,37.29,0,0,1-5.16,6.12.6.6,0,0,0-.25-.16.84.84,0,0,0-1,1.29c-.85.75-1.73,1.47-2.65,2.15v-4.8a.81.81,0,0,0,.18.12.85.85,0,1,0,.62-1.59.84.84,0,0,0-.8.11v-6.2a.88.88,0,0,0,.32-.39.85.85,0,0,0-.32-1V43.9A1.25,1.25,0,0,0,3.6,44a.84.84,0,0,0,1.1-.49.84.84,0,0,0-.48-1.1.83.83,0,0,0-.74.07V36.23a.83.83,0,0,0,.26-.32.86.86,0,0,0-.26-1V24l.06,0a.81.81,0,0,0,.31.06.85.85,0,1,0-.37-1.61V16.23a1,1,0,0,0,.2-.24.9.9,0,0,0-.2-.93Zm195.43,29.3h0l-.54-.83-.05-.06c-.9-1.38-1.85-2.71-2.83-4-.27-.36-.55-.71-.83-1.07-.78-1-1.58-2-2.41-3l-.82-.95q-1.49-1.7-3.06-3.3l-.31-.32a90.72,90.72,0,0,0-47.82-24.9l-.86-.16,0,0c-1.49-.27-3-.49-4.5-.69l0,0-.63-.07-.06,0c-2.17-.26-4.35-.46-6.55-.58,0,0,0,0,0,0L126.24.06l0,0c-1.29,0-2.58-.09-3.88-.09h0c-.71,0-1.44,0-2.17,0V0l-1.58,0a.05.05,0,0,0,0,0c-3.37.12-6.94.4-10.63.82,0,0,0,0,0,0l-1.62.19s0,0,0,0c-4.95.62-10.1,1.49-15.31,2.59V3.63L89.44,4s0,0,0,0c-1.19.26-2.39.54-3.59.82h0s-.07,0-.1,0L85,5l0,.06A201.3,201.3,0,0,0,64.9,11l-.49.18.09-.05-.59.21H64c-1.37.49-2.71,1-4,1.52l0-.05-1,.41H59c-1.27.51-2.52,1-3.74,1.54l0-.05-1,.44h0a114.51,114.51,0,0,0-20,10.93l0,0-1.2.87s0,0,0,0a58.07,58.07,0,0,0-9.6,8.58s0,0,0,0l-.67.78h0c-.5.59-1,1.19-1.41,1.79a37.57,37.57,0,0,0-2.6-12.18h0c-.13-.35-.29-.69-.44-1A40.27,40.27,0,0,0,2.77,6.67L.48,5.22V74.15L2.77,72.7A39.24,39.24,0,0,0,21.46,41.32a48.61,48.61,0,0,0,9.88,9.88h0l.23.18.66.49.42.32h0c.63.47,1.28.94,2,1.4h0l1.2.81v0A105.92,105.92,0,0,0,47.3,61s0,0,0,.06l1.25.62s0,0,.05,0c3.88,1.88,8,3.62,12.19,5.23,0,0-.07,0-.1,0l1.46.56a.56.56,0,0,0,0-.12Q66.64,69,71.3,70.47a.58.58,0,0,0-.14,0l1.29.4-.07-.12c2,.63,4.08,1.23,6.13,1.79,0,0,0,.08.06.11l.83.22a.6.6,0,0,0,.11-.06c3.17.85,6.35,1.63,9.49,2.33,0,0-.07,0-.1,0l1.41.3a.22.22,0,0,0,0-.08c2,.42,4,.82,5.95,1.18,0,0,0,0,0,.06l1.65.28v0c2,.35,4,.67,5.91.94a0,0,0,0,0,0,0l1.49.2,0,0a135.75,135.75,0,0,0,17.54,1.29,96.43,96.43,0,0,0,18-1.73l.06.06.8-.16a91,91,0,0,0,46.37-24.25l.11-.11q1.67-1.66,3.24-3.42l.78-.89q1.28-1.45,2.46-3l.79-1c1-1.31,2-2.64,2.89-4Z"/></g></g></svg>