<svg xmlns="http://www.w3.org/2000/svg" viewBox="0 0 146.63 146.63"><defs><style>.cls-1{fill:#fff;}.cls-2{fill:#d3033b;}</style></defs><g id="Layer_2" data-name="Layer 2"><g id="Ebene_3" data-name="Ebene 3"><path class="cls-1" d="M97.89,9.39l-.35.25a25.06,25.06,0,0,0-2.93,2.5l-.1.12-.15.14a29,29,0,0,0-7.44,12.82A29.1,29.1,0,0,1,79.4,38.54a29.1,29.1,0,0,1-12.58,7.28,28.54,28.54,0,0,0-7.51,3.06h0a31.48,31.48,0,0,0-2.8,1.85l-.52.38a30.17,30.17,0,0,0-2.71,2.38h0c-.05,0-.08.09-.13.13l-.13.12a30.15,30.15,0,0,0-2.37,2.72c-.14.17-.26.35-.39.52a31.48,31.48,0,0,0-1.85,2.8h0a29.3,29.3,0,0,0-3.06,7.52,29.1,29.1,0,0,1-7.28,12.58A29.23,29.23,0,0,1,24.74,87.4a29.11,29.11,0,0,0-12.82,7.43l-.14.15a1.14,1.14,0,0,0-.11.11A24.13,24.13,0,0,0,9.17,98l-.26.34a1.63,1.63,0,0,0-.11.17,29.19,29.19,0,0,0-5.45,17.88c-.68,7.61-.5,15.84-2.1,24.07,12.49,4.2,25.6,6,36.4,3.6A29.15,29.15,0,0,0,48.09,140l0,0,.71-.47a25.58,25.58,0,0,0,4-3.24l.11-.11.15-.14a29.15,29.15,0,0,0,7.25-12.08A28.36,28.36,0,0,1,81,102.46a29.26,29.26,0,0,0,7.21-3l.45-.27A26.85,26.85,0,0,0,91,97.6l.61-.44a32.1,32.1,0,0,0,2.57-2.27l.12-.13a1.59,1.59,0,0,0,.13-.13,28.78,28.78,0,0,0,2.27-2.57c.16-.2.3-.4.45-.61.56-.75,1.08-1.51,1.56-2.3L99,88.7a28.8,28.8,0,0,0,3-7.22,28.4,28.4,0,0,1,21.44-20.69,29.09,29.09,0,0,0,12.08-7.25,1.85,1.85,0,0,0,.14-.14l.12-.11a26.76,26.76,0,0,0,3.24-4c.16-.23.31-.47.47-.71l0,0a29.13,29.13,0,0,0,4.11-10.45c2.36-10.79.6-23.9-3.61-36.4-8.22,1.6-16.46,1.42-24.06,2.11A29.21,29.21,0,0,0,98.05,9.27l-.16.12"/><path class="cls-2" d="M141.61,25.73a.85.85,0,0,0,.78.51.83.83,0,0,0,.34-.07.85.85,0,1,0-1.12-.44m-1.86,14.05a.85.85,0,0,0,.78.51.83.83,0,0,0,.34-.07.85.85,0,1,0-1.12-.44m-.09-9.36a.85.85,0,1,0,.44-1.13.86.86,0,0,0-.44,1.13m-.09-9.37a.85.85,0,0,0,.78.51.83.83,0,0,0,.34-.07.85.85,0,1,0-1.12-.44m-3.73,28.09a.85.85,0,0,0,.78.51.83.83,0,0,0,.34-.07.85.85,0,1,0-1.12-.44m-2.05-4.68a.86.86,0,0,0,.78.51.84.84,0,0,0,.35-.07.85.85,0,1,0-1.13-.44m-1.95,4.68a.85.85,0,0,0,.78.51.8.8,0,0,0,.34-.07.85.85,0,1,0-1.12-.44m-2,4.68a.85.85,0,0,0,.78.51.83.83,0,0,0,.34-.07.86.86,0,0,0,.44-1.12.85.85,0,0,0-1.56.68m-2-4.68a.85.85,0,0,0,.78.51.8.8,0,0,0,.34-.07.85.85,0,1,0-1.12-.44m-2,4.68a.85.85,0,0,0,.78.51.83.83,0,0,0,.34-.07.85.85,0,1,0-1.12-.44m-4,0a.85.85,0,0,0,.78.51.83.83,0,0,0,.34-.07.85.85,0,1,0-1.12-.44m-2,4.68a.86.86,0,0,0,.78.52.81.81,0,0,0,.34-.08.84.84,0,0,0,.44-1.12.85.85,0,1,0-1.56.68m-2-4.68a.85.85,0,0,0,.78.51.83.83,0,0,0,.34-.07.85.85,0,1,0-1.12-.44m-2,4.68a.87.87,0,0,0,.78.52.81.81,0,0,0,.34-.08.85.85,0,0,0,.45-1.12.87.87,0,0,0-1.13-.44.85.85,0,0,0-.44,1.12m-2-4.68a.85.85,0,0,0,.78.51.83.83,0,0,0,.34-.07.85.85,0,1,0-1.12-.44m-2,4.68a.87.87,0,0,0,.78.52.85.85,0,1,0-.78-.52m-2,4.69a.85.85,0,0,0,.78.51.83.83,0,0,0,.34-.07.85.85,0,1,0-1.12-.44m-.09-9.37a.85.85,0,0,0,.78.51.8.8,0,0,0,.34-.07.85.85,0,1,0-1.12-.44m-2,4.68a.87.87,0,0,0,.78.52.89.89,0,0,0,.35-.08.86.86,0,0,0,.44-1.12.87.87,0,0,0-1.13-.44.85.85,0,0,0-.44,1.12m-2,4.69a.85.85,0,0,0,.78.51.8.8,0,0,0,.34-.07.85.85,0,1,0-1.12-.44m-.09-9.37a.85.85,0,0,0,.78.51.83.83,0,0,0,.34-.07.85.85,0,1,0-1.12-.44M104,67.87a.85.85,0,0,0,.78.51.83.83,0,0,0,.34-.07.85.85,0,1,0-1.12-.44m-.1-9.37a.88.88,0,0,0,.78.52.87.87,0,0,0,.79-1.2.86.86,0,0,0-1.57.68m-1.86,14a.85.85,0,0,0,.78.51.8.8,0,0,0,.34-.07.85.85,0,1,0-1.12-.44M102,63.19a.85.85,0,0,0,.78.51.8.8,0,0,0,.34-.07.85.85,0,1,0-1.12-.44m-.09-9.37a.85.85,0,0,0,.78.51.8.8,0,0,0,.34-.07.85.85,0,1,0-1.12-.44m-1.77,23.41a.85.85,0,0,0,.78.51.83.83,0,0,0,.34-.07.85.85,0,1,0-1.12-.44M100,67.87a.85.85,0,0,0,.78.51.83.83,0,0,0,.34-.07.85.85,0,1,0-1.12-.44m-.09-9.37a.86.86,0,0,0,.78.52.87.87,0,0,0,.78-1.2.86.86,0,0,0-1.12-.44.84.84,0,0,0-.44,1.12m-.1-9.36a.87.87,0,0,0,.79.51.83.83,0,0,0,.34-.07.85.85,0,1,0-1.13-.44M98.16,81.91a.87.87,0,0,0,.79.52.88.88,0,0,0,.34-.08.85.85,0,1,0-.69-1.56.85.85,0,0,0-.44,1.12m-.09-9.36a.86.86,0,0,0,.78.51A.87.87,0,0,0,99.2,73a.85.85,0,1,0-1.13-.44M98,63.19a.85.85,0,0,0,.78.51.8.8,0,0,0,.34-.07A.85.85,0,1,0,98,63.19m-.09-9.37a.85.85,0,0,0,.78.51.8.8,0,0,0,.34-.07.85.85,0,1,0-1.12-.44m1.47-10A.85.85,0,1,0,98.58,45a.83.83,0,0,0,.34-.07.85.85,0,0,0,.44-1.12M96.21,86.6a.85.85,0,0,0,1.56-.69.85.85,0,1,0-1.56.69m-.09-9.37a.85.85,0,0,0,.78.51.83.83,0,0,0,.34-.07.85.85,0,1,0-1.12-.44M96,67.87a.85.85,0,0,0,.78.51.83.83,0,0,0,.34-.07A.85.85,0,1,0,96,67.87m-.09-9.37a.86.86,0,0,0,.78.52.87.87,0,0,0,.78-1.2.86.86,0,0,0-1.12-.44.84.84,0,0,0-.44,1.12m-.09-9.36a.84.84,0,0,0,.78.51.83.83,0,0,0,.34-.07.86.86,0,0,0,.44-1.12.85.85,0,1,0-1.56.68M94.17,81.91a.85.85,0,0,0,.78.52.88.88,0,0,0,.34-.08.85.85,0,1,0-1.12-.44m-.1-9.36a.85.85,0,0,0,.78.51.8.8,0,0,0,.34-.07.85.85,0,1,0-1.12-.44m1.47-10a.85.85,0,0,0-1.56.68.85.85,0,0,0,.78.51.87.87,0,0,0,.35-.07.85.85,0,0,0,.43-1.12M92.21,86.6a.83.83,0,0,0,1.12.43.84.84,0,0,0,.44-1.12.85.85,0,1,0-1.56.69m-1.95,4.68a.85.85,0,0,0,.78.51.83.83,0,0,0,.34-.07.85.85,0,0,0-.68-1.56.84.84,0,0,0-.44,1.12M88.3,96a.86.86,0,0,0,.78.51.87.87,0,0,0,.35-.07A.85.85,0,1,0,88.3,96m-2-4.68a.85.85,0,0,0,.78.51.83.83,0,0,0,.34-.07.85.85,0,0,0-.68-1.56.84.84,0,0,0-.44,1.12M84.3,96a.86.86,0,0,0,.78.51.8.8,0,0,0,.34-.07A.85.85,0,1,0,84.3,96m-4,0a.86.86,0,0,0,.78.51.87.87,0,0,0,.35-.07A.85.85,0,1,0,80.3,96m-2,4.68a.85.85,0,0,0,.78.51.83.83,0,0,0,.34-.07.85.85,0,1,0-1.12-.44M76.3,96a.86.86,0,0,0,.78.51.84.84,0,0,0,.35-.07A.85.85,0,1,0,76.3,96m-2,4.68a.85.85,0,0,0,.78.51.8.8,0,0,0,.34-.07.85.85,0,1,0-1.12-.44M72.3,96a.87.87,0,0,0,.78.51.85.85,0,0,0,.79-1.19A.86.86,0,0,0,72.3,96m-2,4.68a.85.85,0,0,0,.78.51.8.8,0,0,0,.34-.07.85.85,0,1,0-1.12-.44m-1.95,4.68a.85.85,0,0,0,.78.51.83.83,0,0,0,.34-.07.85.85,0,1,0-1.12-.44M68.3,96a.86.86,0,0,0,.78.51.84.84,0,0,0,.35-.07.86.86,0,0,0,.44-1.12A.86.86,0,0,0,68.3,96m-2,4.68a.85.85,0,0,0,.78.51.8.8,0,0,0,.34-.07.85.85,0,1,0-1.12-.44m-1.95,4.68a.85.85,0,0,0,.78.51.83.83,0,0,0,.34-.07.85.85,0,1,0-1.12-.44M64.31,96a.85.85,0,0,0,.78.51.83.83,0,0,0,.34-.07A.85.85,0,1,0,64.31,96m-1.87,14a.85.85,0,0,0,.78.52,1,1,0,0,0,.34-.07.86.86,0,1,0-1.12-.45m-.09-9.36a.85.85,0,0,0,.78.51.8.8,0,0,0,.34-.07.85.85,0,1,0-1.12-.44m-1.86,14a.85.85,0,0,0,.78.51,1,1,0,0,0,.34-.07.86.86,0,1,0-1.12-.44m-.09-9.37a.85.85,0,0,0,.78.51.83.83,0,0,0,.34-.07.85.85,0,1,0-1.12-.44M60.31,96a.85.85,0,0,0,.78.51.83.83,0,0,0,.34-.07.86.86,0,0,0,.44-1.12.85.85,0,1,0-1.56.68m-1.78,23.41a.86.86,0,0,0,.78.51.87.87,0,0,0,.35-.07.86.86,0,0,0,.44-1.12.86.86,0,0,0-1.57.68M58.44,110a.86.86,0,0,0,.79.52,1,1,0,0,0,.34-.07.86.86,0,1,0-1.13-.45m-.09-9.36a.85.85,0,0,0,.78.51.8.8,0,0,0,.34-.07.85.85,0,1,0-1.12-.44m-.09-9.36a.85.85,0,0,0,.78.51.8.8,0,0,0,.34-.07.85.85,0,1,0-1.12-.44m-1.68,32.77a.85.85,0,0,0,.78.51.8.8,0,0,0,.34-.07.85.85,0,1,0-1.12-.44m-.09-9.36a.85.85,0,0,0,.78.51,1,1,0,0,0,.34-.07.86.86,0,1,0-1.12-.44m-.09-9.37a.85.85,0,0,0,.78.51.83.83,0,0,0,.34-.07.85.85,0,1,0-1.12-.44M56.31,96a.85.85,0,0,0,.78.51.83.83,0,0,0,.34-.07A.85.85,0,1,0,56.31,96m1.47-10a.86.86,0,1,0-.78,1.2.84.84,0,0,0,.34-.08.86.86,0,0,0,.44-1.12m-3.16,42.82a.86.86,0,0,0,.79.51.83.83,0,0,0,.34-.07.85.85,0,1,0-1.13-.44m-.08-9.36a.83.83,0,0,0,.77.51.87.87,0,0,0,.35-.07.86.86,0,0,0,.44-1.12.85.85,0,1,0-1.56.68m-.1-9.37a.85.85,0,0,0,.78.52,1.09,1.09,0,0,0,.35-.07.86.86,0,1,0-1.13-.45m-.09-9.36a.86.86,0,0,0,.78.51.87.87,0,0,0,.35-.07.85.85,0,1,0-.69-1.56.85.85,0,0,0-.44,1.12m-.09-9.36a.85.85,0,0,0,.78.51.8.8,0,0,0,.34-.07.85.85,0,1,0-1.12-.44m1.47-10a.85.85,0,1,0-.78,1.2.81.81,0,0,0,.34-.08.85.85,0,0,0,.44-1.12m-3.15,42.82a.85.85,0,0,0,.78.51.8.8,0,0,0,.34-.07.85.85,0,1,0-1.12-.44m-1.95,4.68a.85.85,0,0,0,.78.51.83.83,0,0,0,.34-.07.85.85,0,1,0-1.12-.44m-2,4.68a.87.87,0,0,0,.78.52.81.81,0,0,0,.34-.08.85.85,0,1,0-1.12-.44m-2,4.69a.85.85,0,0,0,1.56-.69.86.86,0,0,0-1.12-.44.85.85,0,0,0-.44,1.13m-2-4.69a.87.87,0,0,0,.78.52.81.81,0,0,0,.34-.08.85.85,0,1,0-1.12-.44m-2,4.69a.85.85,0,0,0,1.56-.69.85.85,0,1,0-1.56.69m-4,0a.85.85,0,0,0,1.56-.69.85.85,0,1,0-1.56.69m-4,0a.85.85,0,0,0,1.56-.69.85.85,0,1,0-1.56.69m-2,4.68a.87.87,0,0,0,.79.51.83.83,0,0,0,.34-.07.85.85,0,1,0-1.13-.44m-2-4.68a.85.85,0,0,0,1.56-.69.85.85,0,1,0-1.56.69m-1.95,4.68a.85.85,0,0,0,.78.51.83.83,0,0,0,.34-.07.86.86,0,0,0,.44-1.13.85.85,0,0,0-1.56.69m-2.05-4.68a.83.83,0,0,0,1.12.43.84.84,0,0,0,.44-1.12.85.85,0,1,0-1.56.69m-2,4.68a.87.87,0,0,0,.79.51.83.83,0,0,0,.34-.07.86.86,0,0,0,.44-1.13.85.85,0,0,0-1.12-.43.86.86,0,0,0-.45,1.12m-2-4.68a.85.85,0,0,0,.78.51.81.81,0,0,0,.34-.08.85.85,0,0,0,.44-1.12.85.85,0,1,0-1.56.69m-1.95,4.68a.85.85,0,0,0,.78.51.83.83,0,0,0,.34-.07.86.86,0,0,0,.44-1.13.85.85,0,0,0-1.56.69m-.09-9.37a.86.86,0,0,0,.78.52.86.86,0,1,0-.78-.52m-2,4.69a.85.85,0,0,0,.78.51.89.89,0,0,0,.35-.08.84.84,0,0,0,.43-1.12.85.85,0,1,0-1.56.69m-2-4.69a.86.86,0,0,0,.78.52.86.86,0,1,0-.78-.52m-2,4.69a.86.86,0,0,0,.78.51.81.81,0,0,0,.34-.08.85.85,0,0,0,.45-1.12.87.87,0,0,0-1.13-.44.86.86,0,0,0-.44,1.13m-.09-9.37a.85.85,0,0,0,.78.51.8.8,0,0,0,.34-.07.85.85,0,1,0-1.12-.44m-2,4.68a.86.86,0,0,0,.78.52.86.86,0,1,0-.78-.52m-.09-9.36a.85.85,0,0,0,.78.51.83.83,0,0,0,.34-.07.85.85,0,1,0-1.12-.44m-6.35,8.68a.87.87,0,1,0-.44,1.12.85.85,0,0,0,.44-1.12M8,109.32a.86.86,0,0,0-1.12-.44A.85.85,0,0,0,6.45,110a.84.84,0,0,0,.78.52,1,1,0,0,0,.34-.07A.86.86,0,0,0,8,109.32m.09,9.37A.84.84,0,0,0,7,118.25a.85.85,0,0,0,.34,1.63.8.8,0,0,0,.34-.07.84.84,0,0,0,.44-1.12m.09,9.36a.85.85,0,1,0-.78,1.19.8.8,0,0,0,.34-.07.84.84,0,0,0,.44-1.12m.1,9.36a.86.86,0,1,0-1.57.69.86.86,0,0,0,1.57-.69M10,104.64a.86.86,0,0,0-1.13-.44.85.85,0,0,0-.43,1.12.85.85,0,0,0,1.12.44.85.85,0,0,0,.44-1.12m.09,9.36a.87.87,0,0,0-1.13-.44.86.86,0,0,0-.43,1.13.85.85,0,0,0,.78.51,1,1,0,0,0,.34-.07.86.86,0,0,0,.44-1.13m.09,9.37a.85.85,0,1,0-.78,1.19.83.83,0,0,0,.34-.07.85.85,0,0,0,.44-1.12m.09,9.36a.87.87,0,1,0-.44,1.12.85.85,0,0,0,.44-1.12M11.92,100a.85.85,0,1,0-.78,1.19.8.8,0,0,0,.34-.07.85.85,0,0,0,.44-1.12m.09,9.36a.86.86,0,0,0-1.12-.44.85.85,0,0,0-.44,1.12.84.84,0,0,0,.78.52,1,1,0,0,0,.34-.07.86.86,0,0,0,.44-1.13m.09,9.37a.85.85,0,1,0-1.56.68.85.85,0,0,0,.78.51.83.83,0,0,0,.34-.07.84.84,0,0,0,.44-1.12m.09,9.36a.85.85,0,1,0-.78,1.19.8.8,0,0,0,.34-.07.84.84,0,0,0,.44-1.12m.09,9.36a.85.85,0,1,0-.78,1.2.89.89,0,0,0,.35-.08.84.84,0,0,0,.43-1.12M14,104.64a.86.86,0,1,0-.79,1.19.84.84,0,0,0,.35-.07.86.86,0,0,0,.44-1.12M15.92,100a.85.85,0,1,0-.78,1.19.83.83,0,0,0,.34-.07.85.85,0,0,0,.44-1.12m2-4.68a.86.86,0,1,0-.79,1.19.87.87,0,0,0,.35-.07.86.86,0,0,0,.44-1.12m4,0a.85.85,0,0,0-1.12-.44A.86.86,0,0,0,20.31,96a.85.85,0,0,0,.78.51.87.87,0,0,0,.35-.07.85.85,0,0,0,.43-1.12m2-4.68a.85.85,0,1,0-.78,1.19.83.83,0,0,0,.34-.07.85.85,0,0,0,.44-1.12m2,4.68a.85.85,0,1,0-.78,1.19.8.8,0,0,0,.34-.07.84.84,0,0,0,.44-1.12m2-4.68a.85.85,0,1,0-.78,1.19.83.83,0,0,0,.34-.07.85.85,0,0,0,.44-1.12m4,0a.85.85,0,1,0-.78,1.19.83.83,0,0,0,.34-.07.85.85,0,0,0,.44-1.12m4,0a.85.85,0,1,0-.78,1.19.83.83,0,0,0,.34-.07.86.86,0,0,0,.44-1.12m2-4.69a.85.85,0,1,0-1.56.69.85.85,0,0,0,1.56-.69M21,103.73a16.69,16.69,0,1,1-4.89,11.81A16.65,16.65,0,0,1,21,103.73m16.83-8.45a.85.85,0,1,0-1.56.68,1,1,0,0,0,.21.24,21.17,21.17,0,0,0-2.63-.3.79.79,0,0,0,0-.62.85.85,0,0,0-1.12-.44.84.84,0,0,0-.45,1,19.5,19.5,0,0,0-2.53.23.8.8,0,0,0,.1-.83.85.85,0,0,0-1.56.68.8.8,0,0,0,.32.36,19.72,19.72,0,0,0-8.82,4.48.82.82,0,0,0,.11-.84.85.85,0,1,0-.78,1.19.83.83,0,0,0,.34-.07,1.25,1.25,0,0,0,.12-.08c-.23.2-.47.39-.68.61a19.93,19.93,0,0,0-2.26,2.71.84.84,0,0,0-.27.4,19.31,19.31,0,0,0-3.13,8.77.74.74,0,0,0-.32.07.85.85,0,0,0-.44,1.13.83.83,0,0,0,.67.47c0,.13,0,.25,0,.38a19.6,19.6,0,0,0,11.57,17.91.85.85,0,0,0,.74.48.6.6,0,0,0,.23-.06,19.55,19.55,0,0,0,15.09-.34.85.85,0,0,0,.68.4.88.88,0,0,0,.34-.08.86.86,0,0,0,.46-1,19.28,19.28,0,0,0,4.5-3.36c.11-.1.2-.22.3-.33a.76.76,0,0,0,.35.11.83.83,0,0,0,.34-.07.85.85,0,0,0,.44-1.12.33.33,0,0,0-.06-.1,19.66,19.66,0,0,0,4.35-13.34s0,0,0,.08a.85.85,0,0,0,.78.51,1,1,0,0,0,.34-.07.86.86,0,0,0-.68-1.57.81.81,0,0,0-.47.61,19.68,19.68,0,0,0-.66-3.88.86.86,0,0,0,.21-1,.81.81,0,0,0-.68-.49,19.38,19.38,0,0,0-1.54-3.26.82.82,0,0,0,.17-.93.85.85,0,0,0-1.06-.46,19.06,19.06,0,0,0-2.14-2.57,19.51,19.51,0,0,0-9.37-5.2h0a.84.84,0,0,0,.44-1.12M54,104.64a.85.85,0,1,0-.78,1.19.83.83,0,0,0,.34-.07.85.85,0,0,0,.44-1.12m-14.13-14a.86.86,0,0,0-1.57.68.87.87,0,0,0,.79.51.78.78,0,0,0,.33-.07.85.85,0,0,0,.45-1.12m2-4.69a.85.85,0,1,0-1.56.69.85.85,0,0,0,1.56-.69m.09,9.37a.85.85,0,1,0-.78,1.19.83.83,0,0,0,.34-.07.85.85,0,0,0,.44-1.12m1.86-14a.85.85,0,1,0-1.56.68.87.87,0,0,0,.78.52.81.81,0,0,0,.34-.08.85.85,0,0,0,.44-1.12m.1,9.37a.86.86,0,0,0-1.57.68.86.86,0,0,0,.79.51.83.83,0,0,0,.34-.07.86.86,0,0,0,.44-1.12m1.86-14a.85.85,0,1,0-.78,1.19.83.83,0,0,0,.34-.07.85.85,0,0,0,.44-1.12m.09,9.36a.86.86,0,0,0-1.12-.44.85.85,0,1,0,1.12.44m.09,9.37a.85.85,0,1,0-.78,1.19.83.83,0,0,0,.34-.07.85.85,0,0,0,.44-1.12m1.77-23.41a.85.85,0,1,0-.78,1.19A.8.8,0,0,0,47.2,73a.85.85,0,0,0,.44-1.12m.09,9.36a.85.85,0,1,0-1.56.68.87.87,0,0,0,.78.52.81.81,0,0,0,.34-.08.84.84,0,0,0,.44-1.12m.09,9.37a.85.85,0,1,0-1.56.68.86.86,0,0,0,.78.51.8.8,0,0,0,.34-.07.84.84,0,0,0,.44-1.12m.1,9.36a.86.86,0,1,0-.79,1.19.84.84,0,0,0,.35-.07.86.86,0,0,0,.44-1.12M49.6,67.19a.85.85,0,0,0-1.13-.44.85.85,0,0,0,.35,1.63.83.83,0,0,0,.34-.07.85.85,0,0,0,.44-1.12m.09,9.36a.86.86,0,0,0-1.13-.44.85.85,0,0,0,.35,1.63.83.83,0,0,0,.34-.07.85.85,0,0,0,.44-1.12m.09,9.36a.85.85,0,1,0-1.56.69.85.85,0,0,0,1.56-.69m.09,9.37a.85.85,0,1,0-.78,1.19.83.83,0,0,0,.34-.07.85.85,0,0,0,.44-1.12m1.68-32.77a.85.85,0,1,0-.78,1.19.83.83,0,0,0,.34-.07.85.85,0,0,0,.44-1.12m.09,9.36a.85.85,0,1,0-.78,1.19A.8.8,0,0,0,51.2,73a.85.85,0,0,0,.44-1.12m.09,9.36a.85.85,0,1,0-1.56.68.87.87,0,0,0,.78.52.81.81,0,0,0,.34-.08.85.85,0,0,0,.44-1.12m.09,9.37a.85.85,0,1,0-1.56.68.86.86,0,0,0,.78.51.8.8,0,0,0,.34-.07.84.84,0,0,0,.44-1.12m.09,9.36a.84.84,0,0,0-1.12-.44.86.86,0,0,0-.44,1.12.85.85,0,0,0,.78.51.8.8,0,0,0,.34-.07.84.84,0,0,0,.44-1.12M53.6,67.19a.85.85,0,1,0-1.56.68.84.84,0,0,0,.78.51.83.83,0,0,0,.34-.07.86.86,0,0,0,.44-1.12m.09,9.36a.85.85,0,1,0-.44,1.12.85.85,0,0,0,.44-1.12m.09,9.36a.86.86,0,0,0-1.12-.44.85.85,0,1,0,1.12.44m.09,9.37a.85.85,0,1,0-.78,1.19.83.83,0,0,0,.34-.07.85.85,0,0,0,.44-1.12m1.68-32.77a.85.85,0,1,0-.78,1.19.83.83,0,0,0,.34-.07.85.85,0,0,0,.44-1.12m2-4.69a.85.85,0,1,0-1.56.68.87.87,0,0,0,.78.52.89.89,0,0,0,.35-.08.84.84,0,0,0,.43-1.12m2-4.68a.85.85,0,1,0-.78,1.19.83.83,0,0,0,.34-.07.85.85,0,0,0,.44-1.12m2,4.68a.86.86,0,0,0-1.12-.44A.86.86,0,0,0,60.72,59a.81.81,0,0,0,.34-.08.84.84,0,0,0,.44-1.12m2-4.68a.85.85,0,1,0-.78,1.19.83.83,0,0,0,.34-.07.85.85,0,0,0,.44-1.12m4,0a.85.85,0,1,0-.78,1.19.83.83,0,0,0,.34-.07.85.85,0,0,0,.44-1.12m2-4.68a.85.85,0,1,0-.78,1.19.8.8,0,0,0,.34-.07.85.85,0,0,0,.44-1.12m2,4.68a.86.86,0,0,0-1.13-.44.85.85,0,0,0,.35,1.63.83.83,0,0,0,.34-.07.85.85,0,0,0,.44-1.12m2-4.68a.85.85,0,1,0-.78,1.19.8.8,0,0,0,.34-.07.85.85,0,0,0,.44-1.12m2,4.68a.86.86,0,0,0-1.13-.44.85.85,0,0,0,.35,1.63.83.83,0,0,0,.34-.07.85.85,0,0,0,.44-1.12m2-4.68a.85.85,0,1,0-.78,1.19.83.83,0,0,0,.34-.07.85.85,0,0,0,.44-1.12m2-4.68A.85.85,0,1,0,78.58,45a.87.87,0,0,0,.35-.07.85.85,0,0,0,.43-1.12m.1,9.36a.86.86,0,1,0-.78,1.19.83.83,0,0,0,.34-.07.86.86,0,0,0,.44-1.12m2-4.68a.85.85,0,1,0-.78,1.19.83.83,0,0,0,.34-.07.85.85,0,0,0,.44-1.12m2-4.68A.85.85,0,1,0,82.58,45a.8.8,0,0,0,.34-.07.84.84,0,0,0,.44-1.12m.1,9.36a.86.86,0,1,0-.79,1.19.84.84,0,0,0,.35-.07.86.86,0,0,0,.44-1.12m1.86-14a.85.85,0,1,0-.78,1.19.83.83,0,0,0,.34-.07.85.85,0,0,0,.44-1.12m.09,9.36a.85.85,0,1,0-.78,1.19.83.83,0,0,0,.34-.07.85.85,0,0,0,.44-1.12m-11.1,8.91a16.7,16.7,0,1,1-11.8,4.89,16.62,16.62,0,0,1,11.8-4.89m11.21.51s0,0,0-.06a.84.84,0,0,0-.84-.5,19.66,19.66,0,0,0-24.27,2.82A18.82,18.82,0,0,0,58.77,62a.84.84,0,0,0-.34.08.83.83,0,0,0-.46,1,19.41,19.41,0,0,0-3.14,8.28.7.7,0,0,0-.31.07.85.85,0,0,0-.44,1.12.82.82,0,0,0,.59.45c0,.35-.05.71-.05,1.06A19.58,19.58,0,0,0,60.39,88a21.14,21.14,0,0,0,2.54,2.12.68.68,0,0,0-.23,0A.85.85,0,0,0,63,91.79a.8.8,0,0,0,.34-.07.84.84,0,0,0,.47-1,19.65,19.65,0,0,0,19.07,1,.56.56,0,0,0,.12,0,.83.83,0,0,0,.34-.07.86.86,0,0,0,.42-.42A19.75,19.75,0,0,0,88.24,88c.28-.29.54-.6.8-.9a.72.72,0,0,0,.29-.06.84.84,0,0,0,.5-.87,19.73,19.73,0,0,0,3.31-17.85h0a.85.85,0,0,0,.44-1.12.83.83,0,0,0-1-.47A19.75,19.75,0,0,0,91,63.65l.09,0a.85.85,0,1,0-.68-1.56.8.8,0,0,0-.32.26,18.51,18.51,0,0,0-4.58-4.45m1.75-23.47a.85.85,0,1,0-.78,1.2.8.8,0,0,0,.34-.07.86.86,0,0,0,.44-1.13m.09,9.37A.85.85,0,1,0,86.58,45a.87.87,0,0,0,.35-.07.85.85,0,0,0,.43-1.12m.09,9.36a.85.85,0,0,0-1.12-.44.86.86,0,0,0-.44,1.12.85.85,0,0,0,.78.51.8.8,0,0,0,.34-.07.84.84,0,0,0,.44-1.12m1.78-23.41a.86.86,0,1,0-.79,1.2.89.89,0,0,0,.35-.08.86.86,0,0,0,.44-1.12m.09,9.37a.85.85,0,0,0-1.13-.44.86.86,0,0,0-.44,1.12.87.87,0,0,0,.79.51.83.83,0,0,0,.34-.07.85.85,0,0,0,.44-1.12m.09,9.36a.85.85,0,1,0-.78,1.19.83.83,0,0,0,.34-.07.85.85,0,0,0,.44-1.12m.09,9.36a.86.86,0,0,0-1.12-.44.84.84,0,0,0-.44,1.12.86.86,0,0,0,.78.52.87.87,0,0,0,.78-1.2m1.68-32.77a.85.85,0,1,0-.78,1.19.83.83,0,0,0,.34-.07.85.85,0,0,0,.44-1.12m.09,9.36a.85.85,0,1,0-.78,1.2.8.8,0,0,0,.34-.07.86.86,0,0,0,.44-1.13m.09,9.37A.85.85,0,1,0,90.58,45a.8.8,0,0,0,.34-.07.85.85,0,0,0,.44-1.12m.09,9.36a.85.85,0,1,0-.78,1.19.8.8,0,0,0,.34-.07.84.84,0,0,0,.44-1.12m1.69-32.77A.86.86,0,0,0,92,19.93a.85.85,0,0,0,.34,1.63.8.8,0,0,0,.34-.07.86.86,0,0,0,.45-1.12m.09,9.36a.85.85,0,1,0-1.56.69.83.83,0,0,0,.77.51.89.89,0,0,0,.35-.08.85.85,0,0,0,.44-1.12m.09,9.37a.85.85,0,1,0-1.56.68.84.84,0,0,0,.78.51.83.83,0,0,0,.34-.07.86.86,0,0,0,.44-1.12m.09,9.36a.85.85,0,1,0-.78,1.19.83.83,0,0,0,.34-.07.85.85,0,0,0,.44-1.12m.09,9.36a.86.86,0,0,0-1.12-.44.85.85,0,1,0,1.12.44m1.68-32.77a.85.85,0,1,0-.78,1.19.83.83,0,0,0,.34-.07.85.85,0,0,0,.44-1.12m.09,9.36a.85.85,0,1,0-.78,1.2.8.8,0,0,0,.34-.07.86.86,0,0,0,.44-1.13m.09,9.37A.85.85,0,1,0,94.58,45a.83.83,0,0,0,.34-.07.85.85,0,0,0,.44-1.12m.09,9.36a.85.85,0,1,0-.78,1.19.8.8,0,0,0,.34-.07.85.85,0,0,0,.44-1.12m1.69-32.77a.86.86,0,1,0-.79,1.19.87.87,0,0,0,.35-.07.86.86,0,0,0,.44-1.12m2-4.68a.85.85,0,1,0-.78,1.19.83.83,0,0,0,.34-.07.85.85,0,0,0,.44-1.12M101,11a.85.85,0,1,0-.78,1.19.87.87,0,0,0,.35-.07A.85.85,0,0,0,101,11m2,4.68a.85.85,0,1,0-.78,1.19.83.83,0,0,0,.34-.07.85.85,0,0,0,.44-1.12M105,11a.85.85,0,1,0-.78,1.19.8.8,0,0,0,.34-.07A.85.85,0,0,0,105,11m4,0a.85.85,0,1,0-.78,1.2,1,1,0,0,0,.34-.07A.86.86,0,0,0,109,11m4,0a.85.85,0,1,0-.78,1.19.83.83,0,0,0,.34-.07A.85.85,0,0,0,113,11m2-4.69a.87.87,0,0,0-1.13-.44.86.86,0,0,0,.34,1.64.89.89,0,0,0,.35-.08A.86.86,0,0,0,115,6.32M117,11a.85.85,0,1,0-.78,1.2,1,1,0,0,0,.34-.07A.86.86,0,0,0,117,11M119,6.32a.85.85,0,0,0-1.56.68.84.84,0,0,0,.78.52,1,1,0,0,0,.34-.07A.85.85,0,0,0,119,6.32M121,11a.85.85,0,1,0-.78,1.19.83.83,0,0,0,.34-.07A.85.85,0,0,0,121,11m2-4.69a.87.87,0,0,0-1.13-.44A.85.85,0,0,0,121.43,7a.84.84,0,0,0,.78.52,1,1,0,0,0,.34-.07A.86.86,0,0,0,123,6.32M125,11a.85.85,0,1,0-.78,1.19.83.83,0,0,0,.34-.07A.85.85,0,0,0,125,11M127,6.32a.86.86,0,0,0-1.12-.44A.85.85,0,0,0,125.43,7a.84.84,0,0,0,.78.52,1,1,0,0,0,.34-.07A.86.86,0,0,0,127,6.32M129,11a.85.85,0,1,0-.78,1.19.83.83,0,0,0,.34-.07A.85.85,0,0,0,129,11m2-4.69a.86.86,0,0,0-1.12-.44A.85.85,0,0,0,129.43,7a.84.84,0,0,0,.78.52,1,1,0,0,0,.34-.07A.85.85,0,0,0,131,6.32m.09,9.37a.84.84,0,0,0-1.12-.44.85.85,0,0,0,.34,1.63.8.8,0,0,0,.34-.07.84.84,0,0,0,.44-1.12M133,11a.85.85,0,1,0-.78,1.19.83.83,0,0,0,.34-.07A.85.85,0,0,0,133,11m2-4.69a.86.86,0,0,0-1.12-.44A.85.85,0,0,0,133.43,7a.84.84,0,0,0,.78.52,1,1,0,0,0,.34-.07A.86.86,0,0,0,135,6.32m.09,9.37a.85.85,0,1,0-.78,1.19.8.8,0,0,0,.34-.07.84.84,0,0,0,.44-1.12m-7.49,28.7a16.7,16.7,0,1,1,0-23.61,16.7,16.7,0,0,1,0,23.61m7.58-19.34a.84.84,0,0,0-1.12-.44.62.62,0,0,0-.21.15,19,19,0,0,0-1.82-3.3.79.79,0,0,0,.33.1.83.83,0,0,0,.34-.07.85.85,0,1,0-1.18-.72,19.71,19.71,0,0,0-1.8-2.11A20,20,0,0,0,127,16.44a.83.83,0,0,0,0-.75.84.84,0,0,0-1.12-.44.87.87,0,0,0-.34.29,19.59,19.59,0,0,0-9.83-2.65h0a19.61,19.61,0,0,0-9.28,2.32.84.84,0,0,0-.54,0,.82.82,0,0,0-.47.56,19.82,19.82,0,0,0-3.63,2.85c-.41.41-.8.84-1.16,1.28a.82.82,0,0,0-.7,0,.85.85,0,0,0-.44,1.12,1.22,1.22,0,0,0,.15.17,19.62,19.62,0,0,0-3.32,8,.82.82,0,0,0-.3.07.86.86,0,0,0-.44,1.13.8.8,0,0,0,.52.43c-.05.57-.08,1.15-.08,1.74a19.64,19.64,0,0,0,1,6.22.87.87,0,0,0-.93-.15.86.86,0,0,0-.44,1.12.87.87,0,0,0,.79.51.86.86,0,0,0,.34-.07.87.87,0,0,0,.5-.69,19.41,19.41,0,0,0,4.49,7A20.51,20.51,0,0,0,104,48.3a.84.84,0,0,0,.68,1.35.79.79,0,0,0,.7-.4,19.66,19.66,0,0,0,29.07-23,.72.72,0,0,0,.33-.06.84.84,0,0,0,.44-1.12M137,11a.85.85,0,1,0-.44,1.12A.85.85,0,0,0,137,11m.09,9.36a.85.85,0,1,0-.78,1.19.83.83,0,0,0,.34-.07.85.85,0,0,0,.44-1.12m.09,9.36a.87.87,0,1,0-.44,1.12.85.85,0,0,0,.44-1.12m.09,9.37a.85.85,0,1,0-.78,1.19.83.83,0,0,0,.34-.07.85.85,0,0,0,.44-1.12M139,6.32a.86.86,0,0,0-1.12-.44A.85.85,0,0,0,137.43,7a.84.84,0,0,0,.78.52,1,1,0,0,0,.34-.07A.86.86,0,0,0,139,6.32m.09,9.37a.85.85,0,1,0-.78,1.19.8.8,0,0,0,.34-.07.85.85,0,0,0,.44-1.12m.09,9.36a.85.85,0,1,0-.78,1.19.83.83,0,0,0,.34-.07.84.84,0,0,0,.44-1.12m.1,9.36a.85.85,0,0,0-1.13-.43.84.84,0,0,0-.44,1.12.86.86,0,1,0,1.57-.69m.08,9.37a.85.85,0,0,0-1.56.68.86.86,0,0,0,.78.51.87.87,0,0,0,.35-.07.85.85,0,0,0,.43-1.12m.12-32.09a.86.86,0,0,0,.78.51.84.84,0,0,0,.35-.07A.86.86,0,0,0,141,11a.86.86,0,0,0-1.57.68M124.32,4.83a126.6,126.6,0,0,0,15.14-1.39,92.65,92.65,0,0,1,2.95,11.75.88.88,0,0,0-.45.06.85.85,0,0,0,.34,1.63.8.8,0,0,0,.34-.07l.05,0a61.45,61.45,0,0,1,.52,17.56.84.84,0,0,0-1.07-.35.85.85,0,0,0,.34,1.63.8.8,0,0,0,.34-.07,1.53,1.53,0,0,0,.21-.14c-.13.82-.25,1.66-.42,2.45a27.61,27.61,0,0,1-3.93,9.95c-.14.23-.29.45-.45.69a25.81,25.81,0,0,1-3.07,3.75l-.24.24-.18.16a.88.88,0,0,0-.42.06.8.8,0,0,0-.49.75,27.35,27.35,0,0,1-8.42,5.18.81.81,0,0,0,.08-.81.85.85,0,1,0-1.56.68.87.87,0,0,0,.6.46c-.35.12-.67.28-1,.38a30.69,30.69,0,0,0-8,3.08.84.84,0,0,0-1.07-.35.85.85,0,0,0-.44,1.12s.06.05.08.08a30.31,30.31,0,0,0-4.68,3.62.86.86,0,0,0-1.36,1,1.12,1.12,0,0,0,.18.2,30.77,30.77,0,0,0-7.19,13,27.66,27.66,0,0,1-2.87,6.84l-.25.43c-.45.73-1,1.47-1.49,2.19l-.18.25-.24.32c-.1.13-.2.24-.3.36a.84.84,0,1,0-.64.3.83.83,0,0,0,.34-.07.88.88,0,0,0,.27-.19c-.63.76-1.23,1.45-1.84,2.06l-.24.24A29.05,29.05,0,0,1,91.13,96l-.32.24-.26.18c-.72.54-1.45,1-2.18,1.49l-.43.25a28.27,28.27,0,0,1-4,1.93.35.35,0,0,0,0-.11.85.85,0,0,0-1.56.67c-.42.13-.83.27-1.26.38a31.3,31.3,0,0,0-7.61,3.17.86.86,0,0,0-.65,0,.82.82,0,0,0-.48.67,30,30,0,0,0-4.92,3.92l-.05,0a.87.87,0,0,0-.5,0,.83.83,0,0,0-.46,1,30.9,30.9,0,0,0-7.08,13.63,27.41,27.41,0,0,1-5.07,9.39.47.47,0,0,0,0-.17.85.85,0,1,0-.85,1.17c-.32.35-.6.72-.93,1l-.22.22a24.84,24.84,0,0,1-3.75,3.06l-.72.48a27.61,27.61,0,0,1-6.12,2.89,1,1,0,0,0-.44.06.81.81,0,0,0-.24.17c-.84.25-1.7.47-2.57.65a.76.76,0,0,0-.06-.39.85.85,0,0,0-1.56.69h0a57.06,57.06,0,0,1-18.55.12.83.83,0,0,0,.09-.82.85.85,0,0,0-1.12-.43.82.82,0,0,0-.45,1c-.79-.12-1.59-.28-2.39-.43a.47.47,0,0,0,0-.17.85.85,0,0,0-1.12-.43.86.86,0,0,0-.36.32,96.27,96.27,0,0,1-9.42-2.51c0-.3.08-.59.13-.88a.75.75,0,0,0,.29-.06.84.84,0,0,0,.43-1.12A.81.81,0,0,0,3.8,137c.58-4.27.82-8.5,1-12.62h0a.79.79,0,0,0,.54.24.83.83,0,0,0,.34-.07A.85.85,0,0,0,5,122.93a.6.6,0,0,0-.13.09c.11-2.22.23-4.37.42-6.47v-.18c0-.4,0-.79,0-1.18a1.4,1.4,0,0,0,.28-.06A.86.86,0,0,0,6.06,114a.84.84,0,0,0-.65-.49,27.94,27.94,0,0,1,5.14-14.19l.3-.42A24.1,24.1,0,0,1,13,96.42c.05,0,.09,0,.14,0a.87.87,0,0,0,.35-.07.85.85,0,0,0,.49-.92,26.67,26.67,0,0,1,4.92-3.75c.07,0,.13.06.2.06a.83.83,0,0,0,.34-.07.88.88,0,0,0,.47-.53,28.59,28.59,0,0,1,5.73-2.34,30.34,30.34,0,0,0,6.58-2.53.87.87,0,0,0,0,.28.85.85,0,0,0,1.56-.69.79.79,0,0,0-.27-.33,30.5,30.5,0,0,0,4.83-3.48.84.84,0,0,0,.62.33.88.88,0,0,0,.34-.08.86.86,0,0,0,.44-1.12.81.81,0,0,0-.18-.26l0,0a30.3,30.3,0,0,0,7.67-13.27,27.91,27.91,0,0,1,2.9-7.12l.07-.11a28.56,28.56,0,0,1,1.68-2.54.91.91,0,0,0,0,.61.86.86,0,0,0,.78.52.81.81,0,0,0,.34-.08.84.84,0,0,0,.44-1.12.86.86,0,0,0-1.12-.44,1,1,0,0,0-.17.12l.08-.11a25.7,25.7,0,0,1,2.27-2.59l.24-.25a29.69,29.69,0,0,1,2.58-2.25l.3-.22.2-.15a27.54,27.54,0,0,1,2.65-1.75l.17-.1a27.45,27.45,0,0,1,3.13-1.53.86.86,0,0,0,0,.59.85.85,0,0,0,.78.51.8.8,0,0,0,.34-.07.85.85,0,0,0,.44-1.12.84.84,0,0,0-.34-.38c.86-.31,1.73-.59,2.63-.82A31,31,0,0,0,74,44.7a.85.85,0,0,0,.58.27.83.83,0,0,0,.34-.07.84.84,0,0,0,.47-1,30.58,30.58,0,0,0,4.88-3.7.87.87,0,0,0,.26.08.83.83,0,0,0,.34-.07.85.85,0,0,0,.46-1.06,30.58,30.58,0,0,0,7.5-13.54,27.75,27.75,0,0,1,4.66-9.41.9.9,0,0,0,0,.16.85.85,0,0,0,.78.51.83.83,0,0,0,.34-.07.85.85,0,0,0,.44-1.12.81.81,0,0,0-.71-.5c.5-.6,1-1.2,1.54-1.76l.23-.23a23.42,23.42,0,0,1,2.75-2.35l.5-.36a27.55,27.55,0,0,1,6.19-3.32.8.8,0,0,0,.62.35.88.88,0,0,0,.86-.86,28.37,28.37,0,0,1,2.74-.74A.86.86,0,0,0,109.43,7a.87.87,0,0,0,.79.52,1.09,1.09,0,0,0,.34-.07A.86.86,0,0,0,111,6.32a.83.83,0,0,0-.67-.49,27.14,27.14,0,0,1,6-.5h.18c2.52-.23,5.07-.36,7.77-.49M141.9,1.24,141.48,0l-1.29.25a111.68,111.68,0,0,1-16,1.58c-2.7.14-5.26.27-7.8.49A31,31,0,0,0,97.67,8l-.17.12.86,1.23-.87-1.23-.36.27A26,26,0,0,0,94,11.1l-.24.24A30.3,30.3,0,0,0,86,24.85a27.94,27.94,0,0,1-7.13,12.62,27.3,27.3,0,0,1-11.89,6.89A30.53,30.53,0,0,0,59,47.58l-.18.1a32.27,32.27,0,0,0-2.76,1.84l-.17.12-.38.29a28.91,28.91,0,0,0-2.87,2.51l-.24.24a30.43,30.43,0,0,0-2.51,2.87l-.27.37-.12.16a31.18,31.18,0,0,0-1.85,2.78l-.3.3v.22a30.73,30.73,0,0,0-3,7.51,27.31,27.31,0,0,1-6.89,11.92A27.92,27.92,0,0,1,24.82,86a30.25,30.25,0,0,0-13.48,7.81l-.26.26a26.28,26.28,0,0,0-2.66,3.12l-.37.5a31,31,0,0,0-5.73,18.72c-.22,2.55-.35,5.1-.49,7.8a113.13,113.13,0,0,1-1.58,16L0,141.48l1.24.42a84.46,84.46,0,0,0,26.47,4.73,50,50,0,0,0,10.68-1.07,30.72,30.72,0,0,0,11-4.35l.74-.49a27.79,27.79,0,0,0,4.19-3.43l.25-.25a30.54,30.54,0,0,0,7.63-12.7l0-.11a26.87,26.87,0,0,1,19.61-20.32,31.22,31.22,0,0,0,7.58-3.17l.48-.29c.81-.5,1.63-1,2.42-1.64l.21-.16c.14-.1.29-.2.43-.32a32.13,32.13,0,0,0,2.72-2.39L96,95.7A30.23,30.23,0,0,0,98.33,93l.32-.43.15-.21a28.75,28.75,0,0,0,1.65-2.42l.28-.47a30.93,30.93,0,0,0,3.18-7.59,27.34,27.34,0,0,1,7-12.3,27.75,27.75,0,0,1,13.34-7.31l.11,0A30.51,30.51,0,0,0,137,54.62l.26-.27a27.54,27.54,0,0,0,3.42-4.18l.53-.8a30.46,30.46,0,0,0,4.31-10.93c2.25-10.3.95-23.51-3.65-37.2"/></g></g></svg>