<svg xmlns="http://www.w3.org/2000/svg" viewBox="0 0 142.73 142.63"><defs><style>.cls-1{fill:#fff;}.cls-2{fill:#d3033b;}</style></defs><g id="Layer_2" data-name="Layer 2"><g id="Ebene_3" data-name="Ebene 3"><path class="cls-1" d="M141.23,140.42V79.84l-.58-.13L85.14,1.5A183.48,183.48,0,0,0,35.35,20.65C12.87,33.36,3.79,45.42,1.89,48.2l-.39-.09v60.58Z"/><path class="cls-2" d="M24.67,80.25l10,22.85a12.62,12.62,0,0,1-2.84.36L22.48,82.1a12.93,12.93,0,0,1,2.19-1.85m-2.8,2.54,9,20.63a12.72,12.72,0,0,1-3.28-.64L20.11,85.64a12.44,12.44,0,0,1,1.76-2.85m-2.86,8a12.6,12.6,0,0,1,.67-4.05l6.82,15.61A12.83,12.83,0,0,1,22,99L19.1,92.27A12.12,12.12,0,0,1,19,90.79m19,11a12.56,12.56,0,0,1-2.51,1.12L25.39,79.81A11.76,11.76,0,0,1,27.9,78.7Zm.72-.43-10-22.86a12.62,12.62,0,0,1,2.84-.36l9.33,21.36a13.47,13.47,0,0,1-2.19,1.86m4.55-5.4a12.76,12.76,0,0,1-1.75,2.85l-9-20.63a12.47,12.47,0,0,1,3.29.65Zm.43-1.1-6.82-15.6a12.68,12.68,0,0,1,4.47,3.36l2.93,6.7a12.29,12.29,0,0,1,.09,1.49,12.6,12.6,0,0,1-.67,4m3.67-4a15.67,15.67,0,1,0-15.67,15.68A15.69,15.69,0,0,0,47.35,90.79M139.73,95a15.5,15.5,0,0,0-4.17-.58,15.68,15.68,0,0,0,0,31.35,15.5,15.5,0,0,0,4.17-.59v14.11L3,108.2V50.7L71.17,66.18a15.42,15.42,0,0,0-1.3,6.19,15.66,15.66,0,0,0,31.31.63l38.55,8.75Zm-59.37-11a12.59,12.59,0,0,1-4.46-3.35L73,73.84a11.84,11.84,0,0,1-.09-1.47,12.54,12.54,0,0,1,.68-4ZM84.74,85a12.32,12.32,0,0,1-3.28-.65L74,67.25c.05-.13.1-.27.16-.39l3,.67Zm3.77-.33a12.14,12.14,0,0,1-2.84.36L78.12,67.76l3.33.76Zm3.33-1.32a13.12,13.12,0,0,1-2.51,1.11L82.46,68.74l3.33.76Zm2.9-2.3a12.12,12.12,0,0,1-2.18,1.86L86.8,69.73l3.33.76Zm2.37-3.53a12.44,12.44,0,0,1-1.76,2.85l-4.21-9.65,3.33.75Zm.43-1.1L95.48,71.7l2.73.62v.05a12.69,12.69,0,0,1-.67,4m40.2,1.78L4,47.84C7.11,43.76,16.43,33.07,36.09,22A186.18,186.18,0,0,1,84.48,3.17Zm-11.38,23.16a12.93,12.93,0,0,1,2.19-1.85l10,22.81a12.07,12.07,0,0,1-2.83.39ZM124,104.9a12.8,12.8,0,0,1,1.76-2.85l9,20.63a12.71,12.71,0,0,1-3.29-.64Zm-1.1,5.15a12.34,12.34,0,0,1,.68-4l6.82,15.61a12.87,12.87,0,0,1-4.47-3.35L123,111.53a14.52,14.52,0,0,1-.09-1.48m16.84,6.1V122c-.13,0-.27.06-.4.11l-10.06-23A12,12,0,0,1,131.78,98Zm0-8.94v6.86L132.6,97.74a12.07,12.07,0,0,1,2.84-.35Zm0-8.95v6.86l-3.35-7.67a13,13,0,0,1,3.27.63Zm3,42.87V80.53a1.54,1.54,0,0,0-.27-.87L86.36.63A1.48,1.48,0,0,0,84.85,0,186.88,186.88,0,0,0,34.61,19.35C8.92,33.87.56,47.46.21,48a.38.38,0,0,1,0,.1,2.13,2.13,0,0,0-.09.3,2,2,0,0,0-.08.33s0,0,0,.06V109.4a1.49,1.49,0,0,0,1.17,1.46L140.9,142.59a1.24,1.24,0,0,0,.33,0,1.48,1.48,0,0,0,.94-.33,1.5,1.5,0,0,0,.56-1.17"/></g></g></svg>