<svg xmlns="http://www.w3.org/2000/svg" viewBox="0 0 199.42 120.06"><defs><style>.cls-1{fill:#fff;}.cls-2{fill:#d3033b;}</style></defs><g id="Layer_2" data-name="Layer 2"><g id="Ebene_3" data-name="Ebene 3"><path class="cls-1" d="M184,22.93C163,2.63,112.72.79,83.83,1.68,26.63,3.45,1,23.39,1,57.11c0,1,0,1.93.07,2.88S1,61.72,1,62.61c0,48.47,30.74,56,68.65,56,55.6,0,47.3-22.09,66.74-36.34,27.55-15.9,61,12,61-32.26,0-11.6-5.17-20.39-13.46-27"/><path class="cls-2" d="M155.77,54.6c-7,0-12.67-5.33-12.67-11.88s5.68-11.88,12.67-11.88,12.67,5.33,12.67,11.88S162.76,54.6,155.77,54.6m0,3c8.64,0,15.67-6.68,15.67-14.88s-7-14.88-15.67-14.88S140.1,34.51,140.1,42.72s7,14.88,15.67,14.88m39.76-12.37a35.3,35.3,0,0,0-.21-3.74,33,33,0,0,1,1.1,8.47c0,10.34-1.86,17.18-5.71,20.93-4.86,4.75-12.81,4.55-22,4.32-10.2-.25-21.75-.54-32.58,5.71L136,81c-5.94,4.36-9.36,9.4-12.67,14.27-7.6,11.2-14.78,21.78-53.18,21.78C39,117.06,15.88,111.51,7,88.11a38.64,38.64,0,0,0,13.42,13.68c13.66,8.36,33,9.43,48.36,9.43,39.19,0,46.66-10.55,54.57-21.73,3.08-4.36,6.27-8.86,11.65-12.66,9.87-5.44,20.74-5.18,30.32-5,9.8.23,18.27.43,23.93-5.09,4.29-4.19,6.28-11,6.28-21.56M157.75,68.79c-7.91.09-16.3,1-24.28,5.46l-.13.08c-5.84,4.11-9.19,8.85-12.44,13.43-7.45,10.52-14.48,20.46-52.12,20.46-38.52,0-64.48-8.29-65.72-48.08q.6-16.7,9.38-28.37C8.71,38.43,6.81,46.2,6.81,55.1c0,20,6.18,33.51,18.9,41.29s30.49,8.71,44.66,8.71c36.2,0,43.11-9.75,50.42-20.08,2.84-4,5.77-8.15,10.71-11.64,8.52-4.69,17.85-4.77,26.25-4.59m1.73-3c-9.23-.22-19.69-.47-29.51,5l-.13.09c-5.4,3.79-8.5,8.17-11.5,12.41C111.49,93,105,102.1,70.37,102.1c-36.35,0-60.56-8-60.56-47C9.81,23.72,35,7,84.73,5.49c4-.12,7.72-.18,11.35-.18,51.86,0,72.27,11.91,79.94,19.35a26.31,26.31,0,0,1,8.37,19.48c0,8.75-1.61,14.58-4.93,17.82-4.35,4.24-11.6,4.07-20,3.87m33.05-20.6c0,9.52-1.76,15.88-5.38,19.41-4.62,4.51-12.2,4.46-21,4.26,6.19-.12,11.5-1,15.4-4.8s5.83-10.23,5.83-20a29.17,29.17,0,0,0-9.28-21.63,45.87,45.87,0,0,0-9.76-7,61.85,61.85,0,0,1,15.19,8.67,28.61,28.61,0,0,1,9,21.1M188.6,24.57c-.95-.92-2-1.78-3-2.62l-.09-.1C163.93.94,112.82-.71,84.26.18,28.35,1.91,0,21.07,0,57.11c0,1,0,2,.06,3C0,60.94,0,61.76,0,62.61c0,23,6.8,38.48,20.8,47.41s33.69,10,49.34,10c40,0,47.6-11.22,55.66-23.09,3.15-4.65,6.41-9.44,11.9-13.49,10.08-5.79,21.16-5.51,30.93-5.27S187,78.67,192.81,73c4.51-4.4,6.61-11.74,6.61-23.08A34.18,34.18,0,0,0,188.6,24.57"/></g></g></svg>