<svg xmlns="http://www.w3.org/2000/svg" xmlns:xlink="http://www.w3.org/1999/xlink" viewBox="0 0 163.52 301.54"><defs><style>.cls-1,.cls-4,.cls-5,.cls-7,.cls-8{fill:none;}.cls-2{clip-path:url(#clip-path);}.cls-3{fill:#fff;}.cls-4,.cls-5,.cls-7,.cls-8{stroke:#d3033b;}.cls-4,.cls-7,.cls-8{stroke-linecap:round;stroke-linejoin:round;}.cls-4,.cls-5{stroke-width:2.47px;}.cls-6{clip-path:url(#clip-path-12);}.cls-7,.cls-8{stroke-width:1.54px;}.cls-7{stroke-dasharray:0 4.65;}</style><clipPath id="clip-path" transform="translate(0.05 144.37)"><rect class="cls-1" width="163.5" height="138.3"/></clipPath><clipPath id="clip-path-12" transform="translate(0.05 144.37)"><path class="cls-1" d="M14.4,69.2c7.9-19.3,35.5-36.7,68.3-36.7S143.1,49.1,151,68.4c-7.9,19.3-35.5,37.5-68.3,37.5S22.3,88.5,14.4,69.2M81.7,3.7c-6.8,0-12-1-19.8-2.4A81.5,81.5,0,0,0,1.2,68a81.44,81.44,0,0,0,161,0A81.51,81.51,0,0,0,101.5,1.3,93.26,93.26,0,0,1,81.7,3.7"/></clipPath></defs><g id="Layer_2" data-name="Layer 2"><g id="Layer_1-2" data-name="Layer 1"><g id="Laag_5" data-name="Laag 5"><g class="cls-2"><path class="cls-3" d="M138.2,73.3c-27.8-14.7-54-11.1-54.2-.5.2,4.9,0,20.6,0,22.5V72.8h0c-.1-10.3-28.5-13.1-58.3,1.9-15.3,7.7,23.3,48.6,58,48.6,34.5.1,64.1-45.1,54.5-50" transform="translate(0.05 144.37)"/></g><g class="cls-2"><path class="cls-4" d="M138.2,73.3c-27.8-14.7-54-11.1-54.2-.5.2,4.9,0,20.6,0,22.5V72.8h0c-.1-10.3-28.5-13.1-58.3,1.9-15.3,7.7,23.3,48.6,58,48.6C118.2,123.4,147.8,78.2,138.2,73.3Z" transform="translate(0.05 144.37)"/></g><g class="cls-2"><path class="cls-3" d="M66.4,16a4.69,4.69,0,0,0-4.7,4.7V42.5a4.69,4.69,0,0,0,4.7,4.7H77.6a4.69,4.69,0,0,0,4.7-4.7V20.7A4.69,4.69,0,0,0,77.6,16Z" transform="translate(0.05 144.37)"/></g><g class="cls-2"><path class="cls-5" d="M66.4,16a4.69,4.69,0,0,0-4.7,4.7V42.5a4.69,4.69,0,0,0,4.7,4.7H77.6a4.69,4.69,0,0,0,4.7-4.7V20.7A4.69,4.69,0,0,0,77.6,16Z" transform="translate(0.05 144.37)"/></g><g class="cls-2"><path class="cls-3" d="M86.1,16a4.69,4.69,0,0,0-4.7,4.7V42.5a4.69,4.69,0,0,0,4.7,4.7H97.3a4.69,4.69,0,0,0,4.7-4.7V20.7A4.69,4.69,0,0,0,97.3,16Z" transform="translate(0.05 144.37)"/></g><g class="cls-2"><path class="cls-5" d="M86.1,16a4.69,4.69,0,0,0-4.7,4.7V42.5a4.69,4.69,0,0,0,4.7,4.7H97.3a4.69,4.69,0,0,0,4.7-4.7V20.7A4.69,4.69,0,0,0,97.3,16Z" transform="translate(0.05 144.37)"/></g><g class="cls-2"><path class="cls-3" d="M46.3,15.3A4.69,4.69,0,0,0,41.6,20V41.8a4.69,4.69,0,0,0,4.7,4.7H57.5a4.69,4.69,0,0,0,4.7-4.7V20a4.69,4.69,0,0,0-4.7-4.7Z" transform="translate(0.05 144.37)"/></g><g class="cls-2"><path class="cls-5" d="M46.3,15.3A4.69,4.69,0,0,0,41.6,20V41.8a4.69,4.69,0,0,0,4.7,4.7H57.5a4.69,4.69,0,0,0,4.7-4.7V20a4.69,4.69,0,0,0-4.7-4.7Z" transform="translate(0.05 144.37)"/></g><g class="cls-2"><path class="cls-3" d="M105.8,15.6a4.69,4.69,0,0,0-4.7,4.7V42.1a4.69,4.69,0,0,0,4.7,4.7H117a4.69,4.69,0,0,0,4.7-4.7V20.3a4.69,4.69,0,0,0-4.7-4.7Z" transform="translate(0.05 144.37)"/></g><g class="cls-2"><path class="cls-5" d="M105.8,15.6a4.69,4.69,0,0,0-4.7,4.7V42.1a4.69,4.69,0,0,0,4.7,4.7H117a4.69,4.69,0,0,0,4.7-4.7V20.3a4.69,4.69,0,0,0-4.7-4.7Z" transform="translate(0.05 144.37)"/></g><g class="cls-2"><path class="cls-3" d="M150.9,68.4c-7.9,19.3-35.5,37.5-68.3,37.5S22.2,88.5,14.3,69.2c7.9-19.3,35.5-36.7,68.3-36.7S143,49.1,150.9,68.4m11.3-.4A81.51,81.51,0,0,0,101.5,1.3,93.26,93.26,0,0,1,81.7,3.7c-6.8,0-12-1-19.8-2.4A81.5,81.5,0,0,0,1.2,68a81.44,81.44,0,0,0,161,0" transform="translate(0.05 144.37)"/></g><g class="cls-6"><line class="cls-7" x1="82.35" y1="5.37" x2="82.35" y2="296.27"/></g><g class="cls-6"><path class="cls-8" d="M82.3,154.2h0m0-297.8h0" transform="translate(0.05 144.37)"/></g><g class="cls-6"><line class="cls-7" x1="89.35" y1="5.37" x2="89.35" y2="296.27"/></g><g class="cls-6"><path class="cls-8" d="M89.3,154.2h0m0-297.8h0" transform="translate(0.05 144.37)"/></g><g class="cls-6"><line class="cls-7" x1="96.35" y1="5.37" x2="96.35" y2="296.27"/></g><g class="cls-6"><path class="cls-8" d="M96.3,154.2h0m0-297.8h0" transform="translate(0.05 144.37)"/></g><g class="cls-6"><line class="cls-7" x1="103.35" y1="5.37" x2="103.35" y2="296.27"/></g><g class="cls-6"><path class="cls-8" d="M103.3,154.2h0m0-297.8h0" transform="translate(0.05 144.37)"/></g><g class="cls-6"><line class="cls-7" x1="110.35" y1="5.37" x2="110.35" y2="296.27"/></g><g class="cls-6"><path class="cls-8" d="M110.3,154.2h0m0-297.8h0" transform="translate(0.05 144.37)"/></g><g class="cls-6"><line class="cls-7" x1="117.35" y1="5.37" x2="117.35" y2="296.27"/></g><g class="cls-6"><path class="cls-8" d="M117.3,154.2h0m0-297.8h0" transform="translate(0.05 144.37)"/></g><g class="cls-6"><line class="cls-7" x1="124.45" y1="5.37" x2="124.45" y2="296.27"/></g><g class="cls-6"><path class="cls-8" d="M124.4,154.2h0m0-297.8h0" transform="translate(0.05 144.37)"/></g><g class="cls-6"><line class="cls-7" x1="131.45" y1="5.37" x2="131.45" y2="296.27"/></g><g class="cls-6"><path class="cls-8" d="M131.4,154.2h0m0-297.8h0" transform="translate(0.05 144.37)"/></g><g class="cls-6"><line class="cls-7" x1="138.45" y1="5.37" x2="138.45" y2="296.27"/></g><g class="cls-6"><path class="cls-8" d="M138.4,154.2h0m0-297.8h0" transform="translate(0.05 144.37)"/></g><g class="cls-6"><line class="cls-7" x1="145.45" y1="5.37" x2="145.45" y2="296.27"/></g><g class="cls-6"><path class="cls-8" d="M145.4,154.2h0m0-297.8h0" transform="translate(0.05 144.37)"/></g><g class="cls-6"><line class="cls-7" x1="152.45" y1="5.37" x2="152.45" y2="296.27"/></g><g class="cls-6"><path class="cls-8" d="M152.4,154.2h0m0-297.8h0" transform="translate(0.05 144.37)"/></g><g class="cls-6"><line class="cls-7" x1="159.45" y1="5.37" x2="159.45" y2="296.27"/></g><g class="cls-6"><path class="cls-8" d="M159.4,154.2h0m0-297.8h0" transform="translate(0.05 144.37)"/></g><g class="cls-6"><line class="cls-7" x1="85.65" y1="7.57" x2="85.65" y2="298.37"/></g><g class="cls-6"><path class="cls-8" d="M85.6,156.4h0m0-297.8h0" transform="translate(0.05 144.37)"/></g><g class="cls-6"><line class="cls-7" x1="92.65" y1="7.57" x2="92.65" y2="298.37"/></g><g class="cls-6"><path class="cls-8" d="M92.6,156.4h0m0-297.8h0" transform="translate(0.05 144.37)"/></g><g class="cls-6"><line class="cls-7" x1="99.65" y1="7.57" x2="99.65" y2="298.37"/></g><g class="cls-6"><path class="cls-8" d="M99.6,156.4h0m0-297.8h0" transform="translate(0.05 144.37)"/></g><g class="cls-6"><line class="cls-7" x1="106.65" y1="7.57" x2="106.65" y2="298.37"/></g><g class="cls-6"><path class="cls-8" d="M106.6,156.4h0m0-297.8h0" transform="translate(0.05 144.37)"/></g><g class="cls-6"><line class="cls-7" x1="113.65" y1="7.57" x2="113.65" y2="298.37"/></g><g class="cls-6"><path class="cls-8" d="M113.6,156.4h0m0-297.8h0" transform="translate(0.05 144.37)"/></g><g class="cls-6"><line class="cls-7" x1="120.65" y1="7.57" x2="120.65" y2="298.37"/></g><g class="cls-6"><path class="cls-8" d="M120.6,156.4h0m0-297.8h0" transform="translate(0.05 144.37)"/></g><g class="cls-6"><line class="cls-7" x1="127.75" y1="7.57" x2="127.75" y2="298.37"/></g><g class="cls-6"><path class="cls-8" d="M127.7,156.4h0m0-297.8h0" transform="translate(0.05 144.37)"/></g><g class="cls-6"><line class="cls-7" x1="134.75" y1="7.57" x2="134.75" y2="298.37"/></g><g class="cls-6"><path class="cls-8" d="M134.7,156.4h0m0-297.8h0" transform="translate(0.05 144.37)"/></g><g class="cls-6"><line class="cls-7" x1="141.75" y1="7.57" x2="141.75" y2="298.37"/></g><g class="cls-6"><path class="cls-8" d="M141.7,156.4h0m0-297.8h0" transform="translate(0.05 144.37)"/></g><g class="cls-6"><line class="cls-7" x1="148.75" y1="7.57" x2="148.75" y2="298.37"/></g><g class="cls-6"><path class="cls-8" d="M148.7,156.4h0m0-297.8h0" transform="translate(0.05 144.37)"/></g><g class="cls-6"><line class="cls-7" x1="155.75" y1="7.57" x2="155.75" y2="298.37"/></g><g class="cls-6"><path class="cls-8" d="M155.7,156.4h0m0-297.8h0" transform="translate(0.05 144.37)"/></g><g class="cls-6"><line class="cls-7" x1="162.75" y1="7.57" x2="162.75" y2="298.37"/></g><g class="cls-6"><path class="cls-8" d="M162.7,156.4h0m0-297.8h0" transform="translate(0.05 144.37)"/></g><g class="cls-2"><path class="cls-5" d="M150.9,68.4c-7.9,19.3-35.5,37.5-68.3,37.5S22.2,88.5,14.3,69.2c7.9-19.3,35.5-36.7,68.3-36.7S143,49.1,150.9,68.4Zm11.3-.4A81.51,81.51,0,0,0,101.5,1.3,93.26,93.26,0,0,1,81.7,3.7c-6.8,0-12-1-19.8-2.4A81.5,81.5,0,0,0,1.2,68a81.44,81.44,0,0,0,161,0Z" transform="translate(0.05 144.37)"/></g></g></g></g></svg>